solid ascii
  facet normal 1.000000e+000 -0.000000e+000 -0.000000e+000
    outer loop
      vertex   -1.055000e+002 5.900000e+001 1.776357e-014
      vertex   -1.055000e+002 1.000000e+002 -1.776357e-014
      vertex   -1.055000e+002 5.900000e+001 6.000000e+000
    endloop
  endfacet
  facet normal 1.000000e+000 -0.000000e+000 0.000000e+000
    outer loop
      vertex   -1.055000e+002 5.900000e+001 6.000000e+000
      vertex   -1.055000e+002 1.000000e+002 -1.776357e-014
      vertex   -1.055000e+002 1.000000e+002 6.000000e+000
    endloop
  endfacet
  facet normal 1.000000e+000 -0.000000e+000 0.000000e+000
    outer loop
      vertex   -1.055000e+002 1.000000e+002 6.000000e+000
      vertex   -1.055000e+002 1.000000e+002 -1.776357e-014
      vertex   -1.055000e+002 1.410000e+002 1.776357e-014
    endloop
  endfacet
  facet normal 1.000000e+000 0.000000e+000 0.000000e+000
    outer loop
      vertex   -1.055000e+002 1.410000e+002 6.000000e+000
      vertex   -1.055000e+002 1.000000e+002 6.000000e+000
      vertex   -1.055000e+002 1.410000e+002 1.776357e-014
    endloop
  endfacet
  facet normal 0.000000e+000 -1.000000e+000 0.000000e+000
    outer loop
      vertex   -1.055000e+002 1.410000e+002 1.776357e-014
      vertex   -5.650000e+001 1.410000e+002 1.776357e-014
      vertex   -1.055000e+002 1.410000e+002 6.000000e+000
    endloop
  endfacet
  facet normal 0.000000e+000 -1.000000e+000 0.000000e+000
    outer loop
      vertex   -1.055000e+002 1.410000e+002 6.000000e+000
      vertex   -5.650000e+001 1.410000e+002 1.776357e-014
      vertex   -5.650000e+001 1.410000e+002 6.000000e+000
    endloop
  endfacet
  facet normal -1.000000e+000 -0.000000e+000 0.000000e+000
    outer loop
      vertex   -5.650000e+001 1.410000e+002 1.776357e-014
      vertex   -5.650000e+001 1.000000e+002 -1.776357e-014
      vertex   -5.650000e+001 1.410000e+002 6.000000e+000
    endloop
  endfacet
  facet normal -1.000000e+000 -0.000000e+000 0.000000e+000
    outer loop
      vertex   -5.650000e+001 1.410000e+002 6.000000e+000
      vertex   -5.650000e+001 1.000000e+002 -1.776357e-014
      vertex   -5.650000e+001 1.000000e+002 6.000000e+000
    endloop
  endfacet
  facet normal -1.000000e+000 -0.000000e+000 -0.000000e+000
    outer loop
      vertex   -5.650000e+001 1.000000e+002 6.000000e+000
      vertex   -5.650000e+001 1.000000e+002 -1.776357e-014
      vertex   -5.650000e+001 5.900000e+001 1.776357e-014
    endloop
  endfacet
  facet normal -1.000000e+000 0.000000e+000 -0.000000e+000
    outer loop
      vertex   -5.650000e+001 5.900000e+001 6.000000e+000
      vertex   -5.650000e+001 1.000000e+002 6.000000e+000
      vertex   -5.650000e+001 5.900000e+001 1.776357e-014
    endloop
  endfacet
  facet normal 0.000000e+000 1.000000e+000 -0.000000e+000
    outer loop
      vertex   -5.650000e+001 5.900000e+001 1.776357e-014
      vertex   -1.055000e+002 5.900000e+001 1.776357e-014
      vertex   -5.650000e+001 5.900000e+001 6.000000e+000
    endloop
  endfacet
  facet normal 0.000000e+000 1.000000e+000 -0.000000e+000
    outer loop
      vertex   -5.650000e+001 5.900000e+001 6.000000e+000
      vertex   -1.055000e+002 5.900000e+001 1.776357e-014
      vertex   -1.055000e+002 5.900000e+001 6.000000e+000
    endloop
  endfacet
  facet normal 1.000000e+000 0.000000e+000 -0.000000e+000
    outer loop
      vertex   -3.100000e+001 1.500000e+001 -1.776357e-014
      vertex   -3.100000e+001 5.750000e+001 -1.776357e-014
      vertex   -3.100000e+001 1.500000e+001 6.000000e+000
    endloop
  endfacet
  facet normal 1.000000e+000 -0.000000e+000 0.000000e+000
    outer loop
      vertex   -3.100000e+001 1.500000e+001 6.000000e+000
      vertex   -3.100000e+001 5.750000e+001 -1.776357e-014
      vertex   -3.100000e+001 5.750000e+001 6.000000e+000
    endloop
  endfacet
  facet normal 1.000000e+000 -0.000000e+000 0.000000e+000
    outer loop
      vertex   -3.100000e+001 5.750000e+001 6.000000e+000
      vertex   -3.100000e+001 5.750000e+001 -1.776357e-014
      vertex   -3.100000e+001 1.000000e+002 -1.776357e-014
    endloop
  endfacet
  facet normal 1.000000e+000 -0.000000e+000 0.000000e+000
    outer loop
      vertex   -3.100000e+001 1.000000e+002 6.000000e+000
      vertex   -3.100000e+001 1.000000e+002 -1.776357e-014
      vertex   -3.100000e+001 1.425000e+002 -1.776357e-014
    endloop
  endfacet
  facet normal 1.000000e+000 -0.000000e+000 0.000000e+000
    outer loop
      vertex   -3.100000e+001 1.425000e+002 6.000000e+000
      vertex   -3.100000e+001 1.425000e+002 -1.776357e-014
      vertex   -3.100000e+001 1.850000e+002 -1.776357e-014
    endloop
  endfacet
  facet normal 1.000000e+000 0.000000e+000 0.000000e+000
    outer loop
      vertex   -3.100000e+001 1.850000e+002 6.000000e+000
      vertex   -3.100000e+001 1.425000e+002 6.000000e+000
      vertex   -3.100000e+001 1.850000e+002 -1.776357e-014
    endloop
  endfacet
  facet normal 1.000000e+000 -0.000000e+000 0.000000e+000
    outer loop
      vertex   -3.100000e+001 5.750000e+001 6.000000e+000
      vertex   -3.100000e+001 1.000000e+002 -1.776357e-014
      vertex   -3.100000e+001 1.000000e+002 6.000000e+000
    endloop
  endfacet
  facet normal 1.000000e+000 -0.000000e+000 0.000000e+000
    outer loop
      vertex   -3.100000e+001 1.000000e+002 6.000000e+000
      vertex   -3.100000e+001 1.425000e+002 -1.776357e-014
      vertex   -3.100000e+001 1.425000e+002 6.000000e+000
    endloop
  endfacet
  facet normal 0.000000e+000 -1.000000e+000 0.000000e+000
    outer loop
      vertex   -1.310000e+002 1.500000e+001 -1.776357e-014
      vertex   -8.100000e+001 1.500000e+001 -1.776357e-014
      vertex   -1.310000e+002 1.500000e+001 6.000000e+000
    endloop
  endfacet
  facet normal 0.000000e+000 -1.000000e+000 0.000000e+000
    outer loop
      vertex   -1.310000e+002 1.500000e+001 6.000000e+000
      vertex   -8.100000e+001 1.500000e+001 -1.776357e-014
      vertex   -8.100000e+001 1.500000e+001 6.000000e+000
    endloop
  endfacet
  facet normal 0.000000e+000 -1.000000e+000 0.000000e+000
    outer loop
      vertex   -8.100000e+001 1.500000e+001 6.000000e+000
      vertex   -8.100000e+001 1.500000e+001 -1.776357e-014
      vertex   -3.100000e+001 1.500000e+001 -1.776357e-014
    endloop
  endfacet
  facet normal -0.000000e+000 -1.000000e+000 -0.000000e+000
    outer loop
      vertex   -3.100000e+001 1.500000e+001 6.000000e+000
      vertex   -8.100000e+001 1.500000e+001 6.000000e+000
      vertex   -3.100000e+001 1.500000e+001 -1.776357e-014
    endloop
  endfacet
  facet normal -1.000000e+000 0.000000e+000 0.000000e+000
    outer loop
      vertex   -1.310000e+002 1.850000e+002 -1.776357e-014
      vertex   -1.310000e+002 1.425000e+002 -1.776357e-014
      vertex   -1.310000e+002 1.850000e+002 6.000000e+000
    endloop
  endfacet
  facet normal -1.000000e+000 -0.000000e+000 0.000000e+000
    outer loop
      vertex   -1.310000e+002 1.850000e+002 6.000000e+000
      vertex   -1.310000e+002 1.425000e+002 -1.776357e-014
      vertex   -1.310000e+002 1.425000e+002 6.000000e+000
    endloop
  endfacet
  facet normal -1.000000e+000 -0.000000e+000 -0.000000e+000
    outer loop
      vertex   -1.310000e+002 1.425000e+002 6.000000e+000
      vertex   -1.310000e+002 1.425000e+002 -1.776357e-014
      vertex   -1.310000e+002 1.000000e+002 -1.776357e-014
    endloop
  endfacet
  facet normal -1.000000e+000 -0.000000e+000 -0.000000e+000
    outer loop
      vertex   -1.310000e+002 1.000000e+002 6.000000e+000
      vertex   -1.310000e+002 1.000000e+002 -1.776357e-014
      vertex   -1.310000e+002 5.750000e+001 -1.776357e-014
    endloop
  endfacet
  facet normal -1.000000e+000 -0.000000e+000 -0.000000e+000
    outer loop
      vertex   -1.310000e+002 5.750000e+001 6.000000e+000
      vertex   -1.310000e+002 5.750000e+001 -1.776357e-014
      vertex   -1.310000e+002 1.500000e+001 -1.776357e-014
    endloop
  endfacet
  facet normal -1.000000e+000 0.000000e+000 -0.000000e+000
    outer loop
      vertex   -1.310000e+002 1.500000e+001 6.000000e+000
      vertex   -1.310000e+002 5.750000e+001 6.000000e+000
      vertex   -1.310000e+002 1.500000e+001 -1.776357e-014
    endloop
  endfacet
  facet normal -1.000000e+000 -0.000000e+000 0.000000e+000
    outer loop
      vertex   -1.310000e+002 1.425000e+002 6.000000e+000
      vertex   -1.310000e+002 1.000000e+002 -1.776357e-014
      vertex   -1.310000e+002 1.000000e+002 6.000000e+000
    endloop
  endfacet
  facet normal -1.000000e+000 -0.000000e+000 0.000000e+000
    outer loop
      vertex   -1.310000e+002 1.000000e+002 6.000000e+000
      vertex   -1.310000e+002 5.750000e+001 -1.776357e-014
      vertex   -1.310000e+002 5.750000e+001 6.000000e+000
    endloop
  endfacet
  facet normal 0.000000e+000 1.000000e+000 -0.000000e+000
    outer loop
      vertex   -3.100000e+001 1.850000e+002 -1.776357e-014
      vertex   -8.100000e+001 1.850000e+002 -1.776357e-014
      vertex   -3.100000e+001 1.850000e+002 6.000000e+000
    endloop
  endfacet
  facet normal 0.000000e+000 1.000000e+000 -0.000000e+000
    outer loop
      vertex   -3.100000e+001 1.850000e+002 6.000000e+000
      vertex   -8.100000e+001 1.850000e+002 -1.776357e-014
      vertex   -8.100000e+001 1.850000e+002 6.000000e+000
    endloop
  endfacet
  facet normal 0.000000e+000 1.000000e+000 0.000000e+000
    outer loop
      vertex   -8.100000e+001 1.850000e+002 6.000000e+000
      vertex   -8.100000e+001 1.850000e+002 -1.776357e-014
      vertex   -1.310000e+002 1.850000e+002 -1.776357e-014
    endloop
  endfacet
  facet normal -0.000000e+000 1.000000e+000 0.000000e+000
    outer loop
      vertex   -1.310000e+002 1.850000e+002 6.000000e+000
      vertex   -8.100000e+001 1.850000e+002 6.000000e+000
      vertex   -1.310000e+002 1.850000e+002 -1.776357e-014
    endloop
  endfacet
  facet normal 4.828991e-031 8.665155e-016 1.000000e+000
    outer loop
      vertex   -1.055000e+002 1.000000e+002 6.000000e+000
      vertex   -1.310000e+002 1.000000e+002 6.000000e+000
      vertex   -1.055000e+002 5.900000e+001 6.000000e+000
    endloop
  endfacet
  facet normal -3.863193e-031 -8.665155e-016 1.000000e+000
    outer loop
      vertex   -1.055000e+002 1.000000e+002 6.000000e+000
      vertex   -1.055000e+002 1.410000e+002 6.000000e+000
      vertex   -1.310000e+002 1.000000e+002 6.000000e+000
    endloop
  endfacet
  facet normal -1.393221e-015 0.000000e+000 1.000000e+000
    outer loop
      vertex   -1.310000e+002 1.000000e+002 6.000000e+000
      vertex   -1.055000e+002 1.410000e+002 6.000000e+000
      vertex   -1.310000e+002 1.425000e+002 6.000000e+000
    endloop
  endfacet
  facet normal -1.393221e-015 0.000000e+000 1.000000e+000
    outer loop
      vertex   -1.310000e+002 1.425000e+002 6.000000e+000
      vertex   -1.055000e+002 1.410000e+002 6.000000e+000
      vertex   -1.310000e+002 1.850000e+002 6.000000e+000
    endloop
  endfacet
  facet normal 0.000000e+000 8.074349e-016 1.000000e+000
    outer loop
      vertex   -1.310000e+002 1.850000e+002 6.000000e+000
      vertex   -1.055000e+002 1.410000e+002 6.000000e+000
      vertex   -8.100000e+001 1.850000e+002 6.000000e+000
    endloop
  endfacet
  facet normal -0.000000e+000 8.074349e-016 1.000000e+000
    outer loop
      vertex   -8.100000e+001 1.850000e+002 6.000000e+000
      vertex   -1.055000e+002 1.410000e+002 6.000000e+000
      vertex   -5.650000e+001 1.410000e+002 6.000000e+000
    endloop
  endfacet
  facet normal 1.393221e-015 0.000000e+000 1.000000e+000
    outer loop
      vertex   -3.100000e+001 1.850000e+002 6.000000e+000
      vertex   -5.650000e+001 1.410000e+002 6.000000e+000
      vertex   -3.100000e+001 1.425000e+002 6.000000e+000
    endloop
  endfacet
  facet normal 0.000000e+000 8.074349e-016 1.000000e+000
    outer loop
      vertex   -3.100000e+001 1.850000e+002 6.000000e+000
      vertex   -8.100000e+001 1.850000e+002 6.000000e+000
      vertex   -5.650000e+001 1.410000e+002 6.000000e+000
    endloop
  endfacet
  facet normal 1.393221e-015 0.000000e+000 1.000000e+000
    outer loop
      vertex   -3.100000e+001 1.425000e+002 6.000000e+000
      vertex   -5.650000e+001 1.410000e+002 6.000000e+000
      vertex   -3.100000e+001 1.000000e+002 6.000000e+000
    endloop
  endfacet
  facet normal 0.000000e+000 -8.665155e-016 1.000000e+000
    outer loop
      vertex   -3.100000e+001 1.000000e+002 6.000000e+000
      vertex   -5.650000e+001 1.410000e+002 6.000000e+000
      vertex   -5.650000e+001 1.000000e+002 6.000000e+000
    endloop
  endfacet
  facet normal 0.000000e+000 8.665155e-016 1.000000e+000
    outer loop
      vertex   -5.650000e+001 5.900000e+001 6.000000e+000
      vertex   -3.100000e+001 1.000000e+002 6.000000e+000
      vertex   -5.650000e+001 1.000000e+002 6.000000e+000
    endloop
  endfacet
  facet normal 1.393221e-015 -0.000000e+000 1.000000e+000
    outer loop
      vertex   -5.650000e+001 5.900000e+001 6.000000e+000
      vertex   -3.100000e+001 5.750000e+001 6.000000e+000
      vertex   -3.100000e+001 1.000000e+002 6.000000e+000
    endloop
  endfacet
  facet normal 1.393221e-015 -0.000000e+000 1.000000e+000
    outer loop
      vertex   -5.650000e+001 5.900000e+001 6.000000e+000
      vertex   -3.100000e+001 1.500000e+001 6.000000e+000
      vertex   -3.100000e+001 5.750000e+001 6.000000e+000
    endloop
  endfacet
  facet normal 0.000000e+000 -8.074349e-016 1.000000e+000
    outer loop
      vertex   -5.650000e+001 5.900000e+001 6.000000e+000
      vertex   -8.100000e+001 1.500000e+001 6.000000e+000
      vertex   -3.100000e+001 1.500000e+001 6.000000e+000
    endloop
  endfacet
  facet normal 0.000000e+000 -8.074349e-016 1.000000e+000
    outer loop
      vertex   -5.650000e+001 5.900000e+001 6.000000e+000
      vertex   -1.055000e+002 5.900000e+001 6.000000e+000
      vertex   -8.100000e+001 1.500000e+001 6.000000e+000
    endloop
  endfacet
  facet normal 0.000000e+000 -8.074349e-016 1.000000e+000
    outer loop
      vertex   -8.100000e+001 1.500000e+001 6.000000e+000
      vertex   -1.055000e+002 5.900000e+001 6.000000e+000
      vertex   -1.310000e+002 1.500000e+001 6.000000e+000
    endloop
  endfacet
  facet normal -1.393221e-015 0.000000e+000 1.000000e+000
    outer loop
      vertex   -1.310000e+002 1.500000e+001 6.000000e+000
      vertex   -1.055000e+002 5.900000e+001 6.000000e+000
      vertex   -1.310000e+002 5.750000e+001 6.000000e+000
    endloop
  endfacet
  facet normal -1.393221e-015 0.000000e+000 1.000000e+000
    outer loop
      vertex   -1.310000e+002 5.750000e+001 6.000000e+000
      vertex   -1.055000e+002 5.900000e+001 6.000000e+000
      vertex   -1.310000e+002 1.000000e+002 6.000000e+000
    endloop
  endfacet
  facet normal 4.828991e-031 8.665155e-016 -1.000000e+000
    outer loop
      vertex   -1.055000e+002 1.000000e+002 -1.776357e-014
      vertex   -1.310000e+002 1.000000e+002 -1.776357e-014
      vertex   -1.055000e+002 1.410000e+002 1.776357e-014
    endloop
  endfacet
  facet normal -3.863193e-031 -8.665155e-016 -1.000000e+000
    outer loop
      vertex   -1.055000e+002 1.000000e+002 -1.776357e-014
      vertex   -1.055000e+002 5.900000e+001 1.776357e-014
      vertex   -1.310000e+002 1.000000e+002 -1.776357e-014
    endloop
  endfacet
  facet normal 1.393221e-015 0.000000e+000 -1.000000e+000
    outer loop
      vertex   -1.310000e+002 1.000000e+002 -1.776357e-014
      vertex   -1.055000e+002 5.900000e+001 1.776357e-014
      vertex   -1.310000e+002 5.750000e+001 -1.776357e-014
    endloop
  endfacet
  facet normal 1.393221e-015 0.000000e+000 -1.000000e+000
    outer loop
      vertex   -1.310000e+002 5.750000e+001 -1.776357e-014
      vertex   -1.055000e+002 5.900000e+001 1.776357e-014
      vertex   -1.310000e+002 1.500000e+001 -1.776357e-014
    endloop
  endfacet
  facet normal 0.000000e+000 8.074349e-016 -1.000000e+000
    outer loop
      vertex   -1.310000e+002 1.500000e+001 -1.776357e-014
      vertex   -1.055000e+002 5.900000e+001 1.776357e-014
      vertex   -8.100000e+001 1.500000e+001 -1.776357e-014
    endloop
  endfacet
  facet normal 0.000000e+000 8.074349e-016 -1.000000e+000
    outer loop
      vertex   -8.100000e+001 1.500000e+001 -1.776357e-014
      vertex   -1.055000e+002 5.900000e+001 1.776357e-014
      vertex   -5.650000e+001 5.900000e+001 1.776357e-014
    endloop
  endfacet
  facet normal -1.393221e-015 0.000000e+000 -1.000000e+000
    outer loop
      vertex   -3.100000e+001 1.500000e+001 -1.776357e-014
      vertex   -5.650000e+001 5.900000e+001 1.776357e-014
      vertex   -3.100000e+001 5.750000e+001 -1.776357e-014
    endloop
  endfacet
  facet normal 0.000000e+000 8.074349e-016 -1.000000e+000
    outer loop
      vertex   -3.100000e+001 1.500000e+001 -1.776357e-014
      vertex   -8.100000e+001 1.500000e+001 -1.776357e-014
      vertex   -5.650000e+001 5.900000e+001 1.776357e-014
    endloop
  endfacet
  facet normal -1.393221e-015 0.000000e+000 -1.000000e+000
    outer loop
      vertex   -3.100000e+001 5.750000e+001 -1.776357e-014
      vertex   -5.650000e+001 5.900000e+001 1.776357e-014
      vertex   -3.100000e+001 1.000000e+002 -1.776357e-014
    endloop
  endfacet
  facet normal 0.000000e+000 -8.665155e-016 -1.000000e+000
    outer loop
      vertex   -3.100000e+001 1.000000e+002 -1.776357e-014
      vertex   -5.650000e+001 5.900000e+001 1.776357e-014
      vertex   -5.650000e+001 1.000000e+002 -1.776357e-014
    endloop
  endfacet
  facet normal 0.000000e+000 8.665155e-016 -1.000000e+000
    outer loop
      vertex   -5.650000e+001 1.410000e+002 1.776357e-014
      vertex   -3.100000e+001 1.000000e+002 -1.776357e-014
      vertex   -5.650000e+001 1.000000e+002 -1.776357e-014
    endloop
  endfacet
  facet normal -1.393221e-015 -0.000000e+000 -1.000000e+000
    outer loop
      vertex   -5.650000e+001 1.410000e+002 1.776357e-014
      vertex   -3.100000e+001 1.425000e+002 -1.776357e-014
      vertex   -3.100000e+001 1.000000e+002 -1.776357e-014
    endloop
  endfacet
  facet normal -1.393221e-015 -0.000000e+000 -1.000000e+000
    outer loop
      vertex   -5.650000e+001 1.410000e+002 1.776357e-014
      vertex   -3.100000e+001 1.850000e+002 -1.776357e-014
      vertex   -3.100000e+001 1.425000e+002 -1.776357e-014
    endloop
  endfacet
  facet normal 0.000000e+000 -8.074349e-016 -1.000000e+000
    outer loop
      vertex   -5.650000e+001 1.410000e+002 1.776357e-014
      vertex   -8.100000e+001 1.850000e+002 -1.776357e-014
      vertex   -3.100000e+001 1.850000e+002 -1.776357e-014
    endloop
  endfacet
  facet normal -0.000000e+000 -8.074349e-016 -1.000000e+000
    outer loop
      vertex   -5.650000e+001 1.410000e+002 1.776357e-014
      vertex   -1.055000e+002 1.410000e+002 1.776357e-014
      vertex   -8.100000e+001 1.850000e+002 -1.776357e-014
    endloop
  endfacet
  facet normal 0.000000e+000 -8.074349e-016 -1.000000e+000
    outer loop
      vertex   -8.100000e+001 1.850000e+002 -1.776357e-014
      vertex   -1.055000e+002 1.410000e+002 1.776357e-014
      vertex   -1.310000e+002 1.850000e+002 -1.776357e-014
    endloop
  endfacet
  facet normal 1.393221e-015 0.000000e+000 -1.000000e+000
    outer loop
      vertex   -1.310000e+002 1.850000e+002 -1.776357e-014
      vertex   -1.055000e+002 1.410000e+002 1.776357e-014
      vertex   -1.310000e+002 1.425000e+002 -1.776357e-014
    endloop
  endfacet
  facet normal 1.393221e-015 0.000000e+000 -1.000000e+000
    outer loop
      vertex   -1.310000e+002 1.425000e+002 -1.776357e-014
      vertex   -1.055000e+002 1.410000e+002 1.776357e-014
      vertex   -1.310000e+002 1.000000e+002 -1.776357e-014
    endloop
  endfacet
endsolid
