solid ascii
  facet normal 0.000000e+000 -0.000000e+000 1.000000e+000
    outer loop
      vertex   -6.000000e+001 1.300000e+002 1.250000e+001
      vertex   -5.000000e+001 1.300000e+002 1.250000e+001
      vertex   -6.000000e+001 1.350000e+002 1.250000e+001
    endloop
  endfacet
  facet normal -0.000000e+000 0.000000e+000 1.000000e+000
    outer loop
      vertex   -6.000000e+001 1.350000e+002 1.250000e+001
      vertex   -5.000000e+001 1.300000e+002 1.250000e+001
      vertex   -5.000000e+001 1.350000e+002 1.250000e+001
    endloop
  endfacet
  facet normal -1.000000e+000 0.000000e+000 0.000000e+000
    outer loop
      vertex   -5.000000e+001 1.300000e+002 1.250000e+001
      vertex   -5.000000e+001 1.300000e+002 1.750000e+001
      vertex   -5.000000e+001 1.350000e+002 1.250000e+001
    endloop
  endfacet
  facet normal -1.000000e+000 0.000000e+000 0.000000e+000
    outer loop
      vertex   -5.000000e+001 1.350000e+002 1.250000e+001
      vertex   -5.000000e+001 1.300000e+002 1.750000e+001
      vertex   -5.000000e+001 1.350000e+002 1.750000e+001
    endloop
  endfacet
  facet normal 0.000000e+000 0.000000e+000 -1.000000e+000
    outer loop
      vertex   -5.000000e+001 1.300000e+002 1.750000e+001
      vertex   -6.000000e+001 1.300000e+002 1.750000e+001
      vertex   -5.000000e+001 1.350000e+002 1.750000e+001
    endloop
  endfacet
  facet normal -0.000000e+000 0.000000e+000 -1.000000e+000
    outer loop
      vertex   -5.000000e+001 1.350000e+002 1.750000e+001
      vertex   -6.000000e+001 1.300000e+002 1.750000e+001
      vertex   -6.000000e+001 1.350000e+002 1.750000e+001
    endloop
  endfacet
  facet normal 1.000000e+000 -0.000000e+000 0.000000e+000
    outer loop
      vertex   -6.000000e+001 1.300000e+002 1.750000e+001
      vertex   -6.000000e+001 1.300000e+002 1.250000e+001
      vertex   -6.000000e+001 1.350000e+002 1.750000e+001
    endloop
  endfacet
  facet normal 1.000000e+000 -0.000000e+000 0.000000e+000
    outer loop
      vertex   -6.000000e+001 1.350000e+002 1.750000e+001
      vertex   -6.000000e+001 1.300000e+002 1.250000e+001
      vertex   -6.000000e+001 1.350000e+002 1.250000e+001
    endloop
  endfacet
  facet normal 0.000000e+000 -0.000000e+000 1.000000e+000
    outer loop
      vertex   -6.000000e+001 2.500000e+001 1.250000e+001
      vertex   -5.000000e+001 2.500000e+001 1.250000e+001
      vertex   -6.000000e+001 3.000000e+001 1.250000e+001
    endloop
  endfacet
  facet normal -0.000000e+000 0.000000e+000 1.000000e+000
    outer loop
      vertex   -6.000000e+001 3.000000e+001 1.250000e+001
      vertex   -5.000000e+001 2.500000e+001 1.250000e+001
      vertex   -5.000000e+001 3.000000e+001 1.250000e+001
    endloop
  endfacet
  facet normal -1.000000e+000 0.000000e+000 0.000000e+000
    outer loop
      vertex   -5.000000e+001 2.500000e+001 1.250000e+001
      vertex   -5.000000e+001 2.500000e+001 1.750000e+001
      vertex   -5.000000e+001 3.000000e+001 1.250000e+001
    endloop
  endfacet
  facet normal -1.000000e+000 0.000000e+000 0.000000e+000
    outer loop
      vertex   -5.000000e+001 3.000000e+001 1.250000e+001
      vertex   -5.000000e+001 2.500000e+001 1.750000e+001
      vertex   -5.000000e+001 3.000000e+001 1.750000e+001
    endloop
  endfacet
  facet normal 0.000000e+000 0.000000e+000 -1.000000e+000
    outer loop
      vertex   -5.000000e+001 2.500000e+001 1.750000e+001
      vertex   -6.000000e+001 2.500000e+001 1.750000e+001
      vertex   -5.000000e+001 3.000000e+001 1.750000e+001
    endloop
  endfacet
  facet normal -0.000000e+000 0.000000e+000 -1.000000e+000
    outer loop
      vertex   -5.000000e+001 3.000000e+001 1.750000e+001
      vertex   -6.000000e+001 2.500000e+001 1.750000e+001
      vertex   -6.000000e+001 3.000000e+001 1.750000e+001
    endloop
  endfacet
  facet normal 1.000000e+000 -0.000000e+000 0.000000e+000
    outer loop
      vertex   -6.000000e+001 2.500000e+001 1.750000e+001
      vertex   -6.000000e+001 2.500000e+001 1.250000e+001
      vertex   -6.000000e+001 3.000000e+001 1.750000e+001
    endloop
  endfacet
  facet normal 1.000000e+000 -0.000000e+000 0.000000e+000
    outer loop
      vertex   -6.000000e+001 3.000000e+001 1.750000e+001
      vertex   -6.000000e+001 2.500000e+001 1.250000e+001
      vertex   -6.000000e+001 3.000000e+001 1.250000e+001
    endloop
  endfacet
  facet normal -0.000000e+000 1.000000e+000 0.000000e+000
    outer loop
      vertex   -7.749989e+001 1.225005e+002 2.900000e+001
      vertex   -7.249989e+001 1.225005e+002 2.900000e+001
      vertex   -7.749989e+001 1.225005e+002 1.400000e+001
    endloop
  endfacet
  facet normal -0.000000e+000 1.000000e+000 0.000000e+000
    outer loop
      vertex   -7.749989e+001 1.225005e+002 1.400000e+001
      vertex   -7.249989e+001 1.225005e+002 2.900000e+001
      vertex   -7.249989e+001 1.225005e+002 1.400000e+001
    endloop
  endfacet
  facet normal -1.000000e+000 0.000000e+000 -0.000000e+000
    outer loop
      vertex   -7.249989e+001 1.225005e+002 2.900000e+001
      vertex   -7.249989e+001 1.275005e+002 2.900000e+001
      vertex   -7.249989e+001 1.225005e+002 1.400000e+001
    endloop
  endfacet
  facet normal -1.000000e+000 0.000000e+000 0.000000e+000
    outer loop
      vertex   -7.249989e+001 1.225005e+002 1.400000e+001
      vertex   -7.249989e+001 1.275005e+002 2.900000e+001
      vertex   -7.249989e+001 1.275005e+002 1.400000e+001
    endloop
  endfacet
  facet normal -0.000000e+000 -1.000000e+000 -0.000000e+000
    outer loop
      vertex   -7.249989e+001 1.275005e+002 2.900000e+001
      vertex   -7.749989e+001 1.275005e+002 2.900000e+001
      vertex   -7.249989e+001 1.275005e+002 1.400000e+001
    endloop
  endfacet
  facet normal -0.000000e+000 -1.000000e+000 -0.000000e+000
    outer loop
      vertex   -7.249989e+001 1.275005e+002 1.400000e+001
      vertex   -7.749989e+001 1.275005e+002 2.900000e+001
      vertex   -7.749989e+001 1.275005e+002 1.400000e+001
    endloop
  endfacet
  facet normal 1.000000e+000 0.000000e+000 0.000000e+000
    outer loop
      vertex   -7.749989e+001 1.275005e+002 2.900000e+001
      vertex   -7.749989e+001 1.225005e+002 2.900000e+001
      vertex   -7.749989e+001 1.275005e+002 1.400000e+001
    endloop
  endfacet
  facet normal 1.000000e+000 0.000000e+000 0.000000e+000
    outer loop
      vertex   -7.749989e+001 1.275005e+002 1.400000e+001
      vertex   -7.749989e+001 1.225005e+002 2.900000e+001
      vertex   -7.749989e+001 1.225005e+002 1.400000e+001
    endloop
  endfacet
  facet normal 0.000000e+000 -0.000000e+000 1.000000e+000
    outer loop
      vertex   -7.749989e+001 1.225005e+002 1.400000e+001
      vertex   -7.249989e+001 1.225005e+002 1.400000e+001
      vertex   -7.749989e+001 1.275005e+002 1.400000e+001
    endloop
  endfacet
  facet normal -0.000000e+000 0.000000e+000 1.000000e+000
    outer loop
      vertex   -7.749989e+001 1.275005e+002 1.400000e+001
      vertex   -7.249989e+001 1.225005e+002 1.400000e+001
      vertex   -7.249989e+001 1.275005e+002 1.400000e+001
    endloop
  endfacet
  facet normal -0.000000e+000 1.000000e+000 0.000000e+000
    outer loop
      vertex   -3.749989e+001 1.225005e+002 2.900000e+001
      vertex   -3.249989e+001 1.225005e+002 2.900000e+001
      vertex   -3.749989e+001 1.225005e+002 1.400000e+001
    endloop
  endfacet
  facet normal -0.000000e+000 1.000000e+000 0.000000e+000
    outer loop
      vertex   -3.749989e+001 1.225005e+002 1.400000e+001
      vertex   -3.249989e+001 1.225005e+002 2.900000e+001
      vertex   -3.249989e+001 1.225005e+002 1.400000e+001
    endloop
  endfacet
  facet normal -1.000000e+000 0.000000e+000 -0.000000e+000
    outer loop
      vertex   -3.249989e+001 1.225005e+002 2.900000e+001
      vertex   -3.249989e+001 1.275005e+002 2.900000e+001
      vertex   -3.249989e+001 1.225005e+002 1.400000e+001
    endloop
  endfacet
  facet normal -1.000000e+000 0.000000e+000 0.000000e+000
    outer loop
      vertex   -3.249989e+001 1.225005e+002 1.400000e+001
      vertex   -3.249989e+001 1.275005e+002 2.900000e+001
      vertex   -3.249989e+001 1.275005e+002 1.400000e+001
    endloop
  endfacet
  facet normal -0.000000e+000 -1.000000e+000 -0.000000e+000
    outer loop
      vertex   -3.249989e+001 1.275005e+002 2.900000e+001
      vertex   -3.749989e+001 1.275005e+002 2.900000e+001
      vertex   -3.249989e+001 1.275005e+002 1.400000e+001
    endloop
  endfacet
  facet normal -0.000000e+000 -1.000000e+000 -0.000000e+000
    outer loop
      vertex   -3.249989e+001 1.275005e+002 1.400000e+001
      vertex   -3.749989e+001 1.275005e+002 2.900000e+001
      vertex   -3.749989e+001 1.275005e+002 1.400000e+001
    endloop
  endfacet
  facet normal 1.000000e+000 0.000000e+000 0.000000e+000
    outer loop
      vertex   -3.749989e+001 1.275005e+002 2.900000e+001
      vertex   -3.749989e+001 1.225005e+002 2.900000e+001
      vertex   -3.749989e+001 1.275005e+002 1.400000e+001
    endloop
  endfacet
  facet normal 1.000000e+000 0.000000e+000 0.000000e+000
    outer loop
      vertex   -3.749989e+001 1.275005e+002 1.400000e+001
      vertex   -3.749989e+001 1.225005e+002 2.900000e+001
      vertex   -3.749989e+001 1.225005e+002 1.400000e+001
    endloop
  endfacet
  facet normal 0.000000e+000 -0.000000e+000 1.000000e+000
    outer loop
      vertex   -3.749989e+001 1.225005e+002 1.400000e+001
      vertex   -3.249989e+001 1.225005e+002 1.400000e+001
      vertex   -3.749989e+001 1.275005e+002 1.400000e+001
    endloop
  endfacet
  facet normal -0.000000e+000 0.000000e+000 1.000000e+000
    outer loop
      vertex   -3.749989e+001 1.275005e+002 1.400000e+001
      vertex   -3.249989e+001 1.225005e+002 1.400000e+001
      vertex   -3.249989e+001 1.275005e+002 1.400000e+001
    endloop
  endfacet
  facet normal -0.000000e+000 1.000000e+000 0.000000e+000
    outer loop
      vertex   -3.749989e+001 3.250047e+001 2.900000e+001
      vertex   -3.249989e+001 3.250047e+001 2.900000e+001
      vertex   -3.749989e+001 3.250047e+001 1.400000e+001
    endloop
  endfacet
  facet normal -0.000000e+000 1.000000e+000 0.000000e+000
    outer loop
      vertex   -3.749989e+001 3.250047e+001 1.400000e+001
      vertex   -3.249989e+001 3.250047e+001 2.900000e+001
      vertex   -3.249989e+001 3.250047e+001 1.400000e+001
    endloop
  endfacet
  facet normal -1.000000e+000 0.000000e+000 -0.000000e+000
    outer loop
      vertex   -3.249989e+001 3.250047e+001 2.900000e+001
      vertex   -3.249989e+001 3.750047e+001 2.900000e+001
      vertex   -3.249989e+001 3.250047e+001 1.400000e+001
    endloop
  endfacet
  facet normal -1.000000e+000 0.000000e+000 0.000000e+000
    outer loop
      vertex   -3.249989e+001 3.250047e+001 1.400000e+001
      vertex   -3.249989e+001 3.750047e+001 2.900000e+001
      vertex   -3.249989e+001 3.750047e+001 1.400000e+001
    endloop
  endfacet
  facet normal -0.000000e+000 -1.000000e+000 -0.000000e+000
    outer loop
      vertex   -3.249989e+001 3.750047e+001 2.900000e+001
      vertex   -3.749989e+001 3.750047e+001 2.900000e+001
      vertex   -3.249989e+001 3.750047e+001 1.400000e+001
    endloop
  endfacet
  facet normal -0.000000e+000 -1.000000e+000 -0.000000e+000
    outer loop
      vertex   -3.249989e+001 3.750047e+001 1.400000e+001
      vertex   -3.749989e+001 3.750047e+001 2.900000e+001
      vertex   -3.749989e+001 3.750047e+001 1.400000e+001
    endloop
  endfacet
  facet normal 1.000000e+000 0.000000e+000 0.000000e+000
    outer loop
      vertex   -3.749989e+001 3.750047e+001 2.900000e+001
      vertex   -3.749989e+001 3.250047e+001 2.900000e+001
      vertex   -3.749989e+001 3.750047e+001 1.400000e+001
    endloop
  endfacet
  facet normal 1.000000e+000 0.000000e+000 0.000000e+000
    outer loop
      vertex   -3.749989e+001 3.750047e+001 1.400000e+001
      vertex   -3.749989e+001 3.250047e+001 2.900000e+001
      vertex   -3.749989e+001 3.250047e+001 1.400000e+001
    endloop
  endfacet
  facet normal 0.000000e+000 -0.000000e+000 1.000000e+000
    outer loop
      vertex   -3.749989e+001 3.250047e+001 1.400000e+001
      vertex   -3.249989e+001 3.250047e+001 1.400000e+001
      vertex   -3.749989e+001 3.750047e+001 1.400000e+001
    endloop
  endfacet
  facet normal -0.000000e+000 0.000000e+000 1.000000e+000
    outer loop
      vertex   -3.749989e+001 3.750047e+001 1.400000e+001
      vertex   -3.249989e+001 3.250047e+001 1.400000e+001
      vertex   -3.249989e+001 3.750047e+001 1.400000e+001
    endloop
  endfacet
  facet normal -0.000000e+000 1.000000e+000 0.000000e+000
    outer loop
      vertex   -7.749989e+001 3.250047e+001 2.900000e+001
      vertex   -7.249989e+001 3.250047e+001 2.900000e+001
      vertex   -7.749989e+001 3.250047e+001 1.400000e+001
    endloop
  endfacet
  facet normal -0.000000e+000 1.000000e+000 0.000000e+000
    outer loop
      vertex   -7.749989e+001 3.250047e+001 1.400000e+001
      vertex   -7.249989e+001 3.250047e+001 2.900000e+001
      vertex   -7.249989e+001 3.250047e+001 1.400000e+001
    endloop
  endfacet
  facet normal -1.000000e+000 0.000000e+000 -0.000000e+000
    outer loop
      vertex   -7.249989e+001 3.250047e+001 2.900000e+001
      vertex   -7.249989e+001 3.750047e+001 2.900000e+001
      vertex   -7.249989e+001 3.250047e+001 1.400000e+001
    endloop
  endfacet
  facet normal -1.000000e+000 0.000000e+000 0.000000e+000
    outer loop
      vertex   -7.249989e+001 3.250047e+001 1.400000e+001
      vertex   -7.249989e+001 3.750047e+001 2.900000e+001
      vertex   -7.249989e+001 3.750047e+001 1.400000e+001
    endloop
  endfacet
  facet normal -0.000000e+000 -1.000000e+000 -0.000000e+000
    outer loop
      vertex   -7.249989e+001 3.750047e+001 2.900000e+001
      vertex   -7.749989e+001 3.750047e+001 2.900000e+001
      vertex   -7.249989e+001 3.750047e+001 1.400000e+001
    endloop
  endfacet
  facet normal -0.000000e+000 -1.000000e+000 -0.000000e+000
    outer loop
      vertex   -7.249989e+001 3.750047e+001 1.400000e+001
      vertex   -7.749989e+001 3.750047e+001 2.900000e+001
      vertex   -7.749989e+001 3.750047e+001 1.400000e+001
    endloop
  endfacet
  facet normal 1.000000e+000 0.000000e+000 0.000000e+000
    outer loop
      vertex   -7.749989e+001 3.750047e+001 2.900000e+001
      vertex   -7.749989e+001 3.250047e+001 2.900000e+001
      vertex   -7.749989e+001 3.750047e+001 1.400000e+001
    endloop
  endfacet
  facet normal 1.000000e+000 0.000000e+000 0.000000e+000
    outer loop
      vertex   -7.749989e+001 3.750047e+001 1.400000e+001
      vertex   -7.749989e+001 3.250047e+001 2.900000e+001
      vertex   -7.749989e+001 3.250047e+001 1.400000e+001
    endloop
  endfacet
  facet normal 0.000000e+000 -0.000000e+000 1.000000e+000
    outer loop
      vertex   -7.749989e+001 3.250047e+001 1.400000e+001
      vertex   -7.249989e+001 3.250047e+001 1.400000e+001
      vertex   -7.749989e+001 3.750047e+001 1.400000e+001
    endloop
  endfacet
  facet normal -0.000000e+000 0.000000e+000 1.000000e+000
    outer loop
      vertex   -7.749989e+001 3.750047e+001 1.400000e+001
      vertex   -7.249989e+001 3.250047e+001 1.400000e+001
      vertex   -7.249989e+001 3.750047e+001 1.400000e+001
    endloop
  endfacet
  facet normal 0.000000e+000 1.000000e+000 -0.000000e+000
    outer loop
      vertex   -7.000000e+001 4.000000e+001 5.000000e+000
      vertex   -8.000000e+001 4.000000e+001 5.000000e+000
      vertex   -7.000000e+001 4.000000e+001 2.900000e+001
    endloop
  endfacet
  facet normal 0.000000e+000 1.000000e+000 -0.000000e+000
    outer loop
      vertex   -7.000000e+001 4.000000e+001 2.900000e+001
      vertex   -8.000000e+001 4.000000e+001 5.000000e+000
      vertex   -8.000000e+001 4.000000e+001 2.900000e+001
    endloop
  endfacet
  facet normal 1.000000e+000 0.000000e+000 -0.000000e+000
    outer loop
      vertex   -7.000000e+001 3.000000e+001 5.000000e+000
      vertex   -7.000000e+001 4.000000e+001 5.000000e+000
      vertex   -7.000000e+001 3.000000e+001 2.900000e+001
    endloop
  endfacet
  facet normal 1.000000e+000 -0.000000e+000 0.000000e+000
    outer loop
      vertex   -7.000000e+001 3.000000e+001 2.900000e+001
      vertex   -7.000000e+001 4.000000e+001 5.000000e+000
      vertex   -7.000000e+001 4.000000e+001 2.900000e+001
    endloop
  endfacet
  facet normal 0.000000e+000 -3.813977e-007 1.000000e+000
    outer loop
      vertex   -7.749989e+001 3.250047e+001 2.900000e+001
      vertex   -7.000000e+001 3.000000e+001 2.900000e+001
      vertex   -7.249989e+001 3.250047e+001 2.900000e+001
    endloop
  endfacet
  facet normal 0.000000e+000 -3.813977e-007 1.000000e+000
    outer loop
      vertex   -7.749989e+001 3.250047e+001 2.900000e+001
      vertex   -8.000000e+001 3.000000e+001 2.900000e+001
      vertex   -7.000000e+001 3.000000e+001 2.900000e+001
    endloop
  endfacet
  facet normal -3.814533e-007 0.000000e+000 1.000000e+000
    outer loop
      vertex   -7.749989e+001 3.250047e+001 2.900000e+001
      vertex   -8.000000e+001 4.000000e+001 2.900000e+001
      vertex   -8.000000e+001 3.000000e+001 2.900000e+001
    endloop
  endfacet
  facet normal -3.814533e-007 0.000000e+000 1.000000e+000
    outer loop
      vertex   -7.749989e+001 3.250047e+001 2.900000e+001
      vertex   -7.749989e+001 3.750047e+001 2.900000e+001
      vertex   -8.000000e+001 4.000000e+001 2.900000e+001
    endloop
  endfacet
  facet normal 0.000000e+000 3.815418e-007 1.000000e+000
    outer loop
      vertex   -8.000000e+001 4.000000e+001 2.900000e+001
      vertex   -7.749989e+001 3.750047e+001 2.900000e+001
      vertex   -7.000000e+001 4.000000e+001 2.900000e+001
    endloop
  endfacet
  facet normal -0.000000e+000 3.815418e-007 1.000000e+000
    outer loop
      vertex   -7.000000e+001 4.000000e+001 2.900000e+001
      vertex   -7.749989e+001 3.750047e+001 2.900000e+001
      vertex   -7.249989e+001 3.750047e+001 2.900000e+001
    endloop
  endfacet
  facet normal 3.814861e-007 0.000000e+000 1.000000e+000
    outer loop
      vertex   -7.249989e+001 3.250047e+001 2.900000e+001
      vertex   -7.000000e+001 4.000000e+001 2.900000e+001
      vertex   -7.249989e+001 3.750047e+001 2.900000e+001
    endloop
  endfacet
  facet normal 3.814861e-007 -0.000000e+000 1.000000e+000
    outer loop
      vertex   -7.249989e+001 3.250047e+001 2.900000e+001
      vertex   -7.000000e+001 3.000000e+001 2.900000e+001
      vertex   -7.000000e+001 4.000000e+001 2.900000e+001
    endloop
  endfacet
  facet normal 0.000000e+000 -0.000000e+000 1.000000e+000
    outer loop
      vertex   -8.000000e+001 4.000000e+001 5.000000e+000
      vertex   -7.000000e+001 4.000000e+001 5.000000e+000
      vertex   -8.000000e+001 8.000000e+001 5.000000e+000
    endloop
  endfacet
  facet normal -0.000000e+000 0.000000e+000 1.000000e+000
    outer loop
      vertex   -8.000000e+001 8.000000e+001 5.000000e+000
      vertex   -7.000000e+001 4.000000e+001 5.000000e+000
      vertex   -4.000000e+001 4.000000e+001 5.000000e+000
    endloop
  endfacet
  facet normal -0.000000e+000 0.000000e+000 1.000000e+000
    outer loop
      vertex   -3.000000e+001 8.000000e+001 5.000000e+000
      vertex   -4.000000e+001 4.000000e+001 5.000000e+000
      vertex   -3.000000e+001 4.000000e+001 5.000000e+000
    endloop
  endfacet
  facet normal 0.000000e+000 0.000000e+000 1.000000e+000
    outer loop
      vertex   -3.000000e+001 8.000000e+001 5.000000e+000
      vertex   -8.000000e+001 8.000000e+001 5.000000e+000
      vertex   -4.000000e+001 4.000000e+001 5.000000e+000
    endloop
  endfacet
  facet normal 0.000000e+000 0.000000e+000 1.000000e+000
    outer loop
      vertex   -3.000000e+001 8.000000e+001 5.000000e+000
      vertex   -7.000000e+001 1.200000e+002 5.000000e+000
      vertex   -8.000000e+001 8.000000e+001 5.000000e+000
    endloop
  endfacet
  facet normal 0.000000e+000 0.000000e+000 1.000000e+000
    outer loop
      vertex   -3.000000e+001 8.000000e+001 5.000000e+000
      vertex   -4.000000e+001 1.200000e+002 5.000000e+000
      vertex   -7.000000e+001 1.200000e+002 5.000000e+000
    endloop
  endfacet
  facet normal 0.000000e+000 -0.000000e+000 1.000000e+000
    outer loop
      vertex   -3.000000e+001 8.000000e+001 5.000000e+000
      vertex   -3.000000e+001 1.200000e+002 5.000000e+000
      vertex   -4.000000e+001 1.200000e+002 5.000000e+000
    endloop
  endfacet
  facet normal 0.000000e+000 -0.000000e+000 1.000000e+000
    outer loop
      vertex   -7.000000e+001 3.000000e+001 5.000000e+000
      vertex   -4.000000e+001 3.000000e+001 5.000000e+000
      vertex   -7.000000e+001 4.000000e+001 5.000000e+000
    endloop
  endfacet
  facet normal -0.000000e+000 0.000000e+000 1.000000e+000
    outer loop
      vertex   -7.000000e+001 4.000000e+001 5.000000e+000
      vertex   -4.000000e+001 3.000000e+001 5.000000e+000
      vertex   -4.000000e+001 4.000000e+001 5.000000e+000
    endloop
  endfacet
  facet normal 0.000000e+000 0.000000e+000 1.000000e+000
    outer loop
      vertex   -4.000000e+001 1.300000e+002 5.000000e+000
      vertex   -7.000000e+001 1.300000e+002 5.000000e+000
      vertex   -4.000000e+001 1.200000e+002 5.000000e+000
    endloop
  endfacet
  facet normal 0.000000e+000 0.000000e+000 1.000000e+000
    outer loop
      vertex   -4.000000e+001 1.200000e+002 5.000000e+000
      vertex   -7.000000e+001 1.300000e+002 5.000000e+000
      vertex   -7.000000e+001 1.200000e+002 5.000000e+000
    endloop
  endfacet
  facet normal 0.000000e+000 0.000000e+000 1.000000e+000
    outer loop
      vertex   -7.000000e+001 1.200000e+002 5.000000e+000
      vertex   -8.000000e+001 1.200000e+002 5.000000e+000
      vertex   -8.000000e+001 8.000000e+001 5.000000e+000
    endloop
  endfacet
  facet normal 0.000000e+000 1.000000e+000 0.000000e+000
    outer loop
      vertex   -6.000000e+001 3.000000e+001 1.750000e+001
      vertex   -6.000000e+001 3.000000e+001 1.250000e+001
      vertex   -7.000000e+001 3.000000e+001 5.000000e+000
    endloop
  endfacet
  facet normal 0.000000e+000 1.000000e+000 0.000000e+000
    outer loop
      vertex   -7.000000e+001 3.000000e+001 2.900000e+001
      vertex   -6.000000e+001 3.000000e+001 1.750000e+001
      vertex   -7.000000e+001 3.000000e+001 5.000000e+000
    endloop
  endfacet
  facet normal -0.000000e+000 1.000000e+000 0.000000e+000
    outer loop
      vertex   -7.000000e+001 3.000000e+001 2.900000e+001
      vertex   -4.000000e+001 3.000000e+001 2.900000e+001
      vertex   -6.000000e+001 3.000000e+001 1.750000e+001
    endloop
  endfacet
  facet normal -0.000000e+000 1.000000e+000 0.000000e+000
    outer loop
      vertex   -7.000000e+001 3.000000e+001 2.900000e+001
      vertex   -3.000000e+001 3.000000e+001 3.000000e+001
      vertex   -4.000000e+001 3.000000e+001 2.900000e+001
    endloop
  endfacet
  facet normal 0.000000e+000 1.000000e+000 -0.000000e+000
    outer loop
      vertex   -7.000000e+001 3.000000e+001 2.900000e+001
      vertex   -8.000000e+001 3.000000e+001 3.000000e+001
      vertex   -3.000000e+001 3.000000e+001 3.000000e+001
    endloop
  endfacet
  facet normal 0.000000e+000 1.000000e+000 -0.000000e+000
    outer loop
      vertex   -7.000000e+001 3.000000e+001 2.900000e+001
      vertex   -8.000000e+001 3.000000e+001 2.900000e+001
      vertex   -8.000000e+001 3.000000e+001 3.000000e+001
    endloop
  endfacet
  facet normal 0.000000e+000 1.000000e+000 0.000000e+000
    outer loop
      vertex   -5.000000e+001 3.000000e+001 1.750000e+001
      vertex   -4.000000e+001 3.000000e+001 5.000000e+000
      vertex   -5.000000e+001 3.000000e+001 1.250000e+001
    endloop
  endfacet
  facet normal -0.000000e+000 1.000000e+000 0.000000e+000
    outer loop
      vertex   -5.000000e+001 3.000000e+001 1.750000e+001
      vertex   -4.000000e+001 3.000000e+001 2.900000e+001
      vertex   -4.000000e+001 3.000000e+001 5.000000e+000
    endloop
  endfacet
  facet normal 0.000000e+000 1.000000e+000 -0.000000e+000
    outer loop
      vertex   -5.000000e+001 3.000000e+001 1.750000e+001
      vertex   -6.000000e+001 3.000000e+001 1.750000e+001
      vertex   -4.000000e+001 3.000000e+001 2.900000e+001
    endloop
  endfacet
  facet normal 0.000000e+000 1.000000e+000 0.000000e+000
    outer loop
      vertex   -3.000000e+001 3.000000e+001 3.000000e+001
      vertex   -3.000000e+001 3.000000e+001 2.900000e+001
      vertex   -4.000000e+001 3.000000e+001 2.900000e+001
    endloop
  endfacet
  facet normal 0.000000e+000 1.000000e+000 -0.000000e+000
    outer loop
      vertex   -4.000000e+001 3.000000e+001 5.000000e+000
      vertex   -7.000000e+001 3.000000e+001 5.000000e+000
      vertex   -5.000000e+001 3.000000e+001 1.250000e+001
    endloop
  endfacet
  facet normal 0.000000e+000 1.000000e+000 -0.000000e+000
    outer loop
      vertex   -5.000000e+001 3.000000e+001 1.250000e+001
      vertex   -7.000000e+001 3.000000e+001 5.000000e+000
      vertex   -6.000000e+001 3.000000e+001 1.250000e+001
    endloop
  endfacet
  facet normal 1.000000e+000 0.000000e+000 -0.000000e+000
    outer loop
      vertex   -7.000000e+001 1.200000e+002 5.000000e+000
      vertex   -7.000000e+001 1.300000e+002 5.000000e+000
      vertex   -7.000000e+001 1.200000e+002 2.900000e+001
    endloop
  endfacet
  facet normal 1.000000e+000 -0.000000e+000 0.000000e+000
    outer loop
      vertex   -7.000000e+001 1.200000e+002 2.900000e+001
      vertex   -7.000000e+001 1.300000e+002 5.000000e+000
      vertex   -7.000000e+001 1.300000e+002 2.900000e+001
    endloop
  endfacet
  facet normal 0.000000e+000 -1.000000e+000 0.000000e+000
    outer loop
      vertex   -8.000000e+001 1.200000e+002 5.000000e+000
      vertex   -7.000000e+001 1.200000e+002 5.000000e+000
      vertex   -8.000000e+001 1.200000e+002 2.900000e+001
    endloop
  endfacet
  facet normal 0.000000e+000 -1.000000e+000 0.000000e+000
    outer loop
      vertex   -8.000000e+001 1.200000e+002 2.900000e+001
      vertex   -7.000000e+001 1.200000e+002 5.000000e+000
      vertex   -7.000000e+001 1.200000e+002 2.900000e+001
    endloop
  endfacet
  facet normal 0.000000e+000 -3.813977e-007 1.000000e+000
    outer loop
      vertex   -7.749989e+001 1.225005e+002 2.900000e+001
      vertex   -7.000000e+001 1.200000e+002 2.900000e+001
      vertex   -7.249989e+001 1.225005e+002 2.900000e+001
    endloop
  endfacet
  facet normal 0.000000e+000 -3.813977e-007 1.000000e+000
    outer loop
      vertex   -7.749989e+001 1.225005e+002 2.900000e+001
      vertex   -8.000000e+001 1.200000e+002 2.900000e+001
      vertex   -7.000000e+001 1.200000e+002 2.900000e+001
    endloop
  endfacet
  facet normal -3.814533e-007 0.000000e+000 1.000000e+000
    outer loop
      vertex   -7.749989e+001 1.225005e+002 2.900000e+001
      vertex   -8.000000e+001 1.300000e+002 2.900000e+001
      vertex   -8.000000e+001 1.200000e+002 2.900000e+001
    endloop
  endfacet
  facet normal -3.814533e-007 0.000000e+000 1.000000e+000
    outer loop
      vertex   -7.749989e+001 1.225005e+002 2.900000e+001
      vertex   -7.749989e+001 1.275005e+002 2.900000e+001
      vertex   -8.000000e+001 1.300000e+002 2.900000e+001
    endloop
  endfacet
  facet normal 0.000000e+000 3.815418e-007 1.000000e+000
    outer loop
      vertex   -8.000000e+001 1.300000e+002 2.900000e+001
      vertex   -7.749989e+001 1.275005e+002 2.900000e+001
      vertex   -7.000000e+001 1.300000e+002 2.900000e+001
    endloop
  endfacet
  facet normal -0.000000e+000 3.815418e-007 1.000000e+000
    outer loop
      vertex   -7.000000e+001 1.300000e+002 2.900000e+001
      vertex   -7.749989e+001 1.275005e+002 2.900000e+001
      vertex   -7.249989e+001 1.275005e+002 2.900000e+001
    endloop
  endfacet
  facet normal 3.814861e-007 0.000000e+000 1.000000e+000
    outer loop
      vertex   -7.249989e+001 1.225005e+002 2.900000e+001
      vertex   -7.000000e+001 1.300000e+002 2.900000e+001
      vertex   -7.249989e+001 1.275005e+002 2.900000e+001
    endloop
  endfacet
  facet normal 3.814861e-007 -0.000000e+000 1.000000e+000
    outer loop
      vertex   -7.249989e+001 1.225005e+002 2.900000e+001
      vertex   -7.000000e+001 1.200000e+002 2.900000e+001
      vertex   -7.000000e+001 1.300000e+002 2.900000e+001
    endloop
  endfacet
  facet normal 1.000000e+000 0.000000e+000 -0.000000e+000
    outer loop
      vertex   -8.000000e+001 4.000000e+001 5.000000e+000
      vertex   -8.000000e+001 8.000000e+001 5.000000e+000
      vertex   -8.000000e+001 4.000000e+001 2.900000e+001
    endloop
  endfacet
  facet normal 1.000000e+000 -0.000000e+000 0.000000e+000
    outer loop
      vertex   -8.000000e+001 4.000000e+001 2.900000e+001
      vertex   -8.000000e+001 8.000000e+001 5.000000e+000
      vertex   -8.000000e+001 8.000000e+001 3.000000e+001
    endloop
  endfacet
  facet normal 1.000000e+000 -0.000000e+000 0.000000e+000
    outer loop
      vertex   -8.000000e+001 3.000000e+001 3.000000e+001
      vertex   -8.000000e+001 4.000000e+001 2.900000e+001
      vertex   -8.000000e+001 8.000000e+001 3.000000e+001
    endloop
  endfacet
  facet normal 1.000000e+000 -0.000000e+000 0.000000e+000
    outer loop
      vertex   -8.000000e+001 3.000000e+001 3.000000e+001
      vertex   -8.000000e+001 3.000000e+001 2.900000e+001
      vertex   -8.000000e+001 4.000000e+001 2.900000e+001
    endloop
  endfacet
  facet normal 1.000000e+000 0.000000e+000 -0.000000e+000
    outer loop
      vertex   -8.000000e+001 1.200000e+002 5.000000e+000
      vertex   -8.000000e+001 1.200000e+002 2.900000e+001
      vertex   -8.000000e+001 8.000000e+001 5.000000e+000
    endloop
  endfacet
  facet normal 1.000000e+000 0.000000e+000 -0.000000e+000
    outer loop
      vertex   -8.000000e+001 8.000000e+001 5.000000e+000
      vertex   -8.000000e+001 1.200000e+002 2.900000e+001
      vertex   -8.000000e+001 8.000000e+001 3.000000e+001
    endloop
  endfacet
  facet normal 1.000000e+000 -0.000000e+000 0.000000e+000
    outer loop
      vertex   -8.000000e+001 8.000000e+001 3.000000e+001
      vertex   -8.000000e+001 1.200000e+002 2.900000e+001
      vertex   -8.000000e+001 1.300000e+002 3.000000e+001
    endloop
  endfacet
  facet normal 1.000000e+000 -0.000000e+000 0.000000e+000
    outer loop
      vertex   -8.000000e+001 1.300000e+002 3.000000e+001
      vertex   -8.000000e+001 1.200000e+002 2.900000e+001
      vertex   -8.000000e+001 1.300000e+002 2.900000e+001
    endloop
  endfacet
  facet normal 0.000000e+000 -1.000000e+000 0.000000e+000
    outer loop
      vertex   -4.000000e+001 1.200000e+002 5.000000e+000
      vertex   -3.000000e+001 1.200000e+002 5.000000e+000
      vertex   -4.000000e+001 1.200000e+002 2.900000e+001
    endloop
  endfacet
  facet normal 0.000000e+000 -1.000000e+000 0.000000e+000
    outer loop
      vertex   -4.000000e+001 1.200000e+002 2.900000e+001
      vertex   -3.000000e+001 1.200000e+002 5.000000e+000
      vertex   -3.000000e+001 1.200000e+002 2.900000e+001
    endloop
  endfacet
  facet normal -1.000000e+000 0.000000e+000 0.000000e+000
    outer loop
      vertex   -4.000000e+001 1.300000e+002 5.000000e+000
      vertex   -4.000000e+001 1.200000e+002 5.000000e+000
      vertex   -4.000000e+001 1.300000e+002 2.900000e+001
    endloop
  endfacet
  facet normal -1.000000e+000 -0.000000e+000 0.000000e+000
    outer loop
      vertex   -4.000000e+001 1.300000e+002 2.900000e+001
      vertex   -4.000000e+001 1.200000e+002 5.000000e+000
      vertex   -4.000000e+001 1.200000e+002 2.900000e+001
    endloop
  endfacet
  facet normal 0.000000e+000 -3.813977e-007 1.000000e+000
    outer loop
      vertex   -3.749989e+001 1.225005e+002 2.900000e+001
      vertex   -3.000000e+001 1.200000e+002 2.900000e+001
      vertex   -3.249989e+001 1.225005e+002 2.900000e+001
    endloop
  endfacet
  facet normal 0.000000e+000 -3.813977e-007 1.000000e+000
    outer loop
      vertex   -3.749989e+001 1.225005e+002 2.900000e+001
      vertex   -4.000000e+001 1.200000e+002 2.900000e+001
      vertex   -3.000000e+001 1.200000e+002 2.900000e+001
    endloop
  endfacet
  facet normal -3.814533e-007 0.000000e+000 1.000000e+000
    outer loop
      vertex   -3.749989e+001 1.225005e+002 2.900000e+001
      vertex   -4.000000e+001 1.300000e+002 2.900000e+001
      vertex   -4.000000e+001 1.200000e+002 2.900000e+001
    endloop
  endfacet
  facet normal -3.814533e-007 0.000000e+000 1.000000e+000
    outer loop
      vertex   -3.749989e+001 1.225005e+002 2.900000e+001
      vertex   -3.749989e+001 1.275005e+002 2.900000e+001
      vertex   -4.000000e+001 1.300000e+002 2.900000e+001
    endloop
  endfacet
  facet normal 0.000000e+000 3.815418e-007 1.000000e+000
    outer loop
      vertex   -4.000000e+001 1.300000e+002 2.900000e+001
      vertex   -3.749989e+001 1.275005e+002 2.900000e+001
      vertex   -3.000000e+001 1.300000e+002 2.900000e+001
    endloop
  endfacet
  facet normal -0.000000e+000 3.815418e-007 1.000000e+000
    outer loop
      vertex   -3.000000e+001 1.300000e+002 2.900000e+001
      vertex   -3.749989e+001 1.275005e+002 2.900000e+001
      vertex   -3.249989e+001 1.275005e+002 2.900000e+001
    endloop
  endfacet
  facet normal 3.814861e-007 0.000000e+000 1.000000e+000
    outer loop
      vertex   -3.249989e+001 1.225005e+002 2.900000e+001
      vertex   -3.000000e+001 1.300000e+002 2.900000e+001
      vertex   -3.249989e+001 1.275005e+002 2.900000e+001
    endloop
  endfacet
  facet normal 3.814861e-007 -0.000000e+000 1.000000e+000
    outer loop
      vertex   -3.249989e+001 1.225005e+002 2.900000e+001
      vertex   -3.000000e+001 1.200000e+002 2.900000e+001
      vertex   -3.000000e+001 1.300000e+002 2.900000e+001
    endloop
  endfacet
  facet normal 0.000000e+000 -1.000000e+000 0.000000e+000
    outer loop
      vertex   -5.000000e+001 1.300000e+002 1.750000e+001
      vertex   -5.000000e+001 1.300000e+002 1.250000e+001
      vertex   -4.000000e+001 1.300000e+002 5.000000e+000
    endloop
  endfacet
  facet normal 0.000000e+000 -1.000000e+000 -0.000000e+000
    outer loop
      vertex   -4.000000e+001 1.300000e+002 2.900000e+001
      vertex   -5.000000e+001 1.300000e+002 1.750000e+001
      vertex   -4.000000e+001 1.300000e+002 5.000000e+000
    endloop
  endfacet
  facet normal -0.000000e+000 -1.000000e+000 -0.000000e+000
    outer loop
      vertex   -4.000000e+001 1.300000e+002 2.900000e+001
      vertex   -7.000000e+001 1.300000e+002 2.900000e+001
      vertex   -5.000000e+001 1.300000e+002 1.750000e+001
    endloop
  endfacet
  facet normal -0.000000e+000 -1.000000e+000 -0.000000e+000
    outer loop
      vertex   -4.000000e+001 1.300000e+002 2.900000e+001
      vertex   -8.000000e+001 1.300000e+002 3.000000e+001
      vertex   -7.000000e+001 1.300000e+002 2.900000e+001
    endloop
  endfacet
  facet normal 0.000000e+000 -1.000000e+000 0.000000e+000
    outer loop
      vertex   -4.000000e+001 1.300000e+002 2.900000e+001
      vertex   -3.000000e+001 1.300000e+002 3.000000e+001
      vertex   -8.000000e+001 1.300000e+002 3.000000e+001
    endloop
  endfacet
  facet normal 0.000000e+000 -1.000000e+000 0.000000e+000
    outer loop
      vertex   -4.000000e+001 1.300000e+002 2.900000e+001
      vertex   -3.000000e+001 1.300000e+002 2.900000e+001
      vertex   -3.000000e+001 1.300000e+002 3.000000e+001
    endloop
  endfacet
  facet normal 0.000000e+000 -1.000000e+000 -0.000000e+000
    outer loop
      vertex   -6.000000e+001 1.300000e+002 1.750000e+001
      vertex   -7.000000e+001 1.300000e+002 5.000000e+000
      vertex   -6.000000e+001 1.300000e+002 1.250000e+001
    endloop
  endfacet
  facet normal -0.000000e+000 -1.000000e+000 -0.000000e+000
    outer loop
      vertex   -6.000000e+001 1.300000e+002 1.750000e+001
      vertex   -7.000000e+001 1.300000e+002 2.900000e+001
      vertex   -7.000000e+001 1.300000e+002 5.000000e+000
    endloop
  endfacet
  facet normal 0.000000e+000 -1.000000e+000 0.000000e+000
    outer loop
      vertex   -6.000000e+001 1.300000e+002 1.750000e+001
      vertex   -5.000000e+001 1.300000e+002 1.750000e+001
      vertex   -7.000000e+001 1.300000e+002 2.900000e+001
    endloop
  endfacet
  facet normal 0.000000e+000 -1.000000e+000 0.000000e+000
    outer loop
      vertex   -7.000000e+001 1.300000e+002 5.000000e+000
      vertex   -4.000000e+001 1.300000e+002 5.000000e+000
      vertex   -6.000000e+001 1.300000e+002 1.250000e+001
    endloop
  endfacet
  facet normal 0.000000e+000 -1.000000e+000 0.000000e+000
    outer loop
      vertex   -6.000000e+001 1.300000e+002 1.250000e+001
      vertex   -4.000000e+001 1.300000e+002 5.000000e+000
      vertex   -5.000000e+001 1.300000e+002 1.250000e+001
    endloop
  endfacet
  facet normal 0.000000e+000 -1.000000e+000 0.000000e+000
    outer loop
      vertex   -8.000000e+001 1.300000e+002 3.000000e+001
      vertex   -8.000000e+001 1.300000e+002 2.900000e+001
      vertex   -7.000000e+001 1.300000e+002 2.900000e+001
    endloop
  endfacet
  facet normal -1.000000e+000 0.000000e+000 0.000000e+000
    outer loop
      vertex   -4.000000e+001 4.000000e+001 5.000000e+000
      vertex   -4.000000e+001 3.000000e+001 5.000000e+000
      vertex   -4.000000e+001 4.000000e+001 2.900000e+001
    endloop
  endfacet
  facet normal -1.000000e+000 -0.000000e+000 0.000000e+000
    outer loop
      vertex   -4.000000e+001 4.000000e+001 2.900000e+001
      vertex   -4.000000e+001 3.000000e+001 5.000000e+000
      vertex   -4.000000e+001 3.000000e+001 2.900000e+001
    endloop
  endfacet
  facet normal 0.000000e+000 1.000000e+000 -0.000000e+000
    outer loop
      vertex   -3.000000e+001 4.000000e+001 5.000000e+000
      vertex   -4.000000e+001 4.000000e+001 5.000000e+000
      vertex   -3.000000e+001 4.000000e+001 2.900000e+001
    endloop
  endfacet
  facet normal 0.000000e+000 1.000000e+000 -0.000000e+000
    outer loop
      vertex   -3.000000e+001 4.000000e+001 2.900000e+001
      vertex   -4.000000e+001 4.000000e+001 5.000000e+000
      vertex   -4.000000e+001 4.000000e+001 2.900000e+001
    endloop
  endfacet
  facet normal 0.000000e+000 -3.813977e-007 1.000000e+000
    outer loop
      vertex   -3.749989e+001 3.250047e+001 2.900000e+001
      vertex   -3.000000e+001 3.000000e+001 2.900000e+001
      vertex   -3.249989e+001 3.250047e+001 2.900000e+001
    endloop
  endfacet
  facet normal 0.000000e+000 -3.813977e-007 1.000000e+000
    outer loop
      vertex   -3.749989e+001 3.250047e+001 2.900000e+001
      vertex   -4.000000e+001 3.000000e+001 2.900000e+001
      vertex   -3.000000e+001 3.000000e+001 2.900000e+001
    endloop
  endfacet
  facet normal -3.814533e-007 0.000000e+000 1.000000e+000
    outer loop
      vertex   -3.749989e+001 3.250047e+001 2.900000e+001
      vertex   -4.000000e+001 4.000000e+001 2.900000e+001
      vertex   -4.000000e+001 3.000000e+001 2.900000e+001
    endloop
  endfacet
  facet normal -3.814533e-007 0.000000e+000 1.000000e+000
    outer loop
      vertex   -3.749989e+001 3.250047e+001 2.900000e+001
      vertex   -3.749989e+001 3.750047e+001 2.900000e+001
      vertex   -4.000000e+001 4.000000e+001 2.900000e+001
    endloop
  endfacet
  facet normal 0.000000e+000 3.815418e-007 1.000000e+000
    outer loop
      vertex   -4.000000e+001 4.000000e+001 2.900000e+001
      vertex   -3.749989e+001 3.750047e+001 2.900000e+001
      vertex   -3.000000e+001 4.000000e+001 2.900000e+001
    endloop
  endfacet
  facet normal -0.000000e+000 3.815418e-007 1.000000e+000
    outer loop
      vertex   -3.000000e+001 4.000000e+001 2.900000e+001
      vertex   -3.749989e+001 3.750047e+001 2.900000e+001
      vertex   -3.249989e+001 3.750047e+001 2.900000e+001
    endloop
  endfacet
  facet normal 3.814861e-007 0.000000e+000 1.000000e+000
    outer loop
      vertex   -3.249989e+001 3.250047e+001 2.900000e+001
      vertex   -3.000000e+001 4.000000e+001 2.900000e+001
      vertex   -3.249989e+001 3.750047e+001 2.900000e+001
    endloop
  endfacet
  facet normal 3.814861e-007 -0.000000e+000 1.000000e+000
    outer loop
      vertex   -3.249989e+001 3.250047e+001 2.900000e+001
      vertex   -3.000000e+001 3.000000e+001 2.900000e+001
      vertex   -3.000000e+001 4.000000e+001 2.900000e+001
    endloop
  endfacet
  facet normal -1.000000e+000 0.000000e+000 0.000000e+000
    outer loop
      vertex   -3.000000e+001 1.200000e+002 5.000000e+000
      vertex   -3.000000e+001 8.000000e+001 5.000000e+000
      vertex   -3.000000e+001 1.200000e+002 2.900000e+001
    endloop
  endfacet
  facet normal -1.000000e+000 -0.000000e+000 0.000000e+000
    outer loop
      vertex   -3.000000e+001 1.200000e+002 2.900000e+001
      vertex   -3.000000e+001 8.000000e+001 5.000000e+000
      vertex   -3.000000e+001 8.000000e+001 3.000000e+001
    endloop
  endfacet
  facet normal -1.000000e+000 -0.000000e+000 0.000000e+000
    outer loop
      vertex   -3.000000e+001 1.300000e+002 3.000000e+001
      vertex   -3.000000e+001 1.200000e+002 2.900000e+001
      vertex   -3.000000e+001 8.000000e+001 3.000000e+001
    endloop
  endfacet
  facet normal -1.000000e+000 -0.000000e+000 -0.000000e+000
    outer loop
      vertex   -3.000000e+001 1.300000e+002 3.000000e+001
      vertex   -3.000000e+001 1.300000e+002 2.900000e+001
      vertex   -3.000000e+001 1.200000e+002 2.900000e+001
    endloop
  endfacet
  facet normal -1.000000e+000 0.000000e+000 0.000000e+000
    outer loop
      vertex   -3.000000e+001 4.000000e+001 5.000000e+000
      vertex   -3.000000e+001 4.000000e+001 2.900000e+001
      vertex   -3.000000e+001 8.000000e+001 5.000000e+000
    endloop
  endfacet
  facet normal -1.000000e+000 0.000000e+000 0.000000e+000
    outer loop
      vertex   -3.000000e+001 8.000000e+001 5.000000e+000
      vertex   -3.000000e+001 4.000000e+001 2.900000e+001
      vertex   -3.000000e+001 8.000000e+001 3.000000e+001
    endloop
  endfacet
  facet normal -1.000000e+000 -0.000000e+000 0.000000e+000
    outer loop
      vertex   -3.000000e+001 8.000000e+001 3.000000e+001
      vertex   -3.000000e+001 4.000000e+001 2.900000e+001
      vertex   -3.000000e+001 3.000000e+001 3.000000e+001
    endloop
  endfacet
  facet normal -1.000000e+000 -0.000000e+000 -0.000000e+000
    outer loop
      vertex   -3.000000e+001 3.000000e+001 3.000000e+001
      vertex   -3.000000e+001 4.000000e+001 2.900000e+001
      vertex   -3.000000e+001 3.000000e+001 2.900000e+001
    endloop
  endfacet
  facet normal 1.000000e+000 0.000000e+000 -0.000000e+000
    outer loop
      vertex   -2.500000e+001 2.500000e+001 0.000000e+000
      vertex   -2.500000e+001 8.000000e+001 0.000000e+000
      vertex   -2.500000e+001 2.500000e+001 3.000000e+001
    endloop
  endfacet
  facet normal 1.000000e+000 -0.000000e+000 0.000000e+000
    outer loop
      vertex   -2.500000e+001 2.500000e+001 3.000000e+001
      vertex   -2.500000e+001 8.000000e+001 0.000000e+000
      vertex   -2.500000e+001 8.000000e+001 3.000000e+001
    endloop
  endfacet
  facet normal 1.000000e+000 -0.000000e+000 0.000000e+000
    outer loop
      vertex   -2.500000e+001 8.000000e+001 3.000000e+001
      vertex   -2.500000e+001 8.000000e+001 0.000000e+000
      vertex   -2.500000e+001 1.350000e+002 0.000000e+000
    endloop
  endfacet
  facet normal 1.000000e+000 0.000000e+000 0.000000e+000
    outer loop
      vertex   -2.500000e+001 1.350000e+002 3.000000e+001
      vertex   -2.500000e+001 8.000000e+001 3.000000e+001
      vertex   -2.500000e+001 1.350000e+002 0.000000e+000
    endloop
  endfacet
  facet normal 0.000000e+000 -1.000000e+000 0.000000e+000
    outer loop
      vertex   -6.000000e+001 2.500000e+001 1.250000e+001
      vertex   -5.500000e+001 2.500000e+001 0.000000e+000
      vertex   -5.000000e+001 2.500000e+001 1.250000e+001
    endloop
  endfacet
  facet normal 0.000000e+000 -1.000000e+000 -0.000000e+000
    outer loop
      vertex   -6.000000e+001 2.500000e+001 1.250000e+001
      vertex   -8.500000e+001 2.500000e+001 0.000000e+000
      vertex   -5.500000e+001 2.500000e+001 0.000000e+000
    endloop
  endfacet
  facet normal -0.000000e+000 -1.000000e+000 0.000000e+000
    outer loop
      vertex   -6.000000e+001 2.500000e+001 1.250000e+001
      vertex   -6.000000e+001 2.500000e+001 1.750000e+001
      vertex   -8.500000e+001 2.500000e+001 0.000000e+000
    endloop
  endfacet
  facet normal 0.000000e+000 -1.000000e+000 0.000000e+000
    outer loop
      vertex   -8.500000e+001 2.500000e+001 0.000000e+000
      vertex   -6.000000e+001 2.500000e+001 1.750000e+001
      vertex   -8.500000e+001 2.500000e+001 3.000000e+001
    endloop
  endfacet
  facet normal 0.000000e+000 -1.000000e+000 0.000000e+000
    outer loop
      vertex   -8.500000e+001 2.500000e+001 3.000000e+001
      vertex   -6.000000e+001 2.500000e+001 1.750000e+001
      vertex   -5.500000e+001 2.500000e+001 3.000000e+001
    endloop
  endfacet
  facet normal 0.000000e+000 -1.000000e+000 -0.000000e+000
    outer loop
      vertex   -5.500000e+001 2.500000e+001 3.000000e+001
      vertex   -6.000000e+001 2.500000e+001 1.750000e+001
      vertex   -5.000000e+001 2.500000e+001 1.750000e+001
    endloop
  endfacet
  facet normal 0.000000e+000 -1.000000e+000 -0.000000e+000
    outer loop
      vertex   -2.500000e+001 2.500000e+001 3.000000e+001
      vertex   -5.000000e+001 2.500000e+001 1.750000e+001
      vertex   -2.500000e+001 2.500000e+001 0.000000e+000
    endloop
  endfacet
  facet normal -0.000000e+000 -1.000000e+000 -0.000000e+000
    outer loop
      vertex   -2.500000e+001 2.500000e+001 3.000000e+001
      vertex   -5.500000e+001 2.500000e+001 3.000000e+001
      vertex   -5.000000e+001 2.500000e+001 1.750000e+001
    endloop
  endfacet
  facet normal 0.000000e+000 -1.000000e+000 0.000000e+000
    outer loop
      vertex   -5.000000e+001 2.500000e+001 1.750000e+001
      vertex   -5.000000e+001 2.500000e+001 1.250000e+001
      vertex   -2.500000e+001 2.500000e+001 0.000000e+000
    endloop
  endfacet
  facet normal -0.000000e+000 -1.000000e+000 0.000000e+000
    outer loop
      vertex   -2.500000e+001 2.500000e+001 0.000000e+000
      vertex   -5.000000e+001 2.500000e+001 1.250000e+001
      vertex   -5.500000e+001 2.500000e+001 0.000000e+000
    endloop
  endfacet
  facet normal -1.000000e+000 0.000000e+000 0.000000e+000
    outer loop
      vertex   -8.500000e+001 1.350000e+002 0.000000e+000
      vertex   -8.500000e+001 8.000000e+001 0.000000e+000
      vertex   -8.500000e+001 1.350000e+002 3.000000e+001
    endloop
  endfacet
  facet normal -1.000000e+000 -0.000000e+000 0.000000e+000
    outer loop
      vertex   -8.500000e+001 1.350000e+002 3.000000e+001
      vertex   -8.500000e+001 8.000000e+001 0.000000e+000
      vertex   -8.500000e+001 8.000000e+001 3.000000e+001
    endloop
  endfacet
  facet normal -1.000000e+000 -0.000000e+000 -0.000000e+000
    outer loop
      vertex   -8.500000e+001 8.000000e+001 3.000000e+001
      vertex   -8.500000e+001 8.000000e+001 0.000000e+000
      vertex   -8.500000e+001 2.500000e+001 0.000000e+000
    endloop
  endfacet
  facet normal -1.000000e+000 0.000000e+000 -0.000000e+000
    outer loop
      vertex   -8.500000e+001 2.500000e+001 3.000000e+001
      vertex   -8.500000e+001 8.000000e+001 3.000000e+001
      vertex   -8.500000e+001 2.500000e+001 0.000000e+000
    endloop
  endfacet
  facet normal 0.000000e+000 1.000000e+000 0.000000e+000
    outer loop
      vertex   -5.000000e+001 1.350000e+002 1.250000e+001
      vertex   -5.500000e+001 1.350000e+002 0.000000e+000
      vertex   -6.000000e+001 1.350000e+002 1.250000e+001
    endloop
  endfacet
  facet normal 0.000000e+000 1.000000e+000 0.000000e+000
    outer loop
      vertex   -5.000000e+001 1.350000e+002 1.250000e+001
      vertex   -2.500000e+001 1.350000e+002 0.000000e+000
      vertex   -5.500000e+001 1.350000e+002 0.000000e+000
    endloop
  endfacet
  facet normal -0.000000e+000 1.000000e+000 0.000000e+000
    outer loop
      vertex   -5.000000e+001 1.350000e+002 1.250000e+001
      vertex   -5.000000e+001 1.350000e+002 1.750000e+001
      vertex   -2.500000e+001 1.350000e+002 0.000000e+000
    endloop
  endfacet
  facet normal 0.000000e+000 1.000000e+000 -0.000000e+000
    outer loop
      vertex   -2.500000e+001 1.350000e+002 0.000000e+000
      vertex   -5.000000e+001 1.350000e+002 1.750000e+001
      vertex   -2.500000e+001 1.350000e+002 3.000000e+001
    endloop
  endfacet
  facet normal 0.000000e+000 1.000000e+000 0.000000e+000
    outer loop
      vertex   -2.500000e+001 1.350000e+002 3.000000e+001
      vertex   -5.000000e+001 1.350000e+002 1.750000e+001
      vertex   -5.500000e+001 1.350000e+002 3.000000e+001
    endloop
  endfacet
  facet normal 0.000000e+000 1.000000e+000 0.000000e+000
    outer loop
      vertex   -5.500000e+001 1.350000e+002 3.000000e+001
      vertex   -5.000000e+001 1.350000e+002 1.750000e+001
      vertex   -6.000000e+001 1.350000e+002 1.750000e+001
    endloop
  endfacet
  facet normal 0.000000e+000 1.000000e+000 0.000000e+000
    outer loop
      vertex   -8.500000e+001 1.350000e+002 3.000000e+001
      vertex   -6.000000e+001 1.350000e+002 1.750000e+001
      vertex   -8.500000e+001 1.350000e+002 0.000000e+000
    endloop
  endfacet
  facet normal -0.000000e+000 1.000000e+000 0.000000e+000
    outer loop
      vertex   -8.500000e+001 1.350000e+002 3.000000e+001
      vertex   -5.500000e+001 1.350000e+002 3.000000e+001
      vertex   -6.000000e+001 1.350000e+002 1.750000e+001
    endloop
  endfacet
  facet normal 0.000000e+000 1.000000e+000 0.000000e+000
    outer loop
      vertex   -6.000000e+001 1.350000e+002 1.750000e+001
      vertex   -6.000000e+001 1.350000e+002 1.250000e+001
      vertex   -8.500000e+001 1.350000e+002 0.000000e+000
    endloop
  endfacet
  facet normal -0.000000e+000 1.000000e+000 0.000000e+000
    outer loop
      vertex   -8.500000e+001 1.350000e+002 0.000000e+000
      vertex   -6.000000e+001 1.350000e+002 1.250000e+001
      vertex   -5.500000e+001 1.350000e+002 0.000000e+000
    endloop
  endfacet
  facet normal 0.000000e+000 0.000000e+000 1.000000e+000
    outer loop
      vertex   -8.000000e+001 8.000000e+001 3.000000e+001
      vertex   -8.500000e+001 8.000000e+001 3.000000e+001
      vertex   -8.000000e+001 3.000000e+001 3.000000e+001
    endloop
  endfacet
  facet normal 0.000000e+000 -0.000000e+000 1.000000e+000
    outer loop
      vertex   -8.000000e+001 8.000000e+001 3.000000e+001
      vertex   -8.000000e+001 1.300000e+002 3.000000e+001
      vertex   -8.500000e+001 8.000000e+001 3.000000e+001
    endloop
  endfacet
  facet normal 0.000000e+000 -0.000000e+000 1.000000e+000
    outer loop
      vertex   -8.500000e+001 8.000000e+001 3.000000e+001
      vertex   -8.000000e+001 1.300000e+002 3.000000e+001
      vertex   -8.500000e+001 1.350000e+002 3.000000e+001
    endloop
  endfacet
  facet normal -0.000000e+000 0.000000e+000 1.000000e+000
    outer loop
      vertex   -8.500000e+001 1.350000e+002 3.000000e+001
      vertex   -8.000000e+001 1.300000e+002 3.000000e+001
      vertex   -5.500000e+001 1.350000e+002 3.000000e+001
    endloop
  endfacet
  facet normal -0.000000e+000 0.000000e+000 1.000000e+000
    outer loop
      vertex   -5.500000e+001 1.350000e+002 3.000000e+001
      vertex   -8.000000e+001 1.300000e+002 3.000000e+001
      vertex   -3.000000e+001 1.300000e+002 3.000000e+001
    endloop
  endfacet
  facet normal 0.000000e+000 0.000000e+000 1.000000e+000
    outer loop
      vertex   -2.500000e+001 1.350000e+002 3.000000e+001
      vertex   -3.000000e+001 1.300000e+002 3.000000e+001
      vertex   -2.500000e+001 8.000000e+001 3.000000e+001
    endloop
  endfacet
  facet normal 0.000000e+000 0.000000e+000 1.000000e+000
    outer loop
      vertex   -2.500000e+001 1.350000e+002 3.000000e+001
      vertex   -5.500000e+001 1.350000e+002 3.000000e+001
      vertex   -3.000000e+001 1.300000e+002 3.000000e+001
    endloop
  endfacet
  facet normal -0.000000e+000 0.000000e+000 1.000000e+000
    outer loop
      vertex   -3.000000e+001 1.300000e+002 3.000000e+001
      vertex   -3.000000e+001 8.000000e+001 3.000000e+001
      vertex   -2.500000e+001 8.000000e+001 3.000000e+001
    endloop
  endfacet
  facet normal 0.000000e+000 0.000000e+000 1.000000e+000
    outer loop
      vertex   -2.500000e+001 8.000000e+001 3.000000e+001
      vertex   -3.000000e+001 8.000000e+001 3.000000e+001
      vertex   -3.000000e+001 3.000000e+001 3.000000e+001
    endloop
  endfacet
  facet normal 0.000000e+000 0.000000e+000 1.000000e+000
    outer loop
      vertex   -2.500000e+001 2.500000e+001 3.000000e+001
      vertex   -3.000000e+001 3.000000e+001 3.000000e+001
      vertex   -5.500000e+001 2.500000e+001 3.000000e+001
    endloop
  endfacet
  facet normal 0.000000e+000 -0.000000e+000 1.000000e+000
    outer loop
      vertex   -2.500000e+001 2.500000e+001 3.000000e+001
      vertex   -2.500000e+001 8.000000e+001 3.000000e+001
      vertex   -3.000000e+001 3.000000e+001 3.000000e+001
    endloop
  endfacet
  facet normal 0.000000e+000 0.000000e+000 1.000000e+000
    outer loop
      vertex   -3.000000e+001 3.000000e+001 3.000000e+001
      vertex   -8.000000e+001 3.000000e+001 3.000000e+001
      vertex   -5.500000e+001 2.500000e+001 3.000000e+001
    endloop
  endfacet
  facet normal 0.000000e+000 0.000000e+000 1.000000e+000
    outer loop
      vertex   -5.500000e+001 2.500000e+001 3.000000e+001
      vertex   -8.000000e+001 3.000000e+001 3.000000e+001
      vertex   -8.500000e+001 2.500000e+001 3.000000e+001
    endloop
  endfacet
  facet normal 0.000000e+000 -0.000000e+000 1.000000e+000
    outer loop
      vertex   -8.500000e+001 2.500000e+001 3.000000e+001
      vertex   -8.000000e+001 3.000000e+001 3.000000e+001
      vertex   -8.500000e+001 8.000000e+001 3.000000e+001
    endloop
  endfacet
  facet normal 0.000000e+000 -0.000000e+000 -1.000000e+000
    outer loop
      vertex   -8.500000e+001 1.350000e+002 0.000000e+000
      vertex   -5.500000e+001 1.350000e+002 0.000000e+000
      vertex   -8.500000e+001 8.000000e+001 0.000000e+000
    endloop
  endfacet
  facet normal 0.000000e+000 0.000000e+000 -1.000000e+000
    outer loop
      vertex   -8.500000e+001 8.000000e+001 0.000000e+000
      vertex   -5.500000e+001 1.350000e+002 0.000000e+000
      vertex   -2.500000e+001 8.000000e+001 0.000000e+000
    endloop
  endfacet
  facet normal 0.000000e+000 0.000000e+000 -1.000000e+000
    outer loop
      vertex   -5.500000e+001 2.500000e+001 0.000000e+000
      vertex   -2.500000e+001 8.000000e+001 0.000000e+000
      vertex   -2.500000e+001 2.500000e+001 0.000000e+000
    endloop
  endfacet
  facet normal 0.000000e+000 0.000000e+000 -1.000000e+000
    outer loop
      vertex   -5.500000e+001 2.500000e+001 0.000000e+000
      vertex   -8.500000e+001 8.000000e+001 0.000000e+000
      vertex   -2.500000e+001 8.000000e+001 0.000000e+000
    endloop
  endfacet
  facet normal 0.000000e+000 0.000000e+000 -1.000000e+000
    outer loop
      vertex   -5.500000e+001 2.500000e+001 0.000000e+000
      vertex   -8.500000e+001 2.500000e+001 0.000000e+000
      vertex   -8.500000e+001 8.000000e+001 0.000000e+000
    endloop
  endfacet
  facet normal 0.000000e+000 0.000000e+000 -1.000000e+000
    outer loop
      vertex   -5.500000e+001 1.350000e+002 0.000000e+000
      vertex   -2.500000e+001 1.350000e+002 0.000000e+000
      vertex   -2.500000e+001 8.000000e+001 0.000000e+000
    endloop
  endfacet
endsolid
