G04 MADE WITH FRITZING*
G04 WWW.FRITZING.ORG*
G04 DOUBLE SIDED*
G04 HOLES PLATED*
G04 CONTOUR ON CENTER OF CONTOUR VECTOR*
%ASAXBY*%
%FSLAX23Y23*%
%MOIN*%
%OFA0B0*%
%SFA1.0B1.0*%
%ADD10C,0.088000*%
%ADD11C,0.088861*%
%ADD12C,0.074972*%
%ADD13C,0.088833*%
%ADD14C,0.148425*%
%ADD15C,0.080000*%
%ADD16C,0.083889*%
%ADD17R,0.088000X0.088000*%
%ADD18R,0.001000X0.001000*%
%LNMASK0*%
G90*
G70*
G54D10*
X2322Y563D03*
X2322Y663D03*
X2322Y763D03*
X2322Y863D03*
X2322Y963D03*
X2322Y1063D03*
X2322Y1163D03*
X2322Y1263D03*
X2322Y1363D03*
X2322Y1463D03*
X2322Y1563D03*
X2322Y1663D03*
X2322Y1763D03*
X2322Y1863D03*
X2322Y1963D03*
X2322Y2063D03*
X2322Y2163D03*
X2222Y2163D03*
X2222Y2063D03*
X2222Y1963D03*
X2222Y1863D03*
X2222Y1763D03*
X2222Y1663D03*
X2222Y1563D03*
X2222Y1463D03*
X2222Y1363D03*
X2222Y1263D03*
X2222Y1163D03*
X2222Y1063D03*
X2222Y963D03*
X2222Y863D03*
X2222Y763D03*
X2222Y663D03*
X2222Y563D03*
X3522Y663D03*
X3522Y763D03*
X3522Y863D03*
X3522Y963D03*
X3522Y1063D03*
X3522Y1163D03*
X3522Y1263D03*
X3522Y1363D03*
X3522Y1463D03*
X3522Y1563D03*
X3522Y1663D03*
X3522Y1763D03*
X3522Y1863D03*
X3522Y1963D03*
X3522Y2063D03*
X3522Y2163D03*
X3422Y2163D03*
X3422Y2063D03*
X3422Y1963D03*
X3422Y1863D03*
X3422Y1763D03*
X3422Y1663D03*
X3422Y1563D03*
X3422Y1463D03*
X3422Y1363D03*
X3422Y1263D03*
X3422Y1163D03*
X3422Y1063D03*
X3422Y963D03*
X3422Y863D03*
X3422Y763D03*
X3422Y663D03*
X3522Y163D03*
X3522Y263D03*
X3522Y363D03*
X3522Y463D03*
X3422Y463D03*
X3422Y363D03*
X3422Y263D03*
X3422Y163D03*
X2422Y2063D03*
X2167Y2063D03*
X2167Y2073D03*
X2167Y2063D03*
X2167Y2073D03*
X2167Y2063D03*
X2167Y2073D03*
X2167Y2163D03*
X2167Y2173D03*
X2167Y2163D03*
X2167Y2173D03*
X2167Y2163D03*
X2167Y2173D03*
X2422Y2163D03*
X2222Y163D03*
X2322Y163D03*
X2322Y263D03*
X2322Y363D03*
X2222Y363D03*
X2222Y263D03*
G54D11*
X222Y313D03*
G54D12*
X222Y413D03*
G54D11*
X222Y513D03*
X222Y613D03*
X222Y713D03*
X222Y813D03*
G54D13*
X1612Y429D03*
X1612Y529D03*
X1612Y629D03*
X1612Y729D03*
G54D14*
X4422Y163D03*
G54D15*
X3922Y813D03*
X3922Y713D03*
X3922Y613D03*
X3922Y513D03*
X3922Y413D03*
X3922Y313D03*
X3922Y213D03*
X3922Y113D03*
G54D14*
X4422Y763D03*
G54D10*
X122Y1513D03*
X122Y1613D03*
G54D16*
X4772Y513D03*
X4772Y413D03*
X4772Y313D03*
X4772Y213D03*
X5415Y713D03*
X5415Y813D03*
X5415Y913D03*
X5415Y1013D03*
X3072Y2663D03*
X3172Y2663D03*
X3272Y2663D03*
X3372Y2663D03*
G54D10*
X122Y1813D03*
X122Y1913D03*
X122Y1163D03*
X122Y1263D03*
X1672Y1103D03*
X1672Y1003D03*
G54D16*
X5142Y163D03*
X5242Y163D03*
X5342Y163D03*
X5442Y163D03*
G54D17*
X122Y1513D03*
X122Y1813D03*
X122Y1163D03*
X1672Y1103D03*
G54D18*
X1671Y2802D02*
X1672Y2802D01*
X1663Y2801D02*
X1680Y2801D01*
X1660Y2800D02*
X1683Y2800D01*
X1657Y2799D02*
X1686Y2799D01*
X1655Y2798D02*
X1688Y2798D01*
X1653Y2797D02*
X1690Y2797D01*
X1652Y2796D02*
X1691Y2796D01*
X1650Y2795D02*
X1693Y2795D01*
X1649Y2794D02*
X1694Y2794D01*
X1647Y2793D02*
X1696Y2793D01*
X1646Y2792D02*
X1697Y2792D01*
X1645Y2791D02*
X1698Y2791D01*
X1644Y2790D02*
X1699Y2790D01*
X1643Y2789D02*
X1700Y2789D01*
X1643Y2788D02*
X1700Y2788D01*
X1642Y2787D02*
X1701Y2787D01*
X1641Y2786D02*
X1702Y2786D01*
X1640Y2785D02*
X1703Y2785D01*
X1640Y2784D02*
X1703Y2784D01*
X1639Y2783D02*
X1704Y2783D01*
X1639Y2782D02*
X1704Y2782D01*
X1638Y2781D02*
X1705Y2781D01*
X1638Y2780D02*
X1705Y2780D01*
X1637Y2779D02*
X1706Y2779D01*
X1637Y2778D02*
X1706Y2778D01*
X1636Y2777D02*
X1707Y2777D01*
X1636Y2776D02*
X1707Y2776D01*
X1636Y2775D02*
X1707Y2775D01*
X1635Y2774D02*
X1708Y2774D01*
X1635Y2773D02*
X1708Y2773D01*
X1635Y2772D02*
X1708Y2772D01*
X1635Y2771D02*
X1708Y2771D01*
X1635Y2770D02*
X1708Y2770D01*
X1634Y2769D02*
X1709Y2769D01*
X1634Y2768D02*
X1709Y2768D01*
X1634Y2767D02*
X1709Y2767D01*
X1634Y2766D02*
X1709Y2766D01*
X1634Y2765D02*
X1709Y2765D01*
X1634Y2764D02*
X1709Y2764D01*
X1634Y2763D02*
X1709Y2763D01*
X1634Y2762D02*
X1709Y2762D01*
X1634Y2761D02*
X1709Y2761D01*
X1634Y2760D02*
X1709Y2760D01*
X1634Y2759D02*
X1709Y2759D01*
X1635Y2758D02*
X1708Y2758D01*
X1635Y2757D02*
X1708Y2757D01*
X1635Y2756D02*
X1708Y2756D01*
X1635Y2755D02*
X1708Y2755D01*
X1635Y2754D02*
X1708Y2754D01*
X1636Y2753D02*
X1707Y2753D01*
X1636Y2752D02*
X1707Y2752D01*
X1636Y2751D02*
X1707Y2751D01*
X1637Y2750D02*
X1706Y2750D01*
X1637Y2749D02*
X1706Y2749D01*
X1638Y2748D02*
X1705Y2748D01*
X1638Y2747D02*
X1705Y2747D01*
X1639Y2746D02*
X1704Y2746D01*
X1639Y2745D02*
X1704Y2745D01*
X1640Y2744D02*
X1703Y2744D01*
X1640Y2743D02*
X1702Y2743D01*
X1641Y2742D02*
X1702Y2742D01*
X1642Y2741D02*
X1701Y2741D01*
X1643Y2740D02*
X1700Y2740D01*
X1644Y2739D02*
X1699Y2739D01*
X1644Y2738D02*
X1699Y2738D01*
X1645Y2737D02*
X1698Y2737D01*
X1647Y2736D02*
X1696Y2736D01*
X1648Y2735D02*
X1695Y2735D01*
X1649Y2734D02*
X1694Y2734D01*
X1650Y2733D02*
X1693Y2733D01*
X1652Y2732D02*
X1691Y2732D01*
X1653Y2731D02*
X1689Y2731D01*
X1655Y2730D02*
X1688Y2730D01*
X1658Y2729D02*
X1685Y2729D01*
X1660Y2728D02*
X1683Y2728D01*
X1664Y2727D02*
X1679Y2727D01*
X1670Y2702D02*
X1673Y2702D01*
X1663Y2701D02*
X1680Y2701D01*
X1660Y2700D02*
X1683Y2700D01*
X1657Y2699D02*
X1686Y2699D01*
X1655Y2698D02*
X1688Y2698D01*
X1653Y2697D02*
X1690Y2697D01*
X1651Y2696D02*
X1692Y2696D01*
X1650Y2695D02*
X1693Y2695D01*
X1649Y2694D02*
X1694Y2694D01*
X1647Y2693D02*
X1696Y2693D01*
X1646Y2692D02*
X1697Y2692D01*
X1645Y2691D02*
X1698Y2691D01*
X1644Y2690D02*
X1699Y2690D01*
X1643Y2689D02*
X1700Y2689D01*
X1643Y2688D02*
X1700Y2688D01*
X1642Y2687D02*
X1701Y2687D01*
X1641Y2686D02*
X1702Y2686D01*
X1640Y2685D02*
X1703Y2685D01*
X1640Y2684D02*
X1703Y2684D01*
X1639Y2683D02*
X1704Y2683D01*
X1639Y2682D02*
X1704Y2682D01*
X1638Y2681D02*
X1705Y2681D01*
X1638Y2680D02*
X1705Y2680D01*
X1637Y2679D02*
X1706Y2679D01*
X1637Y2678D02*
X1706Y2678D01*
X1636Y2677D02*
X1707Y2677D01*
X1636Y2676D02*
X1707Y2676D01*
X1636Y2675D02*
X1707Y2675D01*
X1635Y2674D02*
X1708Y2674D01*
X1635Y2673D02*
X1708Y2673D01*
X1635Y2672D02*
X1708Y2672D01*
X1635Y2671D02*
X1708Y2671D01*
X1635Y2670D02*
X1708Y2670D01*
X1634Y2669D02*
X1709Y2669D01*
X1634Y2668D02*
X1709Y2668D01*
X1634Y2667D02*
X1709Y2667D01*
X1634Y2666D02*
X1709Y2666D01*
X1634Y2665D02*
X1709Y2665D01*
X1634Y2664D02*
X1709Y2664D01*
X1634Y2663D02*
X1709Y2663D01*
X1634Y2662D02*
X1709Y2662D01*
X1634Y2661D02*
X1709Y2661D01*
X1634Y2660D02*
X1709Y2660D01*
X1634Y2659D02*
X1709Y2659D01*
X1635Y2658D02*
X1708Y2658D01*
X1635Y2657D02*
X1708Y2657D01*
X1635Y2656D02*
X1708Y2656D01*
X1635Y2655D02*
X1708Y2655D01*
X1635Y2654D02*
X1708Y2654D01*
X1636Y2653D02*
X1707Y2653D01*
X1636Y2652D02*
X1707Y2652D01*
X1636Y2651D02*
X1707Y2651D01*
X1637Y2650D02*
X1706Y2650D01*
X1637Y2649D02*
X1706Y2649D01*
X1638Y2648D02*
X1705Y2648D01*
X1638Y2647D02*
X1705Y2647D01*
X1639Y2646D02*
X1704Y2646D01*
X1639Y2645D02*
X1704Y2645D01*
X1640Y2644D02*
X1703Y2644D01*
X1641Y2643D02*
X1702Y2643D01*
X1641Y2642D02*
X1702Y2642D01*
X1642Y2641D02*
X1701Y2641D01*
X1643Y2640D02*
X1700Y2640D01*
X1644Y2639D02*
X1699Y2639D01*
X1644Y2638D02*
X1699Y2638D01*
X1645Y2637D02*
X1698Y2637D01*
X1647Y2636D02*
X1696Y2636D01*
X1648Y2635D02*
X1695Y2635D01*
X1649Y2634D02*
X1694Y2634D01*
X1650Y2633D02*
X1693Y2633D01*
X1652Y2632D02*
X1691Y2632D01*
X1654Y2631D02*
X1689Y2631D01*
X1655Y2630D02*
X1688Y2630D01*
X1658Y2629D02*
X1685Y2629D01*
X1660Y2628D02*
X1683Y2628D01*
X1664Y2627D02*
X1679Y2627D01*
X1669Y2602D02*
X1674Y2602D01*
X1663Y2601D02*
X1680Y2601D01*
X1660Y2600D02*
X1683Y2600D01*
X1657Y2599D02*
X1686Y2599D01*
X1655Y2598D02*
X1688Y2598D01*
X1653Y2597D02*
X1690Y2597D01*
X1651Y2596D02*
X1692Y2596D01*
X1650Y2595D02*
X1693Y2595D01*
X1649Y2594D02*
X1694Y2594D01*
X1647Y2593D02*
X1696Y2593D01*
X1646Y2592D02*
X1697Y2592D01*
X1645Y2591D02*
X1698Y2591D01*
X1644Y2590D02*
X1699Y2590D01*
X1643Y2589D02*
X1700Y2589D01*
X1643Y2588D02*
X1700Y2588D01*
X1642Y2587D02*
X1701Y2587D01*
X1641Y2586D02*
X1702Y2586D01*
X1640Y2585D02*
X1703Y2585D01*
X1640Y2584D02*
X1703Y2584D01*
X1639Y2583D02*
X1704Y2583D01*
X1639Y2582D02*
X1704Y2582D01*
X1638Y2581D02*
X1705Y2581D01*
X1638Y2580D02*
X1705Y2580D01*
X1637Y2579D02*
X1706Y2579D01*
X1637Y2578D02*
X1706Y2578D01*
X1636Y2577D02*
X1707Y2577D01*
X1636Y2576D02*
X1707Y2576D01*
X1636Y2575D02*
X1707Y2575D01*
X1635Y2574D02*
X1708Y2574D01*
X1635Y2573D02*
X1708Y2573D01*
X1635Y2572D02*
X1708Y2572D01*
X1635Y2571D02*
X1708Y2571D01*
X1635Y2570D02*
X1708Y2570D01*
X1634Y2569D02*
X1709Y2569D01*
X1634Y2568D02*
X1709Y2568D01*
X1634Y2567D02*
X1709Y2567D01*
X1634Y2566D02*
X1709Y2566D01*
X1634Y2565D02*
X1709Y2565D01*
X1634Y2564D02*
X1709Y2564D01*
X1634Y2563D02*
X1709Y2563D01*
X1634Y2562D02*
X1709Y2562D01*
X1634Y2561D02*
X1709Y2561D01*
X1634Y2560D02*
X1709Y2560D01*
X1634Y2559D02*
X1709Y2559D01*
X1635Y2558D02*
X1708Y2558D01*
X1635Y2557D02*
X1708Y2557D01*
X1635Y2556D02*
X1708Y2556D01*
X1635Y2555D02*
X1708Y2555D01*
X1635Y2554D02*
X1708Y2554D01*
X1636Y2553D02*
X1707Y2553D01*
X1636Y2552D02*
X1707Y2552D01*
X1636Y2551D02*
X1707Y2551D01*
X1637Y2550D02*
X1706Y2550D01*
X1637Y2549D02*
X1706Y2549D01*
X1638Y2548D02*
X1705Y2548D01*
X1638Y2547D02*
X1705Y2547D01*
X1639Y2546D02*
X1704Y2546D01*
X1639Y2545D02*
X1704Y2545D01*
X1640Y2544D02*
X1703Y2544D01*
X1641Y2543D02*
X1702Y2543D01*
X1641Y2542D02*
X1702Y2542D01*
X1642Y2541D02*
X1701Y2541D01*
X1643Y2540D02*
X1700Y2540D01*
X1644Y2539D02*
X1699Y2539D01*
X1645Y2538D02*
X1698Y2538D01*
X1645Y2537D02*
X1698Y2537D01*
X1647Y2536D02*
X1696Y2536D01*
X1648Y2535D02*
X1695Y2535D01*
X1649Y2534D02*
X1694Y2534D01*
X1650Y2533D02*
X1693Y2533D01*
X1652Y2532D02*
X1691Y2532D01*
X1654Y2531D02*
X1689Y2531D01*
X1656Y2530D02*
X1687Y2530D01*
X1658Y2529D02*
X1685Y2529D01*
X1661Y2528D02*
X1682Y2528D01*
X1665Y2527D02*
X1678Y2527D01*
X1669Y2502D02*
X1674Y2502D01*
X1663Y2501D02*
X1680Y2501D01*
X1660Y2500D02*
X1683Y2500D01*
X1657Y2499D02*
X1686Y2499D01*
X1655Y2498D02*
X1688Y2498D01*
X1653Y2497D02*
X1690Y2497D01*
X1651Y2496D02*
X1692Y2496D01*
X1650Y2495D02*
X1693Y2495D01*
X1649Y2494D02*
X1694Y2494D01*
X1647Y2493D02*
X1696Y2493D01*
X1646Y2492D02*
X1697Y2492D01*
X1645Y2491D02*
X1698Y2491D01*
X1644Y2490D02*
X1699Y2490D01*
X1643Y2489D02*
X1700Y2489D01*
X1643Y2488D02*
X1701Y2488D01*
X1642Y2487D02*
X1701Y2487D01*
X1641Y2486D02*
X1702Y2486D01*
X1640Y2485D02*
X1703Y2485D01*
X1640Y2484D02*
X1703Y2484D01*
X1639Y2483D02*
X1704Y2483D01*
X1639Y2482D02*
X1704Y2482D01*
X1638Y2481D02*
X1705Y2481D01*
X1638Y2480D02*
X1705Y2480D01*
X1637Y2479D02*
X1706Y2479D01*
X1637Y2478D02*
X1706Y2478D01*
X1636Y2477D02*
X1707Y2477D01*
X1636Y2476D02*
X1707Y2476D01*
X1636Y2475D02*
X1707Y2475D01*
X1635Y2474D02*
X1708Y2474D01*
X1635Y2473D02*
X1708Y2473D01*
X1635Y2472D02*
X1708Y2472D01*
X1635Y2471D02*
X1708Y2471D01*
X1635Y2470D02*
X1708Y2470D01*
X1634Y2469D02*
X1709Y2469D01*
X1634Y2468D02*
X1709Y2468D01*
X1634Y2467D02*
X1709Y2467D01*
X1634Y2466D02*
X1709Y2466D01*
X1634Y2465D02*
X1709Y2465D01*
X1634Y2464D02*
X1709Y2464D01*
X1634Y2463D02*
X1709Y2463D01*
X1634Y2462D02*
X1709Y2462D01*
X1634Y2461D02*
X1709Y2461D01*
X1634Y2460D02*
X1709Y2460D01*
X1634Y2459D02*
X1709Y2459D01*
X1635Y2458D02*
X1708Y2458D01*
X1635Y2457D02*
X1708Y2457D01*
X1635Y2456D02*
X1708Y2456D01*
X1635Y2455D02*
X1708Y2455D01*
X1635Y2454D02*
X1708Y2454D01*
X1636Y2453D02*
X1707Y2453D01*
X1636Y2452D02*
X1707Y2452D01*
X1636Y2451D02*
X1707Y2451D01*
X1637Y2450D02*
X1706Y2450D01*
X1637Y2449D02*
X1706Y2449D01*
X1638Y2448D02*
X1705Y2448D01*
X1638Y2447D02*
X1705Y2447D01*
X1639Y2446D02*
X1704Y2446D01*
X1639Y2445D02*
X1704Y2445D01*
X1640Y2444D02*
X1703Y2444D01*
X1641Y2443D02*
X1702Y2443D01*
X1641Y2442D02*
X1702Y2442D01*
X1642Y2441D02*
X1701Y2441D01*
X1643Y2440D02*
X1700Y2440D01*
X1644Y2439D02*
X1699Y2439D01*
X1645Y2438D02*
X1698Y2438D01*
X1646Y2437D02*
X1697Y2437D01*
X1647Y2436D02*
X1696Y2436D01*
X1648Y2435D02*
X1695Y2435D01*
X1649Y2434D02*
X1694Y2434D01*
X1650Y2433D02*
X1693Y2433D01*
X1652Y2432D02*
X1691Y2432D01*
X1654Y2431D02*
X1689Y2431D01*
X1656Y2430D02*
X1687Y2430D01*
X1658Y2429D02*
X1685Y2429D01*
X1661Y2428D02*
X1682Y2428D01*
X1665Y2427D02*
X1678Y2427D01*
X1669Y2402D02*
X1674Y2402D01*
X1663Y2401D02*
X1680Y2401D01*
X1659Y2400D02*
X1684Y2400D01*
X1657Y2399D02*
X1686Y2399D01*
X1655Y2398D02*
X1688Y2398D01*
X1653Y2397D02*
X1690Y2397D01*
X1651Y2396D02*
X1692Y2396D01*
X1650Y2395D02*
X1693Y2395D01*
X1649Y2394D02*
X1694Y2394D01*
X1647Y2393D02*
X1696Y2393D01*
X1646Y2392D02*
X1697Y2392D01*
X1645Y2391D02*
X1698Y2391D01*
X1644Y2390D02*
X1699Y2390D01*
X1643Y2389D02*
X1700Y2389D01*
X1642Y2388D02*
X1701Y2388D01*
X1642Y2387D02*
X1701Y2387D01*
X1641Y2386D02*
X1702Y2386D01*
X1640Y2385D02*
X1703Y2385D01*
X1640Y2384D02*
X1703Y2384D01*
X1639Y2383D02*
X1704Y2383D01*
X1639Y2382D02*
X1705Y2382D01*
X1638Y2381D02*
X1705Y2381D01*
X1638Y2380D02*
X1706Y2380D01*
X1637Y2379D02*
X1706Y2379D01*
X1637Y2378D02*
X1706Y2378D01*
X1636Y2377D02*
X1707Y2377D01*
X1636Y2376D02*
X1707Y2376D01*
X1636Y2375D02*
X1707Y2375D01*
X1635Y2374D02*
X1708Y2374D01*
X1635Y2373D02*
X1708Y2373D01*
X1635Y2372D02*
X1708Y2372D01*
X1635Y2371D02*
X1708Y2371D01*
X1635Y2370D02*
X1708Y2370D01*
X1634Y2369D02*
X1709Y2369D01*
X1634Y2368D02*
X1709Y2368D01*
X1634Y2367D02*
X1709Y2367D01*
X1634Y2366D02*
X1709Y2366D01*
X1634Y2365D02*
X1709Y2365D01*
X1634Y2364D02*
X1709Y2364D01*
X1634Y2363D02*
X1709Y2363D01*
X1634Y2362D02*
X1709Y2362D01*
X1634Y2361D02*
X1709Y2361D01*
X1634Y2360D02*
X1709Y2360D01*
X1634Y2359D02*
X1709Y2359D01*
X1635Y2358D02*
X1708Y2358D01*
X1635Y2357D02*
X1708Y2357D01*
X1635Y2356D02*
X1708Y2356D01*
X1635Y2355D02*
X1708Y2355D01*
X1636Y2354D02*
X1708Y2354D01*
X1636Y2353D02*
X1707Y2353D01*
X1636Y2352D02*
X1707Y2352D01*
X1636Y2351D02*
X1707Y2351D01*
X1637Y2350D02*
X1706Y2350D01*
X1637Y2349D02*
X1706Y2349D01*
X1638Y2348D02*
X1705Y2348D01*
X1638Y2347D02*
X1705Y2347D01*
X1639Y2346D02*
X1704Y2346D01*
X1639Y2345D02*
X1704Y2345D01*
X1640Y2344D02*
X1703Y2344D01*
X1641Y2343D02*
X1702Y2343D01*
X1641Y2342D02*
X1702Y2342D01*
X1642Y2341D02*
X1701Y2341D01*
X1643Y2340D02*
X1700Y2340D01*
X1644Y2339D02*
X1699Y2339D01*
X1645Y2338D02*
X1698Y2338D01*
X1646Y2337D02*
X1697Y2337D01*
X1647Y2336D02*
X1696Y2336D01*
X1648Y2335D02*
X1695Y2335D01*
X1649Y2334D02*
X1694Y2334D01*
X1651Y2333D02*
X1692Y2333D01*
X1652Y2332D02*
X1691Y2332D01*
X1654Y2331D02*
X1689Y2331D01*
X1656Y2330D02*
X1687Y2330D01*
X1658Y2329D02*
X1685Y2329D01*
X1661Y2328D02*
X1682Y2328D01*
X1665Y2327D02*
X1678Y2327D01*
X1668Y2302D02*
X1675Y2302D01*
X1663Y2301D02*
X1680Y2301D01*
X1659Y2300D02*
X1684Y2300D01*
X1657Y2299D02*
X1686Y2299D01*
X1655Y2298D02*
X1688Y2298D01*
X1653Y2297D02*
X1690Y2297D01*
X1651Y2296D02*
X1692Y2296D01*
X1650Y2295D02*
X1693Y2295D01*
X1649Y2294D02*
X1694Y2294D01*
X1647Y2293D02*
X1696Y2293D01*
X1646Y2292D02*
X1697Y2292D01*
X1645Y2291D02*
X1698Y2291D01*
X1644Y2290D02*
X1699Y2290D01*
X1643Y2289D02*
X1700Y2289D01*
X1642Y2288D02*
X1701Y2288D01*
X1642Y2287D02*
X1701Y2287D01*
X1641Y2286D02*
X1702Y2286D01*
X1640Y2285D02*
X1703Y2285D01*
X1640Y2284D02*
X1703Y2284D01*
X1639Y2283D02*
X1704Y2283D01*
X1638Y2282D02*
X1705Y2282D01*
X1638Y2281D02*
X1705Y2281D01*
X1637Y2280D02*
X1706Y2280D01*
X1637Y2279D02*
X1706Y2279D01*
X1637Y2278D02*
X1706Y2278D01*
X1636Y2277D02*
X1707Y2277D01*
X1636Y2276D02*
X1707Y2276D01*
X1636Y2275D02*
X1707Y2275D01*
X1635Y2274D02*
X1708Y2274D01*
X1635Y2273D02*
X1708Y2273D01*
X1635Y2272D02*
X1708Y2272D01*
X1635Y2271D02*
X1708Y2271D01*
X1635Y2270D02*
X1708Y2270D01*
X1634Y2269D02*
X1709Y2269D01*
X1634Y2268D02*
X1709Y2268D01*
X1634Y2267D02*
X1709Y2267D01*
X1634Y2266D02*
X1709Y2266D01*
X1634Y2265D02*
X1709Y2265D01*
X1634Y2264D02*
X1709Y2264D01*
X1634Y2263D02*
X1709Y2263D01*
X1634Y2262D02*
X1709Y2262D01*
X1634Y2261D02*
X1709Y2261D01*
X1634Y2260D02*
X1709Y2260D01*
X1634Y2259D02*
X1709Y2259D01*
X1635Y2258D02*
X1708Y2258D01*
X1635Y2257D02*
X1708Y2257D01*
X1635Y2256D02*
X1708Y2256D01*
X1635Y2255D02*
X1708Y2255D01*
X1636Y2254D02*
X1707Y2254D01*
X1636Y2253D02*
X1707Y2253D01*
X1636Y2252D02*
X1707Y2252D01*
X1636Y2251D02*
X1707Y2251D01*
X1637Y2250D02*
X1706Y2250D01*
X1637Y2249D02*
X1706Y2249D01*
X1638Y2248D02*
X1705Y2248D01*
X1638Y2247D02*
X1705Y2247D01*
X1639Y2246D02*
X1704Y2246D01*
X1639Y2245D02*
X1704Y2245D01*
X1640Y2244D02*
X1703Y2244D01*
X1641Y2243D02*
X1702Y2243D01*
X1641Y2242D02*
X1702Y2242D01*
X1642Y2241D02*
X1701Y2241D01*
X1643Y2240D02*
X1700Y2240D01*
X1644Y2239D02*
X1699Y2239D01*
X1645Y2238D02*
X1698Y2238D01*
X1646Y2237D02*
X1697Y2237D01*
X1647Y2236D02*
X1696Y2236D01*
X1648Y2235D02*
X1695Y2235D01*
X1649Y2234D02*
X1694Y2234D01*
X1651Y2233D02*
X1692Y2233D01*
X1652Y2232D02*
X1691Y2232D01*
X1654Y2231D02*
X1689Y2231D01*
X1656Y2230D02*
X1687Y2230D01*
X1658Y2229D02*
X1685Y2229D01*
X1661Y2228D02*
X1682Y2228D01*
X1665Y2227D02*
X1678Y2227D01*
X1517Y1756D02*
X1526Y1756D01*
X1512Y1755D02*
X1532Y1755D01*
X1508Y1754D02*
X1535Y1754D01*
X1505Y1753D02*
X1538Y1753D01*
X1503Y1752D02*
X1540Y1752D01*
X1502Y1751D02*
X1542Y1751D01*
X1500Y1750D02*
X1543Y1750D01*
X1498Y1749D02*
X1545Y1749D01*
X1497Y1748D02*
X1546Y1748D01*
X1496Y1747D02*
X1547Y1747D01*
X1494Y1746D02*
X1549Y1746D01*
X1493Y1745D02*
X1550Y1745D01*
X1492Y1744D02*
X1551Y1744D01*
X1491Y1743D02*
X1552Y1743D01*
X1490Y1742D02*
X1553Y1742D01*
X1490Y1741D02*
X1554Y1741D01*
X1489Y1740D02*
X1554Y1740D01*
X1488Y1739D02*
X1555Y1739D01*
X1487Y1738D02*
X1556Y1738D01*
X1487Y1737D02*
X1556Y1737D01*
X1486Y1736D02*
X1557Y1736D01*
X1485Y1735D02*
X1558Y1735D01*
X1485Y1734D02*
X1558Y1734D01*
X1484Y1733D02*
X1559Y1733D01*
X1484Y1732D02*
X1559Y1732D01*
X1483Y1731D02*
X1560Y1731D01*
X1483Y1730D02*
X1560Y1730D01*
X1483Y1729D02*
X1560Y1729D01*
X1482Y1728D02*
X1561Y1728D01*
X1482Y1727D02*
X1561Y1727D01*
X1482Y1726D02*
X1561Y1726D01*
X1481Y1725D02*
X1562Y1725D01*
X1481Y1724D02*
X1562Y1724D01*
X1481Y1723D02*
X1562Y1723D01*
X1481Y1722D02*
X1562Y1722D01*
X1481Y1721D02*
X1562Y1721D01*
X1480Y1720D02*
X1563Y1720D01*
X1480Y1719D02*
X1563Y1719D01*
X1480Y1718D02*
X1563Y1718D01*
X1480Y1717D02*
X1563Y1717D01*
X1480Y1716D02*
X1563Y1716D01*
X1480Y1715D02*
X1563Y1715D01*
X1480Y1714D02*
X1563Y1714D01*
X1480Y1713D02*
X1563Y1713D01*
X1480Y1712D02*
X1563Y1712D01*
X1480Y1711D02*
X1563Y1711D01*
X1480Y1710D02*
X1563Y1710D01*
X1480Y1709D02*
X1563Y1709D01*
X1481Y1708D02*
X1562Y1708D01*
X1481Y1707D02*
X1562Y1707D01*
X1481Y1706D02*
X1562Y1706D01*
X1481Y1705D02*
X1562Y1705D01*
X1481Y1704D02*
X1562Y1704D01*
X1482Y1703D02*
X1561Y1703D01*
X1482Y1702D02*
X1561Y1702D01*
X1482Y1701D02*
X1561Y1701D01*
X1483Y1700D02*
X1560Y1700D01*
X1483Y1699D02*
X1560Y1699D01*
X1483Y1698D02*
X1560Y1698D01*
X1484Y1697D02*
X1559Y1697D01*
X1484Y1696D02*
X1559Y1696D01*
X1485Y1695D02*
X1558Y1695D01*
X1485Y1694D02*
X1558Y1694D01*
X1486Y1693D02*
X1557Y1693D01*
X1487Y1692D02*
X1556Y1692D01*
X1487Y1691D02*
X1556Y1691D01*
X1488Y1690D02*
X1555Y1690D01*
X1489Y1689D02*
X1554Y1689D01*
X1489Y1688D02*
X1554Y1688D01*
X1490Y1687D02*
X1553Y1687D01*
X1491Y1686D02*
X1552Y1686D01*
X1492Y1685D02*
X1551Y1685D01*
X1493Y1684D02*
X1550Y1684D01*
X1494Y1683D02*
X1549Y1683D01*
X1495Y1682D02*
X1548Y1682D01*
X1497Y1681D02*
X1546Y1681D01*
X1498Y1680D02*
X1545Y1680D01*
X1500Y1679D02*
X1544Y1679D01*
X1501Y1678D02*
X1542Y1678D01*
X1503Y1677D02*
X1540Y1677D01*
X1505Y1676D02*
X1538Y1676D01*
X1507Y1675D02*
X1536Y1675D01*
X1511Y1674D02*
X1532Y1674D01*
X1515Y1673D02*
X1528Y1673D01*
X351Y1656D02*
X365Y1656D01*
X1517Y1656D02*
X1526Y1656D01*
X347Y1655D02*
X369Y1655D01*
X1512Y1655D02*
X1531Y1655D01*
X344Y1654D02*
X372Y1654D01*
X1508Y1654D02*
X1535Y1654D01*
X341Y1653D02*
X375Y1653D01*
X1506Y1653D02*
X1537Y1653D01*
X339Y1652D02*
X377Y1652D01*
X1504Y1652D02*
X1539Y1652D01*
X338Y1651D02*
X379Y1651D01*
X1502Y1651D02*
X1541Y1651D01*
X336Y1650D02*
X380Y1650D01*
X1500Y1650D02*
X1543Y1650D01*
X334Y1649D02*
X382Y1649D01*
X1498Y1649D02*
X1545Y1649D01*
X333Y1648D02*
X383Y1648D01*
X1497Y1648D02*
X1546Y1648D01*
X332Y1647D02*
X384Y1647D01*
X1496Y1647D02*
X1547Y1647D01*
X331Y1646D02*
X386Y1646D01*
X1495Y1646D02*
X1549Y1646D01*
X329Y1645D02*
X387Y1645D01*
X1493Y1645D02*
X1550Y1645D01*
X328Y1644D02*
X388Y1644D01*
X1492Y1644D02*
X1551Y1644D01*
X328Y1643D02*
X389Y1643D01*
X1491Y1643D02*
X1552Y1643D01*
X327Y1642D02*
X390Y1642D01*
X1491Y1642D02*
X1553Y1642D01*
X326Y1641D02*
X390Y1641D01*
X1490Y1641D02*
X1553Y1641D01*
X325Y1640D02*
X391Y1640D01*
X1489Y1640D02*
X1554Y1640D01*
X324Y1639D02*
X392Y1639D01*
X1488Y1639D02*
X1555Y1639D01*
X324Y1638D02*
X393Y1638D01*
X1487Y1638D02*
X1556Y1638D01*
X323Y1637D02*
X393Y1637D01*
X1487Y1637D02*
X1556Y1637D01*
X322Y1636D02*
X394Y1636D01*
X1486Y1636D02*
X1557Y1636D01*
X322Y1635D02*
X394Y1635D01*
X1486Y1635D02*
X1558Y1635D01*
X321Y1634D02*
X395Y1634D01*
X1485Y1634D02*
X1558Y1634D01*
X321Y1633D02*
X395Y1633D01*
X1484Y1633D02*
X1559Y1633D01*
X320Y1632D02*
X396Y1632D01*
X1484Y1632D02*
X1559Y1632D01*
X320Y1631D02*
X396Y1631D01*
X1483Y1631D02*
X1560Y1631D01*
X319Y1630D02*
X397Y1630D01*
X1483Y1630D02*
X1560Y1630D01*
X319Y1629D02*
X397Y1629D01*
X1483Y1629D02*
X1560Y1629D01*
X319Y1628D02*
X397Y1628D01*
X1482Y1628D02*
X1561Y1628D01*
X318Y1627D02*
X398Y1627D01*
X1482Y1627D02*
X1561Y1627D01*
X318Y1626D02*
X398Y1626D01*
X1482Y1626D02*
X1561Y1626D01*
X318Y1625D02*
X398Y1625D01*
X1481Y1625D02*
X1562Y1625D01*
X318Y1624D02*
X399Y1624D01*
X1481Y1624D02*
X1562Y1624D01*
X317Y1623D02*
X399Y1623D01*
X1481Y1623D02*
X1562Y1623D01*
X317Y1622D02*
X399Y1622D01*
X1481Y1622D02*
X1562Y1622D01*
X317Y1621D02*
X399Y1621D01*
X1481Y1621D02*
X1562Y1621D01*
X317Y1620D02*
X399Y1620D01*
X1480Y1620D02*
X1563Y1620D01*
X317Y1619D02*
X399Y1619D01*
X1480Y1619D02*
X1563Y1619D01*
X317Y1618D02*
X399Y1618D01*
X1480Y1618D02*
X1563Y1618D01*
X317Y1617D02*
X400Y1617D01*
X1480Y1617D02*
X1563Y1617D01*
X317Y1616D02*
X400Y1616D01*
X1480Y1616D02*
X1563Y1616D01*
X317Y1615D02*
X400Y1615D01*
X1480Y1615D02*
X1563Y1615D01*
X317Y1614D02*
X400Y1614D01*
X1480Y1614D02*
X1563Y1614D01*
X317Y1613D02*
X400Y1613D01*
X1480Y1613D02*
X1563Y1613D01*
X317Y1612D02*
X400Y1612D01*
X1480Y1612D02*
X1563Y1612D01*
X317Y1611D02*
X399Y1611D01*
X1480Y1611D02*
X1563Y1611D01*
X317Y1610D02*
X399Y1610D01*
X1480Y1610D02*
X1563Y1610D01*
X317Y1609D02*
X399Y1609D01*
X1480Y1609D02*
X1563Y1609D01*
X317Y1608D02*
X399Y1608D01*
X1481Y1608D02*
X1562Y1608D01*
X317Y1607D02*
X399Y1607D01*
X1481Y1607D02*
X1562Y1607D01*
X318Y1606D02*
X399Y1606D01*
X1481Y1606D02*
X1562Y1606D01*
X318Y1605D02*
X398Y1605D01*
X1481Y1605D02*
X1562Y1605D01*
X318Y1604D02*
X398Y1604D01*
X1481Y1604D02*
X1562Y1604D01*
X318Y1603D02*
X398Y1603D01*
X1482Y1603D02*
X1561Y1603D01*
X319Y1602D02*
X398Y1602D01*
X1482Y1602D02*
X1561Y1602D01*
X319Y1601D02*
X397Y1601D01*
X1482Y1601D02*
X1561Y1601D01*
X319Y1600D02*
X397Y1600D01*
X1483Y1600D02*
X1561Y1600D01*
X320Y1599D02*
X397Y1599D01*
X1483Y1599D02*
X1560Y1599D01*
X320Y1598D02*
X396Y1598D01*
X1483Y1598D02*
X1560Y1598D01*
X321Y1597D02*
X396Y1597D01*
X1484Y1597D02*
X1559Y1597D01*
X321Y1596D02*
X395Y1596D01*
X1484Y1596D02*
X1559Y1596D01*
X322Y1595D02*
X395Y1595D01*
X1485Y1595D02*
X1558Y1595D01*
X322Y1594D02*
X394Y1594D01*
X1485Y1594D02*
X1558Y1594D01*
X323Y1593D02*
X394Y1593D01*
X1486Y1593D02*
X1557Y1593D01*
X323Y1592D02*
X393Y1592D01*
X1486Y1592D02*
X1557Y1592D01*
X324Y1591D02*
X392Y1591D01*
X1487Y1591D02*
X1556Y1591D01*
X325Y1590D02*
X392Y1590D01*
X1488Y1590D02*
X1555Y1590D01*
X325Y1589D02*
X391Y1589D01*
X1489Y1589D02*
X1555Y1589D01*
X326Y1588D02*
X390Y1588D01*
X1489Y1588D02*
X1554Y1588D01*
X327Y1587D02*
X389Y1587D01*
X1490Y1587D02*
X1553Y1587D01*
X328Y1586D02*
X388Y1586D01*
X1491Y1586D02*
X1552Y1586D01*
X329Y1585D02*
X387Y1585D01*
X1492Y1585D02*
X1551Y1585D01*
X330Y1584D02*
X386Y1584D01*
X1493Y1584D02*
X1550Y1584D01*
X331Y1583D02*
X385Y1583D01*
X1494Y1583D02*
X1549Y1583D01*
X332Y1582D02*
X384Y1582D01*
X1495Y1582D02*
X1548Y1582D01*
X334Y1581D02*
X383Y1581D01*
X1497Y1581D02*
X1547Y1581D01*
X335Y1580D02*
X381Y1580D01*
X1498Y1580D02*
X1545Y1580D01*
X337Y1579D02*
X380Y1579D01*
X1499Y1579D02*
X1544Y1579D01*
X338Y1578D02*
X378Y1578D01*
X1501Y1578D02*
X1542Y1578D01*
X340Y1577D02*
X376Y1577D01*
X1503Y1577D02*
X1540Y1577D01*
X342Y1576D02*
X374Y1576D01*
X1505Y1576D02*
X1538Y1576D01*
X345Y1575D02*
X371Y1575D01*
X1507Y1575D02*
X1536Y1575D01*
X349Y1574D02*
X368Y1574D01*
X1510Y1574D02*
X1533Y1574D01*
X354Y1573D02*
X362Y1573D01*
X1515Y1573D02*
X1528Y1573D01*
X352Y1556D02*
X364Y1556D01*
X1518Y1556D02*
X1525Y1556D01*
X347Y1555D02*
X369Y1555D01*
X1512Y1555D02*
X1531Y1555D01*
X344Y1554D02*
X372Y1554D01*
X1509Y1554D02*
X1534Y1554D01*
X342Y1553D02*
X375Y1553D01*
X1506Y1553D02*
X1537Y1553D01*
X340Y1552D02*
X377Y1552D01*
X1504Y1552D02*
X1539Y1552D01*
X338Y1551D02*
X379Y1551D01*
X1502Y1551D02*
X1541Y1551D01*
X336Y1550D02*
X380Y1550D01*
X1500Y1550D02*
X1543Y1550D01*
X335Y1549D02*
X382Y1549D01*
X1499Y1549D02*
X1544Y1549D01*
X333Y1548D02*
X383Y1548D01*
X1497Y1548D02*
X1546Y1548D01*
X332Y1547D02*
X384Y1547D01*
X1496Y1547D02*
X1547Y1547D01*
X331Y1546D02*
X385Y1546D01*
X1495Y1546D02*
X1548Y1546D01*
X330Y1545D02*
X387Y1545D01*
X1494Y1545D02*
X1550Y1545D01*
X329Y1544D02*
X388Y1544D01*
X1492Y1544D02*
X1551Y1544D01*
X328Y1543D02*
X389Y1543D01*
X1491Y1543D02*
X1552Y1543D01*
X327Y1542D02*
X389Y1542D01*
X1491Y1542D02*
X1552Y1542D01*
X326Y1541D02*
X390Y1541D01*
X1490Y1541D02*
X1553Y1541D01*
X325Y1540D02*
X391Y1540D01*
X1489Y1540D02*
X1554Y1540D01*
X324Y1539D02*
X392Y1539D01*
X1488Y1539D02*
X1555Y1539D01*
X324Y1538D02*
X392Y1538D01*
X1487Y1538D02*
X1556Y1538D01*
X323Y1537D02*
X393Y1537D01*
X1487Y1537D02*
X1556Y1537D01*
X323Y1536D02*
X394Y1536D01*
X1486Y1536D02*
X1557Y1536D01*
X322Y1535D02*
X394Y1535D01*
X1486Y1535D02*
X1557Y1535D01*
X321Y1534D02*
X395Y1534D01*
X1485Y1534D02*
X1558Y1534D01*
X321Y1533D02*
X395Y1533D01*
X1485Y1533D02*
X1559Y1533D01*
X320Y1532D02*
X396Y1532D01*
X1484Y1532D02*
X1559Y1532D01*
X320Y1531D02*
X396Y1531D01*
X1484Y1531D02*
X1560Y1531D01*
X320Y1530D02*
X397Y1530D01*
X1483Y1530D02*
X1560Y1530D01*
X319Y1529D02*
X397Y1529D01*
X1483Y1529D02*
X1560Y1529D01*
X319Y1528D02*
X397Y1528D01*
X1482Y1528D02*
X1561Y1528D01*
X319Y1527D02*
X398Y1527D01*
X1482Y1527D02*
X1561Y1527D01*
X318Y1526D02*
X398Y1526D01*
X1482Y1526D02*
X1561Y1526D01*
X318Y1525D02*
X398Y1525D01*
X1482Y1525D02*
X1562Y1525D01*
X318Y1524D02*
X399Y1524D01*
X1481Y1524D02*
X1562Y1524D01*
X318Y1523D02*
X399Y1523D01*
X1481Y1523D02*
X1562Y1523D01*
X317Y1522D02*
X399Y1522D01*
X1481Y1522D02*
X1562Y1522D01*
X317Y1521D02*
X399Y1521D01*
X1481Y1521D02*
X1562Y1521D01*
X317Y1520D02*
X399Y1520D01*
X1480Y1520D02*
X1563Y1520D01*
X317Y1519D02*
X399Y1519D01*
X1480Y1519D02*
X1563Y1519D01*
X317Y1518D02*
X399Y1518D01*
X1480Y1518D02*
X1563Y1518D01*
X317Y1517D02*
X400Y1517D01*
X1480Y1517D02*
X1563Y1517D01*
X317Y1516D02*
X400Y1516D01*
X1480Y1516D02*
X1563Y1516D01*
X317Y1515D02*
X400Y1515D01*
X1480Y1515D02*
X1563Y1515D01*
X317Y1514D02*
X400Y1514D01*
X1480Y1514D02*
X1563Y1514D01*
X317Y1513D02*
X400Y1513D01*
X1480Y1513D02*
X1563Y1513D01*
X317Y1512D02*
X400Y1512D01*
X1480Y1512D02*
X1563Y1512D01*
X317Y1511D02*
X399Y1511D01*
X1480Y1511D02*
X1563Y1511D01*
X317Y1510D02*
X399Y1510D01*
X1480Y1510D02*
X1563Y1510D01*
X317Y1509D02*
X399Y1509D01*
X1480Y1509D02*
X1563Y1509D01*
X317Y1508D02*
X399Y1508D01*
X1481Y1508D02*
X1563Y1508D01*
X317Y1507D02*
X399Y1507D01*
X1481Y1507D02*
X1562Y1507D01*
X318Y1506D02*
X399Y1506D01*
X1481Y1506D02*
X1562Y1506D01*
X318Y1505D02*
X398Y1505D01*
X1481Y1505D02*
X1562Y1505D01*
X318Y1504D02*
X398Y1504D01*
X1481Y1504D02*
X1562Y1504D01*
X318Y1503D02*
X398Y1503D01*
X1482Y1503D02*
X1561Y1503D01*
X319Y1502D02*
X398Y1502D01*
X1482Y1502D02*
X1561Y1502D01*
X319Y1501D02*
X397Y1501D01*
X1482Y1501D02*
X1561Y1501D01*
X319Y1500D02*
X397Y1500D01*
X1483Y1500D02*
X1561Y1500D01*
X320Y1499D02*
X397Y1499D01*
X1483Y1499D02*
X1560Y1499D01*
X320Y1498D02*
X396Y1498D01*
X1483Y1498D02*
X1560Y1498D01*
X320Y1497D02*
X396Y1497D01*
X1484Y1497D02*
X1559Y1497D01*
X321Y1496D02*
X395Y1496D01*
X1484Y1496D02*
X1559Y1496D01*
X321Y1495D02*
X395Y1495D01*
X1485Y1495D02*
X1558Y1495D01*
X322Y1494D02*
X394Y1494D01*
X1485Y1494D02*
X1558Y1494D01*
X323Y1493D02*
X394Y1493D01*
X1486Y1493D02*
X1557Y1493D01*
X323Y1492D02*
X393Y1492D01*
X1486Y1492D02*
X1557Y1492D01*
X324Y1491D02*
X392Y1491D01*
X1487Y1491D02*
X1556Y1491D01*
X325Y1490D02*
X392Y1490D01*
X1488Y1490D02*
X1555Y1490D01*
X325Y1489D02*
X391Y1489D01*
X1488Y1489D02*
X1555Y1489D01*
X326Y1488D02*
X390Y1488D01*
X1489Y1488D02*
X1554Y1488D01*
X327Y1487D02*
X389Y1487D01*
X1490Y1487D02*
X1553Y1487D01*
X328Y1486D02*
X388Y1486D01*
X1491Y1486D02*
X1552Y1486D01*
X329Y1485D02*
X387Y1485D01*
X1492Y1485D02*
X1551Y1485D01*
X330Y1484D02*
X386Y1484D01*
X1493Y1484D02*
X1550Y1484D01*
X331Y1483D02*
X385Y1483D01*
X1494Y1483D02*
X1549Y1483D01*
X332Y1482D02*
X384Y1482D01*
X1495Y1482D02*
X1548Y1482D01*
X334Y1481D02*
X383Y1481D01*
X1496Y1481D02*
X1547Y1481D01*
X335Y1480D02*
X381Y1480D01*
X1498Y1480D02*
X1545Y1480D01*
X336Y1479D02*
X380Y1479D01*
X1499Y1479D02*
X1544Y1479D01*
X338Y1478D02*
X378Y1478D01*
X1501Y1478D02*
X1542Y1478D01*
X340Y1477D02*
X376Y1477D01*
X1502Y1477D02*
X1541Y1477D01*
X342Y1476D02*
X374Y1476D01*
X1505Y1476D02*
X1539Y1476D01*
X345Y1475D02*
X372Y1475D01*
X1507Y1475D02*
X1536Y1475D01*
X348Y1474D02*
X368Y1474D01*
X1510Y1474D02*
X1533Y1474D01*
X353Y1473D02*
X363Y1473D01*
X1514Y1473D02*
X1529Y1473D01*
X353Y1456D02*
X364Y1456D01*
X1520Y1456D02*
X1523Y1456D01*
X348Y1455D02*
X369Y1455D01*
X1513Y1455D02*
X1530Y1455D01*
X344Y1454D02*
X372Y1454D01*
X1509Y1454D02*
X1534Y1454D01*
X342Y1453D02*
X374Y1453D01*
X1506Y1453D02*
X1537Y1453D01*
X340Y1452D02*
X377Y1452D01*
X1504Y1452D02*
X1539Y1452D01*
X338Y1451D02*
X378Y1451D01*
X1502Y1451D02*
X1541Y1451D01*
X336Y1450D02*
X380Y1450D01*
X1500Y1450D02*
X1543Y1450D01*
X335Y1449D02*
X381Y1449D01*
X1499Y1449D02*
X1544Y1449D01*
X333Y1448D02*
X383Y1448D01*
X1497Y1448D02*
X1546Y1448D01*
X332Y1447D02*
X384Y1447D01*
X1496Y1447D02*
X1547Y1447D01*
X331Y1446D02*
X385Y1446D01*
X1495Y1446D02*
X1548Y1446D01*
X330Y1445D02*
X386Y1445D01*
X1494Y1445D02*
X1549Y1445D01*
X329Y1444D02*
X388Y1444D01*
X1493Y1444D02*
X1551Y1444D01*
X328Y1443D02*
X388Y1443D01*
X1492Y1443D02*
X1551Y1443D01*
X327Y1442D02*
X389Y1442D01*
X1491Y1442D02*
X1552Y1442D01*
X326Y1441D02*
X390Y1441D01*
X1490Y1441D02*
X1553Y1441D01*
X325Y1440D02*
X391Y1440D01*
X1489Y1440D02*
X1554Y1440D01*
X325Y1439D02*
X392Y1439D01*
X1488Y1439D02*
X1555Y1439D01*
X324Y1438D02*
X392Y1438D01*
X1488Y1438D02*
X1555Y1438D01*
X323Y1437D02*
X393Y1437D01*
X1487Y1437D02*
X1556Y1437D01*
X323Y1436D02*
X394Y1436D01*
X1486Y1436D02*
X1557Y1436D01*
X322Y1435D02*
X394Y1435D01*
X1486Y1435D02*
X1557Y1435D01*
X321Y1434D02*
X395Y1434D01*
X1485Y1434D02*
X1558Y1434D01*
X321Y1433D02*
X395Y1433D01*
X1485Y1433D02*
X1559Y1433D01*
X320Y1432D02*
X396Y1432D01*
X1484Y1432D02*
X1559Y1432D01*
X320Y1431D02*
X396Y1431D01*
X1484Y1431D02*
X1559Y1431D01*
X320Y1430D02*
X397Y1430D01*
X1483Y1430D02*
X1560Y1430D01*
X319Y1429D02*
X397Y1429D01*
X1483Y1429D02*
X1560Y1429D01*
X319Y1428D02*
X397Y1428D01*
X1482Y1428D02*
X1561Y1428D01*
X319Y1427D02*
X398Y1427D01*
X1482Y1427D02*
X1561Y1427D01*
X318Y1426D02*
X398Y1426D01*
X1482Y1426D02*
X1561Y1426D01*
X318Y1425D02*
X398Y1425D01*
X1482Y1425D02*
X1562Y1425D01*
X318Y1424D02*
X398Y1424D01*
X1481Y1424D02*
X1562Y1424D01*
X318Y1423D02*
X399Y1423D01*
X1481Y1423D02*
X1562Y1423D01*
X317Y1422D02*
X399Y1422D01*
X1481Y1422D02*
X1562Y1422D01*
X317Y1421D02*
X399Y1421D01*
X1481Y1421D02*
X1562Y1421D01*
X317Y1420D02*
X399Y1420D01*
X1481Y1420D02*
X1563Y1420D01*
X317Y1419D02*
X399Y1419D01*
X1480Y1419D02*
X1563Y1419D01*
X317Y1418D02*
X399Y1418D01*
X1480Y1418D02*
X1563Y1418D01*
X317Y1417D02*
X400Y1417D01*
X1480Y1417D02*
X1563Y1417D01*
X317Y1416D02*
X400Y1416D01*
X1480Y1416D02*
X1563Y1416D01*
X317Y1415D02*
X400Y1415D01*
X1480Y1415D02*
X1563Y1415D01*
X317Y1414D02*
X400Y1414D01*
X1480Y1414D02*
X1563Y1414D01*
X317Y1413D02*
X400Y1413D01*
X1480Y1413D02*
X1563Y1413D01*
X317Y1412D02*
X400Y1412D01*
X1480Y1412D02*
X1563Y1412D01*
X317Y1411D02*
X399Y1411D01*
X1480Y1411D02*
X1563Y1411D01*
X317Y1410D02*
X399Y1410D01*
X1480Y1410D02*
X1563Y1410D01*
X317Y1409D02*
X399Y1409D01*
X1480Y1409D02*
X1563Y1409D01*
X317Y1408D02*
X399Y1408D01*
X1481Y1408D02*
X1563Y1408D01*
X317Y1407D02*
X399Y1407D01*
X1481Y1407D02*
X1562Y1407D01*
X318Y1406D02*
X399Y1406D01*
X1481Y1406D02*
X1562Y1406D01*
X318Y1405D02*
X398Y1405D01*
X1481Y1405D02*
X1562Y1405D01*
X318Y1404D02*
X398Y1404D01*
X1481Y1404D02*
X1562Y1404D01*
X318Y1403D02*
X398Y1403D01*
X1482Y1403D02*
X1562Y1403D01*
X319Y1402D02*
X398Y1402D01*
X1482Y1402D02*
X1561Y1402D01*
X319Y1401D02*
X397Y1401D01*
X1482Y1401D02*
X1561Y1401D01*
X319Y1400D02*
X397Y1400D01*
X1482Y1400D02*
X1561Y1400D01*
X320Y1399D02*
X397Y1399D01*
X1483Y1399D02*
X1560Y1399D01*
X320Y1398D02*
X396Y1398D01*
X1483Y1398D02*
X1560Y1398D01*
X320Y1397D02*
X396Y1397D01*
X1484Y1397D02*
X1559Y1397D01*
X321Y1396D02*
X395Y1396D01*
X1484Y1396D02*
X1559Y1396D01*
X321Y1395D02*
X395Y1395D01*
X1485Y1395D02*
X1558Y1395D01*
X322Y1394D02*
X394Y1394D01*
X1485Y1394D02*
X1558Y1394D01*
X323Y1393D02*
X394Y1393D01*
X1486Y1393D02*
X1557Y1393D01*
X323Y1392D02*
X393Y1392D01*
X1486Y1392D02*
X1557Y1392D01*
X324Y1391D02*
X392Y1391D01*
X1487Y1391D02*
X1556Y1391D01*
X325Y1390D02*
X392Y1390D01*
X1488Y1390D02*
X1555Y1390D01*
X325Y1389D02*
X391Y1389D01*
X1488Y1389D02*
X1555Y1389D01*
X326Y1388D02*
X390Y1388D01*
X1489Y1388D02*
X1554Y1388D01*
X327Y1387D02*
X389Y1387D01*
X1490Y1387D02*
X1553Y1387D01*
X328Y1386D02*
X388Y1386D01*
X1491Y1386D02*
X1552Y1386D01*
X329Y1385D02*
X388Y1385D01*
X1492Y1385D02*
X1551Y1385D01*
X330Y1384D02*
X387Y1384D01*
X1493Y1384D02*
X1550Y1384D01*
X331Y1383D02*
X385Y1383D01*
X1494Y1383D02*
X1549Y1383D01*
X332Y1382D02*
X384Y1382D01*
X1495Y1382D02*
X1548Y1382D01*
X333Y1381D02*
X383Y1381D01*
X1496Y1381D02*
X1547Y1381D01*
X335Y1380D02*
X382Y1380D01*
X1498Y1380D02*
X1546Y1380D01*
X336Y1379D02*
X380Y1379D01*
X1499Y1379D02*
X1544Y1379D01*
X338Y1378D02*
X378Y1378D01*
X1501Y1378D02*
X1542Y1378D01*
X340Y1377D02*
X377Y1377D01*
X1502Y1377D02*
X1541Y1377D01*
X342Y1376D02*
X374Y1376D01*
X1504Y1376D02*
X1539Y1376D01*
X344Y1375D02*
X372Y1375D01*
X1507Y1375D02*
X1536Y1375D01*
X348Y1374D02*
X369Y1374D01*
X1509Y1374D02*
X1534Y1374D01*
X353Y1373D02*
X364Y1373D01*
X1513Y1373D02*
X1530Y1373D01*
X353Y1356D02*
X363Y1356D01*
X348Y1355D02*
X368Y1355D01*
X1513Y1355D02*
X1530Y1355D01*
X345Y1354D02*
X372Y1354D01*
X1509Y1354D02*
X1534Y1354D01*
X342Y1353D02*
X374Y1353D01*
X1507Y1353D02*
X1536Y1353D01*
X340Y1352D02*
X376Y1352D01*
X1504Y1352D02*
X1539Y1352D01*
X338Y1351D02*
X378Y1351D01*
X1502Y1351D02*
X1541Y1351D01*
X336Y1350D02*
X380Y1350D01*
X1501Y1350D02*
X1542Y1350D01*
X335Y1349D02*
X381Y1349D01*
X1499Y1349D02*
X1544Y1349D01*
X334Y1348D02*
X383Y1348D01*
X1498Y1348D02*
X1546Y1348D01*
X332Y1347D02*
X384Y1347D01*
X1496Y1347D02*
X1547Y1347D01*
X331Y1346D02*
X385Y1346D01*
X1495Y1346D02*
X1548Y1346D01*
X330Y1345D02*
X386Y1345D01*
X1494Y1345D02*
X1549Y1345D01*
X329Y1344D02*
X387Y1344D01*
X1493Y1344D02*
X1550Y1344D01*
X328Y1343D02*
X388Y1343D01*
X1492Y1343D02*
X1551Y1343D01*
X327Y1342D02*
X389Y1342D01*
X1491Y1342D02*
X1552Y1342D01*
X326Y1341D02*
X390Y1341D01*
X1490Y1341D02*
X1553Y1341D01*
X325Y1340D02*
X391Y1340D01*
X1489Y1340D02*
X1554Y1340D01*
X325Y1339D02*
X392Y1339D01*
X1488Y1339D02*
X1555Y1339D01*
X324Y1338D02*
X392Y1338D01*
X1488Y1338D02*
X1555Y1338D01*
X323Y1337D02*
X393Y1337D01*
X1487Y1337D02*
X1556Y1337D01*
X323Y1336D02*
X394Y1336D01*
X1486Y1336D02*
X1557Y1336D01*
X322Y1335D02*
X394Y1335D01*
X1486Y1335D02*
X1557Y1335D01*
X321Y1334D02*
X395Y1334D01*
X1485Y1334D02*
X1558Y1334D01*
X321Y1333D02*
X395Y1333D01*
X1485Y1333D02*
X1558Y1333D01*
X321Y1332D02*
X396Y1332D01*
X1484Y1332D02*
X1559Y1332D01*
X320Y1331D02*
X396Y1331D01*
X1484Y1331D02*
X1559Y1331D01*
X320Y1330D02*
X397Y1330D01*
X1483Y1330D02*
X1560Y1330D01*
X319Y1329D02*
X397Y1329D01*
X1483Y1329D02*
X1560Y1329D01*
X319Y1328D02*
X397Y1328D01*
X1482Y1328D02*
X1561Y1328D01*
X319Y1327D02*
X398Y1327D01*
X1482Y1327D02*
X1561Y1327D01*
X318Y1326D02*
X398Y1326D01*
X1482Y1326D02*
X1561Y1326D01*
X318Y1325D02*
X398Y1325D01*
X1482Y1325D02*
X1562Y1325D01*
X318Y1324D02*
X398Y1324D01*
X1481Y1324D02*
X1562Y1324D01*
X318Y1323D02*
X399Y1323D01*
X1481Y1323D02*
X1562Y1323D01*
X317Y1322D02*
X399Y1322D01*
X1481Y1322D02*
X1562Y1322D01*
X317Y1321D02*
X399Y1321D01*
X1481Y1321D02*
X1562Y1321D01*
X317Y1320D02*
X399Y1320D01*
X1481Y1320D02*
X1563Y1320D01*
X317Y1319D02*
X399Y1319D01*
X1480Y1319D02*
X1563Y1319D01*
X317Y1318D02*
X399Y1318D01*
X1480Y1318D02*
X1563Y1318D01*
X317Y1317D02*
X400Y1317D01*
X1480Y1317D02*
X1563Y1317D01*
X317Y1316D02*
X400Y1316D01*
X1480Y1316D02*
X1563Y1316D01*
X317Y1315D02*
X400Y1315D01*
X1480Y1315D02*
X1563Y1315D01*
X317Y1314D02*
X400Y1314D01*
X1480Y1314D02*
X1563Y1314D01*
X317Y1313D02*
X400Y1313D01*
X1480Y1313D02*
X1563Y1313D01*
X317Y1312D02*
X400Y1312D01*
X1480Y1312D02*
X1563Y1312D01*
X317Y1311D02*
X399Y1311D01*
X1480Y1311D02*
X1563Y1311D01*
X317Y1310D02*
X399Y1310D01*
X1480Y1310D02*
X1563Y1310D01*
X317Y1309D02*
X399Y1309D01*
X1480Y1309D02*
X1563Y1309D01*
X317Y1308D02*
X399Y1308D01*
X1481Y1308D02*
X1563Y1308D01*
X317Y1307D02*
X399Y1307D01*
X1481Y1307D02*
X1562Y1307D01*
X318Y1306D02*
X399Y1306D01*
X1481Y1306D02*
X1562Y1306D01*
X318Y1305D02*
X399Y1305D01*
X1481Y1305D02*
X1562Y1305D01*
X318Y1304D02*
X398Y1304D01*
X1481Y1304D02*
X1562Y1304D01*
X318Y1303D02*
X398Y1303D01*
X1482Y1303D02*
X1562Y1303D01*
X318Y1302D02*
X398Y1302D01*
X1482Y1302D02*
X1561Y1302D01*
X319Y1301D02*
X397Y1301D01*
X1482Y1301D02*
X1561Y1301D01*
X319Y1300D02*
X397Y1300D01*
X1482Y1300D02*
X1561Y1300D01*
X320Y1299D02*
X397Y1299D01*
X1483Y1299D02*
X1560Y1299D01*
X320Y1298D02*
X396Y1298D01*
X1483Y1298D02*
X1560Y1298D01*
X320Y1297D02*
X396Y1297D01*
X1484Y1297D02*
X1559Y1297D01*
X321Y1296D02*
X395Y1296D01*
X1484Y1296D02*
X1559Y1296D01*
X321Y1295D02*
X395Y1295D01*
X1485Y1295D02*
X1559Y1295D01*
X322Y1294D02*
X394Y1294D01*
X1485Y1294D02*
X1558Y1294D01*
X323Y1293D02*
X394Y1293D01*
X1486Y1293D02*
X1557Y1293D01*
X323Y1292D02*
X393Y1292D01*
X1486Y1292D02*
X1557Y1292D01*
X324Y1291D02*
X392Y1291D01*
X1487Y1291D02*
X1556Y1291D01*
X324Y1290D02*
X392Y1290D01*
X1488Y1290D02*
X1555Y1290D01*
X325Y1289D02*
X391Y1289D01*
X1488Y1289D02*
X1555Y1289D01*
X326Y1288D02*
X390Y1288D01*
X1489Y1288D02*
X1554Y1288D01*
X327Y1287D02*
X389Y1287D01*
X1490Y1287D02*
X1553Y1287D01*
X328Y1286D02*
X389Y1286D01*
X1491Y1286D02*
X1552Y1286D01*
X329Y1285D02*
X388Y1285D01*
X1492Y1285D02*
X1551Y1285D01*
X330Y1284D02*
X387Y1284D01*
X1493Y1284D02*
X1551Y1284D01*
X331Y1283D02*
X386Y1283D01*
X1494Y1283D02*
X1549Y1283D01*
X332Y1282D02*
X384Y1282D01*
X1495Y1282D02*
X1548Y1282D01*
X333Y1281D02*
X383Y1281D01*
X1496Y1281D02*
X1547Y1281D01*
X335Y1280D02*
X382Y1280D01*
X1497Y1280D02*
X1546Y1280D01*
X336Y1279D02*
X380Y1279D01*
X1499Y1279D02*
X1544Y1279D01*
X338Y1278D02*
X379Y1278D01*
X1500Y1278D02*
X1543Y1278D01*
X340Y1277D02*
X377Y1277D01*
X1502Y1277D02*
X1541Y1277D01*
X342Y1276D02*
X375Y1276D01*
X1504Y1276D02*
X1539Y1276D01*
X344Y1275D02*
X372Y1275D01*
X1506Y1275D02*
X1537Y1275D01*
X347Y1274D02*
X369Y1274D01*
X1509Y1274D02*
X1534Y1274D01*
X352Y1273D02*
X364Y1273D01*
X1513Y1273D02*
X1530Y1273D01*
X1520Y1272D02*
X1523Y1272D01*
D02*
G04 End of Mask0*
M02*