G04 MADE WITH FRITZING*
G04 WWW.FRITZING.ORG*
G04 DOUBLE SIDED*
G04 HOLES PLATED*
G04 CONTOUR ON CENTER OF CONTOUR VECTOR*
%ASAXBY*%
%FSLAX23Y23*%
%MOIN*%
%OFA0B0*%
%SFA1.0B1.0*%
%ADD10C,0.078000*%
%ADD11C,0.065972*%
%ADD12C,0.074106*%
%ADD13C,0.078861*%
%ADD14C,0.064972*%
%ADD15C,0.078833*%
%ADD16C,0.138425*%
%ADD17C,0.070000*%
%ADD18C,0.073889*%
%ADD19R,0.078000X0.078000*%
%ADD20C,0.012000*%
%ADD21C,0.024000*%
%ADD22C,0.008000*%
%ADD23R,0.001000X0.001000*%
%LNCOPPER0*%
G90*
G70*
G54D10*
X2322Y563D03*
X2322Y663D03*
X2322Y763D03*
X2322Y863D03*
X2322Y963D03*
X2322Y1063D03*
X2322Y1163D03*
X2322Y1263D03*
X2322Y1363D03*
X2322Y1463D03*
X2322Y1563D03*
X2322Y1663D03*
X2322Y1763D03*
X2322Y1863D03*
X2322Y1963D03*
X2322Y2063D03*
X2322Y2163D03*
X2222Y2163D03*
X2222Y2063D03*
X2222Y1963D03*
X2222Y1863D03*
X2222Y1763D03*
X2222Y1663D03*
X2222Y1563D03*
X2222Y1463D03*
X2222Y1363D03*
X2222Y1263D03*
X2222Y1163D03*
X2222Y1063D03*
X2222Y963D03*
X2222Y863D03*
X2222Y763D03*
X2222Y663D03*
X2222Y563D03*
X3522Y663D03*
X3522Y763D03*
X3522Y863D03*
X3522Y963D03*
X3522Y1063D03*
X3522Y1163D03*
X3522Y1263D03*
X3522Y1363D03*
X3522Y1463D03*
X3522Y1563D03*
X3522Y1663D03*
X3522Y1763D03*
X3522Y1863D03*
X3522Y1963D03*
X3522Y2063D03*
X3522Y2163D03*
X3422Y2163D03*
X3422Y2063D03*
X3422Y1963D03*
X3422Y1863D03*
X3422Y1763D03*
X3422Y1663D03*
X3422Y1563D03*
X3422Y1463D03*
X3422Y1363D03*
X3422Y1263D03*
X3422Y1163D03*
X3422Y1063D03*
X3422Y963D03*
X3422Y863D03*
X3422Y763D03*
X3422Y663D03*
X3522Y163D03*
X3522Y263D03*
X3522Y363D03*
X3522Y463D03*
X3422Y463D03*
X3422Y363D03*
X3422Y263D03*
X3422Y163D03*
X2422Y2063D03*
X2167Y2063D03*
X2167Y2073D03*
X2167Y2063D03*
X2167Y2073D03*
X2167Y2063D03*
X2167Y2073D03*
X2167Y2163D03*
X2167Y2173D03*
X2167Y2163D03*
X2167Y2173D03*
X2167Y2163D03*
X2167Y2173D03*
X2422Y2163D03*
X2222Y163D03*
X2322Y163D03*
X2322Y263D03*
X2322Y363D03*
X2222Y363D03*
X2222Y263D03*
G54D11*
X1672Y2763D03*
X1672Y2663D03*
X1672Y2563D03*
X1672Y2463D03*
X1672Y2363D03*
X1672Y2263D03*
G54D12*
X359Y1614D03*
X359Y1514D03*
X359Y1413D03*
X359Y1313D03*
X1522Y1713D03*
X1522Y1613D03*
X1522Y1513D03*
X1522Y1413D03*
X1522Y1313D03*
G54D13*
X222Y313D03*
G54D14*
X222Y413D03*
G54D13*
X222Y513D03*
X222Y613D03*
X222Y713D03*
X222Y813D03*
G54D15*
X1612Y429D03*
X1612Y529D03*
X1612Y629D03*
X1612Y729D03*
G54D16*
X4422Y163D03*
G54D17*
X3922Y813D03*
X3922Y713D03*
X3922Y613D03*
X3922Y513D03*
X3922Y413D03*
X3922Y313D03*
X3922Y213D03*
X3922Y113D03*
G54D16*
X4422Y763D03*
G54D10*
X122Y1513D03*
X122Y1613D03*
G54D18*
X4772Y513D03*
X4772Y413D03*
X4772Y313D03*
X4772Y213D03*
X5415Y713D03*
X5415Y813D03*
X5415Y913D03*
X5415Y1013D03*
X3072Y2663D03*
X3172Y2663D03*
X3272Y2663D03*
X3372Y2663D03*
G54D10*
X122Y1813D03*
X122Y1913D03*
X122Y1163D03*
X122Y1263D03*
X1672Y1103D03*
X1672Y1003D03*
G54D18*
X5142Y163D03*
X5242Y163D03*
X5342Y163D03*
X5442Y163D03*
G54D19*
X122Y1513D03*
X122Y1813D03*
X122Y1163D03*
X1672Y1103D03*
G54D20*
X3272Y1213D02*
X3522Y1213D01*
D02*
X3522Y1213D02*
X3522Y1239D01*
D02*
X2122Y1213D02*
X3272Y1213D01*
D02*
X2122Y1612D02*
X2122Y1213D01*
D02*
X1545Y1613D02*
X2122Y1612D01*
G54D21*
D02*
X330Y1514D02*
X152Y1513D01*
D02*
X330Y1614D02*
X152Y1613D01*
G54D20*
D02*
X1522Y534D02*
X1522Y465D01*
D02*
X1523Y64D02*
X4072Y64D01*
D02*
X1522Y465D02*
X1523Y64D01*
D02*
X4072Y64D02*
X4072Y512D01*
D02*
X4072Y512D02*
X3948Y513D01*
D02*
X1581Y531D02*
X1522Y534D01*
D02*
X1872Y724D02*
X1874Y615D01*
D02*
X1874Y615D02*
X2523Y615D01*
D02*
X2523Y264D02*
X3398Y263D01*
D02*
X2523Y615D02*
X2523Y264D01*
D02*
X1643Y729D02*
X1872Y724D01*
D02*
X3021Y364D02*
X3398Y363D01*
D02*
X2571Y364D02*
X3021Y364D01*
D02*
X2571Y663D02*
X2571Y364D01*
D02*
X2523Y663D02*
X2571Y663D01*
D02*
X2523Y814D02*
X2523Y663D01*
D02*
X1874Y814D02*
X2523Y814D01*
D02*
X1383Y814D02*
X1874Y814D01*
D02*
X1371Y634D02*
X1383Y814D01*
D02*
X1581Y630D02*
X1371Y634D01*
D02*
X4773Y913D02*
X4773Y714D01*
D02*
X4072Y913D02*
X4773Y913D01*
D02*
X4072Y965D02*
X4072Y913D01*
D02*
X3721Y965D02*
X4072Y965D01*
D02*
X3721Y563D02*
X3721Y965D01*
D02*
X3021Y563D02*
X3721Y563D01*
D02*
X4773Y714D02*
X4772Y542D01*
D02*
X3021Y364D02*
X3021Y563D01*
G54D21*
D02*
X4223Y213D02*
X4223Y714D01*
D02*
X4223Y714D02*
X4124Y714D01*
D02*
X4124Y714D02*
X3953Y714D01*
D02*
X4738Y213D02*
X4223Y213D01*
G54D20*
D02*
X4821Y413D02*
X4821Y962D01*
D02*
X4821Y962D02*
X4122Y962D01*
D02*
X4122Y962D02*
X4122Y1013D01*
D02*
X4122Y1013D02*
X3671Y1013D01*
D02*
X3671Y1013D02*
X3671Y1712D01*
D02*
X3671Y1712D02*
X3422Y1712D01*
D02*
X3422Y1712D02*
X3422Y1739D01*
D02*
X4801Y413D02*
X4821Y413D01*
D02*
X5524Y915D02*
X5524Y2812D01*
D02*
X5524Y2812D02*
X3171Y2812D01*
D02*
X3171Y2812D02*
X3172Y2692D01*
D02*
X5401Y914D02*
X5524Y915D01*
D02*
X3522Y1313D02*
X2973Y1314D01*
D02*
X3522Y1339D02*
X3522Y1313D01*
D02*
X3270Y2361D02*
X3272Y2635D01*
D02*
X2973Y2361D02*
X3270Y2361D01*
D02*
X2973Y1314D02*
X2973Y2361D01*
D02*
X3323Y1363D02*
X3321Y1966D01*
D02*
X3373Y2515D02*
X3372Y2635D01*
D02*
X3322Y2515D02*
X3373Y2515D01*
D02*
X3322Y1966D02*
X3322Y2515D01*
D02*
X3398Y1363D02*
X3323Y1363D01*
G54D22*
D02*
X351Y1143D02*
X351Y584D01*
D02*
X263Y1143D02*
X351Y1143D01*
D02*
X351Y584D02*
X642Y583D01*
D02*
X263Y1264D02*
X263Y1143D01*
D02*
X1872Y583D02*
X1870Y213D01*
D02*
X1870Y213D02*
X2522Y213D01*
D02*
X2522Y213D02*
X2523Y163D01*
D02*
X2523Y163D02*
X3398Y163D01*
D02*
X642Y583D02*
X1872Y583D01*
D02*
X147Y1263D02*
X263Y1264D01*
G54D21*
D02*
X32Y2273D02*
X33Y1162D01*
D02*
X33Y1162D02*
X92Y1163D01*
D02*
X1646Y2264D02*
X32Y2273D01*
G54D20*
D02*
X2933Y1264D02*
X2933Y2364D01*
D02*
X2042Y2364D02*
X2042Y1984D01*
D02*
X2042Y1984D02*
X1433Y1984D01*
D02*
X2933Y2364D02*
X2042Y2364D01*
D02*
X3322Y1263D02*
X2933Y1264D01*
D02*
X1433Y1984D02*
X1433Y1512D01*
D02*
X3398Y1263D02*
X3322Y1263D01*
D02*
X1433Y1512D02*
X1499Y1513D01*
D02*
X2873Y714D02*
X3519Y713D01*
D02*
X2873Y994D02*
X2873Y714D01*
D02*
X3519Y713D02*
X3521Y688D01*
D02*
X1697Y1003D02*
X2873Y994D01*
G54D21*
D02*
X5522Y914D02*
X5406Y914D01*
D02*
X4913Y652D02*
X5521Y652D01*
D02*
X5521Y652D02*
X5522Y914D01*
D02*
X4913Y215D02*
X4913Y652D01*
D02*
X4806Y214D02*
X4913Y215D01*
G54D23*
X1671Y2797D02*
X1672Y2797D01*
X1664Y2796D02*
X1679Y2796D01*
X1661Y2795D02*
X1682Y2795D01*
X1659Y2794D02*
X1684Y2794D01*
X1656Y2793D02*
X1687Y2793D01*
X1655Y2792D02*
X1688Y2792D01*
X1653Y2791D02*
X1690Y2791D01*
X1652Y2790D02*
X1691Y2790D01*
X1650Y2789D02*
X1693Y2789D01*
X1649Y2788D02*
X1694Y2788D01*
X1648Y2787D02*
X1695Y2787D01*
X1647Y2786D02*
X1696Y2786D01*
X1647Y2785D02*
X1696Y2785D01*
X1646Y2784D02*
X1697Y2784D01*
X1645Y2783D02*
X1698Y2783D01*
X1644Y2782D02*
X1699Y2782D01*
X1644Y2781D02*
X1699Y2781D01*
X1643Y2780D02*
X1700Y2780D01*
X1643Y2779D02*
X1666Y2779D01*
X1677Y2779D02*
X1700Y2779D01*
X1642Y2778D02*
X1664Y2778D01*
X1679Y2778D02*
X1701Y2778D01*
X1642Y2777D02*
X1662Y2777D01*
X1681Y2777D02*
X1701Y2777D01*
X1641Y2776D02*
X1661Y2776D01*
X1682Y2776D02*
X1702Y2776D01*
X1641Y2775D02*
X1660Y2775D01*
X1683Y2775D02*
X1702Y2775D01*
X1641Y2774D02*
X1659Y2774D01*
X1684Y2774D02*
X1702Y2774D01*
X1640Y2773D02*
X1658Y2773D01*
X1685Y2773D02*
X1703Y2773D01*
X1640Y2772D02*
X1657Y2772D01*
X1686Y2772D02*
X1703Y2772D01*
X1640Y2771D02*
X1657Y2771D01*
X1686Y2771D02*
X1703Y2771D01*
X1640Y2770D02*
X1656Y2770D01*
X1687Y2770D02*
X1703Y2770D01*
X1639Y2769D02*
X1656Y2769D01*
X1687Y2769D02*
X1704Y2769D01*
X1639Y2768D02*
X1656Y2768D01*
X1687Y2768D02*
X1704Y2768D01*
X1639Y2767D02*
X1656Y2767D01*
X1687Y2767D02*
X1704Y2767D01*
X1639Y2766D02*
X1656Y2766D01*
X1687Y2766D02*
X1704Y2766D01*
X1639Y2765D02*
X1655Y2765D01*
X1688Y2765D02*
X1704Y2765D01*
X1639Y2764D02*
X1655Y2764D01*
X1688Y2764D02*
X1704Y2764D01*
X1639Y2763D02*
X1655Y2763D01*
X1688Y2763D02*
X1704Y2763D01*
X1639Y2762D02*
X1656Y2762D01*
X1687Y2762D02*
X1704Y2762D01*
X1639Y2761D02*
X1656Y2761D01*
X1687Y2761D02*
X1704Y2761D01*
X1639Y2760D02*
X1656Y2760D01*
X1687Y2760D02*
X1704Y2760D01*
X1640Y2759D02*
X1656Y2759D01*
X1687Y2759D02*
X1703Y2759D01*
X1640Y2758D02*
X1656Y2758D01*
X1687Y2758D02*
X1703Y2758D01*
X1640Y2757D02*
X1657Y2757D01*
X1686Y2757D02*
X1703Y2757D01*
X1640Y2756D02*
X1658Y2756D01*
X1685Y2756D02*
X1703Y2756D01*
X1640Y2755D02*
X1658Y2755D01*
X1685Y2755D02*
X1703Y2755D01*
X1641Y2754D02*
X1659Y2754D01*
X1684Y2754D02*
X1702Y2754D01*
X1641Y2753D02*
X1660Y2753D01*
X1683Y2753D02*
X1702Y2753D01*
X1642Y2752D02*
X1661Y2752D01*
X1682Y2752D02*
X1701Y2752D01*
X1642Y2751D02*
X1662Y2751D01*
X1681Y2751D02*
X1701Y2751D01*
X1642Y2750D02*
X1664Y2750D01*
X1679Y2750D02*
X1701Y2750D01*
X1643Y2749D02*
X1667Y2749D01*
X1676Y2749D02*
X1700Y2749D01*
X1643Y2748D02*
X1700Y2748D01*
X1644Y2747D02*
X1699Y2747D01*
X1645Y2746D02*
X1698Y2746D01*
X1645Y2745D02*
X1698Y2745D01*
X1646Y2744D02*
X1697Y2744D01*
X1647Y2743D02*
X1696Y2743D01*
X1648Y2742D02*
X1695Y2742D01*
X1648Y2741D02*
X1695Y2741D01*
X1650Y2740D02*
X1693Y2740D01*
X1651Y2739D02*
X1692Y2739D01*
X1652Y2738D02*
X1691Y2738D01*
X1653Y2737D02*
X1690Y2737D01*
X1655Y2736D02*
X1688Y2736D01*
X1657Y2735D02*
X1686Y2735D01*
X1659Y2734D02*
X1684Y2734D01*
X1662Y2733D02*
X1681Y2733D01*
X1665Y2732D02*
X1678Y2732D01*
X1670Y2697D02*
X1673Y2697D01*
X1664Y2696D02*
X1679Y2696D01*
X1661Y2695D02*
X1682Y2695D01*
X1658Y2694D02*
X1685Y2694D01*
X1656Y2693D02*
X1687Y2693D01*
X1655Y2692D02*
X1688Y2692D01*
X1653Y2691D02*
X1690Y2691D01*
X1652Y2690D02*
X1691Y2690D01*
X1650Y2689D02*
X1693Y2689D01*
X1649Y2688D02*
X1694Y2688D01*
X1648Y2687D02*
X1695Y2687D01*
X1647Y2686D02*
X1696Y2686D01*
X1647Y2685D02*
X1696Y2685D01*
X1646Y2684D02*
X1697Y2684D01*
X1645Y2683D02*
X1698Y2683D01*
X1644Y2682D02*
X1699Y2682D01*
X1644Y2681D02*
X1699Y2681D01*
X1643Y2680D02*
X1700Y2680D01*
X1643Y2679D02*
X1666Y2679D01*
X1677Y2679D02*
X1700Y2679D01*
X1642Y2678D02*
X1664Y2678D01*
X1679Y2678D02*
X1701Y2678D01*
X1642Y2677D02*
X1662Y2677D01*
X1681Y2677D02*
X1701Y2677D01*
X1641Y2676D02*
X1661Y2676D01*
X1682Y2676D02*
X1702Y2676D01*
X1641Y2675D02*
X1660Y2675D01*
X1683Y2675D02*
X1702Y2675D01*
X1641Y2674D02*
X1659Y2674D01*
X1684Y2674D02*
X1702Y2674D01*
X1640Y2673D02*
X1658Y2673D01*
X1685Y2673D02*
X1703Y2673D01*
X1640Y2672D02*
X1657Y2672D01*
X1686Y2672D02*
X1703Y2672D01*
X1640Y2671D02*
X1657Y2671D01*
X1686Y2671D02*
X1703Y2671D01*
X1640Y2670D02*
X1656Y2670D01*
X1687Y2670D02*
X1703Y2670D01*
X1639Y2669D02*
X1656Y2669D01*
X1687Y2669D02*
X1704Y2669D01*
X1639Y2668D02*
X1656Y2668D01*
X1687Y2668D02*
X1704Y2668D01*
X1639Y2667D02*
X1656Y2667D01*
X1687Y2667D02*
X1704Y2667D01*
X1639Y2666D02*
X1656Y2666D01*
X1687Y2666D02*
X1704Y2666D01*
X1639Y2665D02*
X1655Y2665D01*
X1688Y2665D02*
X1704Y2665D01*
X1639Y2664D02*
X1655Y2664D01*
X1688Y2664D02*
X1704Y2664D01*
X1639Y2663D02*
X1655Y2663D01*
X1688Y2663D02*
X1704Y2663D01*
X1639Y2662D02*
X1656Y2662D01*
X1687Y2662D02*
X1704Y2662D01*
X1639Y2661D02*
X1656Y2661D01*
X1687Y2661D02*
X1704Y2661D01*
X1639Y2660D02*
X1656Y2660D01*
X1687Y2660D02*
X1704Y2660D01*
X1640Y2659D02*
X1656Y2659D01*
X1687Y2659D02*
X1703Y2659D01*
X1640Y2658D02*
X1656Y2658D01*
X1687Y2658D02*
X1703Y2658D01*
X1640Y2657D02*
X1657Y2657D01*
X1686Y2657D02*
X1703Y2657D01*
X1640Y2656D02*
X1658Y2656D01*
X1685Y2656D02*
X1703Y2656D01*
X1640Y2655D02*
X1658Y2655D01*
X1685Y2655D02*
X1703Y2655D01*
X1641Y2654D02*
X1659Y2654D01*
X1684Y2654D02*
X1702Y2654D01*
X1641Y2653D02*
X1660Y2653D01*
X1683Y2653D02*
X1702Y2653D01*
X1642Y2652D02*
X1661Y2652D01*
X1682Y2652D02*
X1701Y2652D01*
X1642Y2651D02*
X1662Y2651D01*
X1681Y2651D02*
X1701Y2651D01*
X1642Y2650D02*
X1664Y2650D01*
X1679Y2650D02*
X1701Y2650D01*
X1643Y2649D02*
X1667Y2649D01*
X1676Y2649D02*
X1700Y2649D01*
X1643Y2648D02*
X1700Y2648D01*
X1644Y2647D02*
X1699Y2647D01*
X1645Y2646D02*
X1698Y2646D01*
X1645Y2645D02*
X1698Y2645D01*
X1646Y2644D02*
X1697Y2644D01*
X1647Y2643D02*
X1696Y2643D01*
X1648Y2642D02*
X1695Y2642D01*
X1649Y2641D02*
X1694Y2641D01*
X1650Y2640D02*
X1693Y2640D01*
X1651Y2639D02*
X1692Y2639D01*
X1652Y2638D02*
X1691Y2638D01*
X1653Y2637D02*
X1690Y2637D01*
X1655Y2636D02*
X1688Y2636D01*
X1657Y2635D02*
X1686Y2635D01*
X1659Y2634D02*
X1684Y2634D01*
X1662Y2633D02*
X1681Y2633D01*
X1665Y2632D02*
X1678Y2632D01*
X1669Y2597D02*
X1674Y2597D01*
X1664Y2596D02*
X1679Y2596D01*
X1661Y2595D02*
X1682Y2595D01*
X1658Y2594D02*
X1685Y2594D01*
X1656Y2593D02*
X1687Y2593D01*
X1655Y2592D02*
X1688Y2592D01*
X1653Y2591D02*
X1690Y2591D01*
X1652Y2590D02*
X1691Y2590D01*
X1650Y2589D02*
X1693Y2589D01*
X1649Y2588D02*
X1694Y2588D01*
X1648Y2587D02*
X1695Y2587D01*
X1647Y2586D02*
X1696Y2586D01*
X1646Y2585D02*
X1696Y2585D01*
X1646Y2584D02*
X1697Y2584D01*
X1645Y2583D02*
X1698Y2583D01*
X1644Y2582D02*
X1699Y2582D01*
X1644Y2581D02*
X1699Y2581D01*
X1643Y2580D02*
X1700Y2580D01*
X1643Y2579D02*
X1666Y2579D01*
X1677Y2579D02*
X1700Y2579D01*
X1642Y2578D02*
X1664Y2578D01*
X1679Y2578D02*
X1701Y2578D01*
X1642Y2577D02*
X1662Y2577D01*
X1681Y2577D02*
X1701Y2577D01*
X1641Y2576D02*
X1661Y2576D01*
X1682Y2576D02*
X1702Y2576D01*
X1641Y2575D02*
X1660Y2575D01*
X1683Y2575D02*
X1702Y2575D01*
X1641Y2574D02*
X1659Y2574D01*
X1684Y2574D02*
X1702Y2574D01*
X1640Y2573D02*
X1658Y2573D01*
X1685Y2573D02*
X1703Y2573D01*
X1640Y2572D02*
X1657Y2572D01*
X1686Y2572D02*
X1703Y2572D01*
X1640Y2571D02*
X1657Y2571D01*
X1686Y2571D02*
X1703Y2571D01*
X1640Y2570D02*
X1656Y2570D01*
X1687Y2570D02*
X1703Y2570D01*
X1639Y2569D02*
X1656Y2569D01*
X1687Y2569D02*
X1704Y2569D01*
X1639Y2568D02*
X1656Y2568D01*
X1687Y2568D02*
X1704Y2568D01*
X1639Y2567D02*
X1656Y2567D01*
X1687Y2567D02*
X1704Y2567D01*
X1639Y2566D02*
X1656Y2566D01*
X1687Y2566D02*
X1704Y2566D01*
X1639Y2565D02*
X1655Y2565D01*
X1688Y2565D02*
X1704Y2565D01*
X1639Y2564D02*
X1655Y2564D01*
X1688Y2564D02*
X1704Y2564D01*
X1639Y2563D02*
X1655Y2563D01*
X1688Y2563D02*
X1704Y2563D01*
X1639Y2562D02*
X1656Y2562D01*
X1687Y2562D02*
X1704Y2562D01*
X1639Y2561D02*
X1656Y2561D01*
X1687Y2561D02*
X1704Y2561D01*
X1639Y2560D02*
X1656Y2560D01*
X1687Y2560D02*
X1704Y2560D01*
X1640Y2559D02*
X1656Y2559D01*
X1687Y2559D02*
X1703Y2559D01*
X1640Y2558D02*
X1656Y2558D01*
X1687Y2558D02*
X1703Y2558D01*
X1640Y2557D02*
X1657Y2557D01*
X1686Y2557D02*
X1703Y2557D01*
X1640Y2556D02*
X1658Y2556D01*
X1685Y2556D02*
X1703Y2556D01*
X1640Y2555D02*
X1658Y2555D01*
X1685Y2555D02*
X1703Y2555D01*
X1641Y2554D02*
X1659Y2554D01*
X1684Y2554D02*
X1702Y2554D01*
X1641Y2553D02*
X1660Y2553D01*
X1683Y2553D02*
X1702Y2553D01*
X1642Y2552D02*
X1661Y2552D01*
X1682Y2552D02*
X1701Y2552D01*
X1642Y2551D02*
X1662Y2551D01*
X1681Y2551D02*
X1701Y2551D01*
X1642Y2550D02*
X1664Y2550D01*
X1679Y2550D02*
X1701Y2550D01*
X1643Y2549D02*
X1667Y2549D01*
X1676Y2549D02*
X1700Y2549D01*
X1643Y2548D02*
X1700Y2548D01*
X1644Y2547D02*
X1699Y2547D01*
X1645Y2546D02*
X1698Y2546D01*
X1645Y2545D02*
X1698Y2545D01*
X1646Y2544D02*
X1697Y2544D01*
X1647Y2543D02*
X1696Y2543D01*
X1648Y2542D02*
X1695Y2542D01*
X1649Y2541D02*
X1694Y2541D01*
X1650Y2540D02*
X1693Y2540D01*
X1651Y2539D02*
X1692Y2539D01*
X1652Y2538D02*
X1691Y2538D01*
X1653Y2537D02*
X1690Y2537D01*
X1655Y2536D02*
X1688Y2536D01*
X1657Y2535D02*
X1686Y2535D01*
X1659Y2534D02*
X1684Y2534D01*
X1662Y2533D02*
X1681Y2533D01*
X1665Y2532D02*
X1678Y2532D01*
X1669Y2497D02*
X1674Y2497D01*
X1664Y2496D02*
X1679Y2496D01*
X1661Y2495D02*
X1682Y2495D01*
X1658Y2494D02*
X1685Y2494D01*
X1656Y2493D02*
X1687Y2493D01*
X1655Y2492D02*
X1688Y2492D01*
X1653Y2491D02*
X1690Y2491D01*
X1652Y2490D02*
X1691Y2490D01*
X1650Y2489D02*
X1693Y2489D01*
X1649Y2488D02*
X1694Y2488D01*
X1648Y2487D02*
X1695Y2487D01*
X1647Y2486D02*
X1696Y2486D01*
X1646Y2485D02*
X1697Y2485D01*
X1646Y2484D02*
X1697Y2484D01*
X1645Y2483D02*
X1698Y2483D01*
X1644Y2482D02*
X1699Y2482D01*
X1644Y2481D02*
X1699Y2481D01*
X1643Y2480D02*
X1700Y2480D01*
X1643Y2479D02*
X1666Y2479D01*
X1677Y2479D02*
X1700Y2479D01*
X1642Y2478D02*
X1664Y2478D01*
X1679Y2478D02*
X1701Y2478D01*
X1642Y2477D02*
X1662Y2477D01*
X1681Y2477D02*
X1701Y2477D01*
X1641Y2476D02*
X1661Y2476D01*
X1682Y2476D02*
X1702Y2476D01*
X1641Y2475D02*
X1660Y2475D01*
X1683Y2475D02*
X1702Y2475D01*
X1641Y2474D02*
X1659Y2474D01*
X1684Y2474D02*
X1702Y2474D01*
X1640Y2473D02*
X1658Y2473D01*
X1685Y2473D02*
X1703Y2473D01*
X1640Y2472D02*
X1657Y2472D01*
X1686Y2472D02*
X1703Y2472D01*
X1640Y2471D02*
X1657Y2471D01*
X1686Y2471D02*
X1703Y2471D01*
X1640Y2470D02*
X1656Y2470D01*
X1687Y2470D02*
X1703Y2470D01*
X1639Y2469D02*
X1656Y2469D01*
X1687Y2469D02*
X1704Y2469D01*
X1639Y2468D02*
X1656Y2468D01*
X1687Y2468D02*
X1704Y2468D01*
X1639Y2467D02*
X1656Y2467D01*
X1687Y2467D02*
X1704Y2467D01*
X1639Y2466D02*
X1656Y2466D01*
X1687Y2466D02*
X1704Y2466D01*
X1639Y2465D02*
X1655Y2465D01*
X1688Y2465D02*
X1704Y2465D01*
X1639Y2464D02*
X1655Y2464D01*
X1688Y2464D02*
X1704Y2464D01*
X1639Y2463D02*
X1655Y2463D01*
X1688Y2463D02*
X1704Y2463D01*
X1639Y2462D02*
X1656Y2462D01*
X1687Y2462D02*
X1704Y2462D01*
X1639Y2461D02*
X1656Y2461D01*
X1687Y2461D02*
X1704Y2461D01*
X1639Y2460D02*
X1656Y2460D01*
X1687Y2460D02*
X1704Y2460D01*
X1640Y2459D02*
X1656Y2459D01*
X1687Y2459D02*
X1703Y2459D01*
X1640Y2458D02*
X1656Y2458D01*
X1686Y2458D02*
X1703Y2458D01*
X1640Y2457D02*
X1657Y2457D01*
X1686Y2457D02*
X1703Y2457D01*
X1640Y2456D02*
X1658Y2456D01*
X1685Y2456D02*
X1703Y2456D01*
X1640Y2455D02*
X1658Y2455D01*
X1685Y2455D02*
X1703Y2455D01*
X1641Y2454D02*
X1659Y2454D01*
X1684Y2454D02*
X1702Y2454D01*
X1641Y2453D02*
X1660Y2453D01*
X1683Y2453D02*
X1702Y2453D01*
X1642Y2452D02*
X1661Y2452D01*
X1682Y2452D02*
X1701Y2452D01*
X1642Y2451D02*
X1662Y2451D01*
X1681Y2451D02*
X1701Y2451D01*
X1642Y2450D02*
X1664Y2450D01*
X1679Y2450D02*
X1701Y2450D01*
X1643Y2449D02*
X1667Y2449D01*
X1676Y2449D02*
X1700Y2449D01*
X1643Y2448D02*
X1700Y2448D01*
X1644Y2447D02*
X1699Y2447D01*
X1645Y2446D02*
X1698Y2446D01*
X1645Y2445D02*
X1698Y2445D01*
X1646Y2444D02*
X1697Y2444D01*
X1647Y2443D02*
X1696Y2443D01*
X1648Y2442D02*
X1695Y2442D01*
X1649Y2441D02*
X1694Y2441D01*
X1650Y2440D02*
X1693Y2440D01*
X1651Y2439D02*
X1692Y2439D01*
X1652Y2438D02*
X1691Y2438D01*
X1653Y2437D02*
X1690Y2437D01*
X1655Y2436D02*
X1688Y2436D01*
X1657Y2435D02*
X1686Y2435D01*
X1659Y2434D02*
X1684Y2434D01*
X1662Y2433D02*
X1681Y2433D01*
X1665Y2432D02*
X1678Y2432D01*
X1669Y2397D02*
X1674Y2397D01*
X1664Y2396D02*
X1679Y2396D01*
X1661Y2395D02*
X1682Y2395D01*
X1658Y2394D02*
X1685Y2394D01*
X1656Y2393D02*
X1687Y2393D01*
X1654Y2392D02*
X1689Y2392D01*
X1653Y2391D02*
X1690Y2391D01*
X1652Y2390D02*
X1691Y2390D01*
X1650Y2389D02*
X1693Y2389D01*
X1649Y2388D02*
X1694Y2388D01*
X1648Y2387D02*
X1695Y2387D01*
X1647Y2386D02*
X1696Y2386D01*
X1646Y2385D02*
X1697Y2385D01*
X1646Y2384D02*
X1697Y2384D01*
X1645Y2383D02*
X1698Y2383D01*
X1644Y2382D02*
X1699Y2382D01*
X1644Y2381D02*
X1699Y2381D01*
X1643Y2380D02*
X1700Y2380D01*
X1643Y2379D02*
X1666Y2379D01*
X1677Y2379D02*
X1700Y2379D01*
X1642Y2378D02*
X1664Y2378D01*
X1680Y2378D02*
X1701Y2378D01*
X1642Y2377D02*
X1662Y2377D01*
X1681Y2377D02*
X1701Y2377D01*
X1641Y2376D02*
X1661Y2376D01*
X1682Y2376D02*
X1702Y2376D01*
X1641Y2375D02*
X1660Y2375D01*
X1683Y2375D02*
X1702Y2375D01*
X1641Y2374D02*
X1659Y2374D01*
X1684Y2374D02*
X1702Y2374D01*
X1640Y2373D02*
X1658Y2373D01*
X1685Y2373D02*
X1703Y2373D01*
X1640Y2372D02*
X1657Y2372D01*
X1686Y2372D02*
X1703Y2372D01*
X1640Y2371D02*
X1657Y2371D01*
X1686Y2371D02*
X1703Y2371D01*
X1640Y2370D02*
X1656Y2370D01*
X1687Y2370D02*
X1703Y2370D01*
X1639Y2369D02*
X1656Y2369D01*
X1687Y2369D02*
X1704Y2369D01*
X1639Y2368D02*
X1656Y2368D01*
X1687Y2368D02*
X1704Y2368D01*
X1639Y2367D02*
X1656Y2367D01*
X1687Y2367D02*
X1704Y2367D01*
X1639Y2366D02*
X1656Y2366D01*
X1688Y2366D02*
X1704Y2366D01*
X1639Y2365D02*
X1655Y2365D01*
X1688Y2365D02*
X1704Y2365D01*
X1639Y2364D02*
X1655Y2364D01*
X1688Y2364D02*
X1704Y2364D01*
X1639Y2363D02*
X1655Y2363D01*
X1688Y2363D02*
X1704Y2363D01*
X1639Y2362D02*
X1656Y2362D01*
X1687Y2362D02*
X1704Y2362D01*
X1639Y2361D02*
X1656Y2361D01*
X1687Y2361D02*
X1704Y2361D01*
X1639Y2360D02*
X1656Y2360D01*
X1687Y2360D02*
X1704Y2360D01*
X1640Y2359D02*
X1656Y2359D01*
X1687Y2359D02*
X1703Y2359D01*
X1640Y2358D02*
X1657Y2358D01*
X1686Y2358D02*
X1703Y2358D01*
X1640Y2357D02*
X1657Y2357D01*
X1686Y2357D02*
X1703Y2357D01*
X1640Y2356D02*
X1658Y2356D01*
X1685Y2356D02*
X1703Y2356D01*
X1641Y2355D02*
X1658Y2355D01*
X1685Y2355D02*
X1703Y2355D01*
X1641Y2354D02*
X1659Y2354D01*
X1684Y2354D02*
X1702Y2354D01*
X1641Y2353D02*
X1660Y2353D01*
X1683Y2353D02*
X1702Y2353D01*
X1642Y2352D02*
X1661Y2352D01*
X1682Y2352D02*
X1701Y2352D01*
X1642Y2351D02*
X1663Y2351D01*
X1680Y2351D02*
X1701Y2351D01*
X1642Y2350D02*
X1664Y2350D01*
X1679Y2350D02*
X1701Y2350D01*
X1643Y2349D02*
X1667Y2349D01*
X1676Y2349D02*
X1700Y2349D01*
X1643Y2348D02*
X1700Y2348D01*
X1644Y2347D02*
X1699Y2347D01*
X1645Y2346D02*
X1698Y2346D01*
X1645Y2345D02*
X1698Y2345D01*
X1646Y2344D02*
X1697Y2344D01*
X1647Y2343D02*
X1696Y2343D01*
X1648Y2342D02*
X1695Y2342D01*
X1649Y2341D02*
X1694Y2341D01*
X1650Y2340D02*
X1693Y2340D01*
X1651Y2339D02*
X1692Y2339D01*
X1652Y2338D02*
X1691Y2338D01*
X1654Y2337D02*
X1689Y2337D01*
X1655Y2336D02*
X1688Y2336D01*
X1657Y2335D02*
X1686Y2335D01*
X1659Y2334D02*
X1684Y2334D01*
X1662Y2333D02*
X1681Y2333D01*
X1666Y2332D02*
X1678Y2332D01*
X1668Y2297D02*
X1675Y2297D01*
X1664Y2296D02*
X1679Y2296D01*
X1661Y2295D02*
X1682Y2295D01*
X1658Y2294D02*
X1685Y2294D01*
X1656Y2293D02*
X1687Y2293D01*
X1654Y2292D02*
X1689Y2292D01*
X1653Y2291D02*
X1690Y2291D01*
X1651Y2290D02*
X1691Y2290D01*
X1650Y2289D02*
X1693Y2289D01*
X1649Y2288D02*
X1694Y2288D01*
X1648Y2287D02*
X1695Y2287D01*
X1647Y2286D02*
X1696Y2286D01*
X1646Y2285D02*
X1697Y2285D01*
X1646Y2284D02*
X1697Y2284D01*
X1645Y2283D02*
X1698Y2283D01*
X1644Y2282D02*
X1699Y2282D01*
X1644Y2281D02*
X1699Y2281D01*
X1643Y2280D02*
X1700Y2280D01*
X1643Y2279D02*
X1666Y2279D01*
X1677Y2279D02*
X1700Y2279D01*
X1642Y2278D02*
X1663Y2278D01*
X1680Y2278D02*
X1701Y2278D01*
X1642Y2277D02*
X1662Y2277D01*
X1681Y2277D02*
X1701Y2277D01*
X1641Y2276D02*
X1661Y2276D01*
X1682Y2276D02*
X1702Y2276D01*
X1641Y2275D02*
X1660Y2275D01*
X1683Y2275D02*
X1702Y2275D01*
X1641Y2274D02*
X1659Y2274D01*
X1684Y2274D02*
X1702Y2274D01*
X1640Y2273D02*
X1658Y2273D01*
X1685Y2273D02*
X1703Y2273D01*
X1640Y2272D02*
X1657Y2272D01*
X1686Y2272D02*
X1703Y2272D01*
X1640Y2271D02*
X1657Y2271D01*
X1686Y2271D02*
X1703Y2271D01*
X1640Y2270D02*
X1656Y2270D01*
X1687Y2270D02*
X1703Y2270D01*
X1639Y2269D02*
X1656Y2269D01*
X1687Y2269D02*
X1704Y2269D01*
X1639Y2268D02*
X1656Y2268D01*
X1687Y2268D02*
X1704Y2268D01*
X1639Y2267D02*
X1656Y2267D01*
X1687Y2267D02*
X1704Y2267D01*
X1639Y2266D02*
X1656Y2266D01*
X1687Y2266D02*
X1704Y2266D01*
X1639Y2265D02*
X1655Y2265D01*
X1688Y2265D02*
X1704Y2265D01*
X1639Y2264D02*
X1655Y2264D01*
X1688Y2264D02*
X1704Y2264D01*
X1639Y2263D02*
X1655Y2263D01*
X1688Y2263D02*
X1704Y2263D01*
X1639Y2262D02*
X1656Y2262D01*
X1687Y2262D02*
X1704Y2262D01*
X1639Y2261D02*
X1656Y2261D01*
X1687Y2261D02*
X1704Y2261D01*
X1639Y2260D02*
X1656Y2260D01*
X1687Y2260D02*
X1704Y2260D01*
X1640Y2259D02*
X1656Y2259D01*
X1687Y2259D02*
X1703Y2259D01*
X1640Y2258D02*
X1657Y2258D01*
X1686Y2258D02*
X1703Y2258D01*
X1640Y2257D02*
X1657Y2257D01*
X1686Y2257D02*
X1703Y2257D01*
X1640Y2256D02*
X1658Y2256D01*
X1685Y2256D02*
X1703Y2256D01*
X1641Y2255D02*
X1658Y2255D01*
X1685Y2255D02*
X1703Y2255D01*
X1641Y2254D02*
X1659Y2254D01*
X1684Y2254D02*
X1702Y2254D01*
X1641Y2253D02*
X1660Y2253D01*
X1683Y2253D02*
X1702Y2253D01*
X1642Y2252D02*
X1661Y2252D01*
X1682Y2252D02*
X1701Y2252D01*
X1642Y2251D02*
X1663Y2251D01*
X1680Y2251D02*
X1701Y2251D01*
X1642Y2250D02*
X1664Y2250D01*
X1679Y2250D02*
X1701Y2250D01*
X1643Y2249D02*
X1667Y2249D01*
X1676Y2249D02*
X1700Y2249D01*
X1643Y2248D02*
X1700Y2248D01*
X1644Y2247D02*
X1699Y2247D01*
X1645Y2246D02*
X1698Y2246D01*
X1645Y2245D02*
X1698Y2245D01*
X1646Y2244D02*
X1697Y2244D01*
X1647Y2243D02*
X1696Y2243D01*
X1648Y2242D02*
X1695Y2242D01*
X1649Y2241D02*
X1694Y2241D01*
X1650Y2240D02*
X1693Y2240D01*
X1651Y2239D02*
X1692Y2239D01*
X1652Y2238D02*
X1691Y2238D01*
X1654Y2237D02*
X1689Y2237D01*
X1655Y2236D02*
X1688Y2236D01*
X1657Y2235D02*
X1686Y2235D01*
X1659Y2234D02*
X1684Y2234D01*
X1662Y2233D02*
X1681Y2233D01*
X1666Y2232D02*
X1677Y2232D01*
X1517Y1751D02*
X1526Y1751D01*
X1512Y1750D02*
X1531Y1750D01*
X1509Y1749D02*
X1534Y1749D01*
X1507Y1748D02*
X1536Y1748D01*
X1505Y1747D02*
X1538Y1747D01*
X1503Y1746D02*
X1540Y1746D01*
X1501Y1745D02*
X1542Y1745D01*
X1500Y1744D02*
X1543Y1744D01*
X1499Y1743D02*
X1544Y1743D01*
X1497Y1742D02*
X1546Y1742D01*
X1496Y1741D02*
X1547Y1741D01*
X1495Y1740D02*
X1548Y1740D01*
X1494Y1739D02*
X1549Y1739D01*
X1494Y1738D02*
X1550Y1738D01*
X1493Y1737D02*
X1550Y1737D01*
X1492Y1736D02*
X1551Y1736D01*
X1491Y1735D02*
X1552Y1735D01*
X1491Y1734D02*
X1552Y1734D01*
X1490Y1733D02*
X1553Y1733D01*
X1490Y1732D02*
X1553Y1732D01*
X1489Y1731D02*
X1515Y1731D01*
X1528Y1731D02*
X1554Y1731D01*
X1489Y1730D02*
X1513Y1730D01*
X1530Y1730D02*
X1554Y1730D01*
X1488Y1729D02*
X1511Y1729D01*
X1532Y1729D02*
X1555Y1729D01*
X1488Y1728D02*
X1510Y1728D01*
X1533Y1728D02*
X1555Y1728D01*
X1487Y1727D02*
X1509Y1727D01*
X1534Y1727D02*
X1556Y1727D01*
X1487Y1726D02*
X1508Y1726D01*
X1535Y1726D02*
X1556Y1726D01*
X1487Y1725D02*
X1507Y1725D01*
X1536Y1725D02*
X1556Y1725D01*
X1486Y1724D02*
X1506Y1724D01*
X1537Y1724D02*
X1557Y1724D01*
X1486Y1723D02*
X1506Y1723D01*
X1537Y1723D02*
X1557Y1723D01*
X1486Y1722D02*
X1505Y1722D01*
X1538Y1722D02*
X1557Y1722D01*
X1486Y1721D02*
X1505Y1721D01*
X1538Y1721D02*
X1557Y1721D01*
X1486Y1720D02*
X1504Y1720D01*
X1539Y1720D02*
X1558Y1720D01*
X1485Y1719D02*
X1504Y1719D01*
X1539Y1719D02*
X1558Y1719D01*
X1485Y1718D02*
X1504Y1718D01*
X1539Y1718D02*
X1558Y1718D01*
X1485Y1717D02*
X1504Y1717D01*
X1539Y1717D02*
X1558Y1717D01*
X1485Y1716D02*
X1504Y1716D01*
X1539Y1716D02*
X1558Y1716D01*
X1485Y1715D02*
X1504Y1715D01*
X1540Y1715D02*
X1558Y1715D01*
X1485Y1714D02*
X1504Y1714D01*
X1540Y1714D02*
X1558Y1714D01*
X1485Y1713D02*
X1504Y1713D01*
X1539Y1713D02*
X1558Y1713D01*
X1485Y1712D02*
X1504Y1712D01*
X1539Y1712D02*
X1558Y1712D01*
X1485Y1711D02*
X1504Y1711D01*
X1539Y1711D02*
X1558Y1711D01*
X1485Y1710D02*
X1504Y1710D01*
X1539Y1710D02*
X1558Y1710D01*
X1485Y1709D02*
X1504Y1709D01*
X1539Y1709D02*
X1558Y1709D01*
X1486Y1708D02*
X1505Y1708D01*
X1538Y1708D02*
X1557Y1708D01*
X1486Y1707D02*
X1505Y1707D01*
X1538Y1707D02*
X1557Y1707D01*
X1486Y1706D02*
X1506Y1706D01*
X1537Y1706D02*
X1557Y1706D01*
X1486Y1705D02*
X1506Y1705D01*
X1537Y1705D02*
X1557Y1705D01*
X1487Y1704D02*
X1507Y1704D01*
X1536Y1704D02*
X1556Y1704D01*
X1487Y1703D02*
X1508Y1703D01*
X1535Y1703D02*
X1556Y1703D01*
X1487Y1702D02*
X1509Y1702D01*
X1534Y1702D02*
X1556Y1702D01*
X1488Y1701D02*
X1510Y1701D01*
X1533Y1701D02*
X1555Y1701D01*
X1488Y1700D02*
X1511Y1700D01*
X1532Y1700D02*
X1555Y1700D01*
X1489Y1699D02*
X1513Y1699D01*
X1531Y1699D02*
X1554Y1699D01*
X1489Y1698D02*
X1514Y1698D01*
X1529Y1698D02*
X1554Y1698D01*
X1490Y1697D02*
X1519Y1697D01*
X1524Y1697D02*
X1554Y1697D01*
X1490Y1696D02*
X1553Y1696D01*
X1491Y1695D02*
X1552Y1695D01*
X1491Y1694D02*
X1552Y1694D01*
X1492Y1693D02*
X1551Y1693D01*
X1493Y1692D02*
X1550Y1692D01*
X1493Y1691D02*
X1550Y1691D01*
X1494Y1690D02*
X1549Y1690D01*
X1495Y1689D02*
X1548Y1689D01*
X1496Y1688D02*
X1547Y1688D01*
X1497Y1687D02*
X1546Y1687D01*
X1498Y1686D02*
X1545Y1686D01*
X1500Y1685D02*
X1543Y1685D01*
X1501Y1684D02*
X1542Y1684D01*
X1503Y1683D02*
X1540Y1683D01*
X1504Y1682D02*
X1539Y1682D01*
X1507Y1681D02*
X1537Y1681D01*
X1509Y1680D02*
X1534Y1680D01*
X1512Y1679D02*
X1531Y1679D01*
X1516Y1678D02*
X1527Y1678D01*
X352Y1651D02*
X365Y1651D01*
X1518Y1651D02*
X1525Y1651D01*
X348Y1650D02*
X368Y1650D01*
X1513Y1650D02*
X1530Y1650D01*
X345Y1649D02*
X371Y1649D01*
X1510Y1649D02*
X1533Y1649D01*
X343Y1648D02*
X373Y1648D01*
X1507Y1648D02*
X1536Y1648D01*
X341Y1647D02*
X375Y1647D01*
X1505Y1647D02*
X1538Y1647D01*
X339Y1646D02*
X377Y1646D01*
X1503Y1646D02*
X1540Y1646D01*
X337Y1645D02*
X379Y1645D01*
X1502Y1645D02*
X1542Y1645D01*
X336Y1644D02*
X380Y1644D01*
X1500Y1644D02*
X1543Y1644D01*
X335Y1643D02*
X381Y1643D01*
X1499Y1643D02*
X1544Y1643D01*
X334Y1642D02*
X383Y1642D01*
X1498Y1642D02*
X1546Y1642D01*
X333Y1641D02*
X384Y1641D01*
X1496Y1641D02*
X1547Y1641D01*
X332Y1640D02*
X385Y1640D01*
X1495Y1640D02*
X1548Y1640D01*
X331Y1639D02*
X386Y1639D01*
X1495Y1639D02*
X1549Y1639D01*
X330Y1638D02*
X386Y1638D01*
X1494Y1638D02*
X1549Y1638D01*
X329Y1637D02*
X387Y1637D01*
X1493Y1637D02*
X1550Y1637D01*
X328Y1636D02*
X388Y1636D01*
X1492Y1636D02*
X1551Y1636D01*
X328Y1635D02*
X388Y1635D01*
X1491Y1635D02*
X1552Y1635D01*
X327Y1634D02*
X389Y1634D01*
X1491Y1634D02*
X1552Y1634D01*
X327Y1633D02*
X390Y1633D01*
X1490Y1633D02*
X1553Y1633D01*
X326Y1632D02*
X355Y1632D01*
X362Y1632D02*
X390Y1632D01*
X1490Y1632D02*
X1553Y1632D01*
X326Y1631D02*
X351Y1631D01*
X366Y1631D02*
X391Y1631D01*
X1489Y1631D02*
X1516Y1631D01*
X1528Y1631D02*
X1554Y1631D01*
X325Y1630D02*
X349Y1630D01*
X367Y1630D02*
X391Y1630D01*
X1489Y1630D02*
X1513Y1630D01*
X1530Y1630D02*
X1554Y1630D01*
X325Y1629D02*
X347Y1629D01*
X369Y1629D02*
X392Y1629D01*
X1488Y1629D02*
X1511Y1629D01*
X1532Y1629D02*
X1555Y1629D01*
X324Y1628D02*
X346Y1628D01*
X370Y1628D02*
X392Y1628D01*
X1488Y1628D02*
X1510Y1628D01*
X1533Y1628D02*
X1555Y1628D01*
X324Y1627D02*
X345Y1627D01*
X371Y1627D02*
X392Y1627D01*
X1487Y1627D02*
X1509Y1627D01*
X1534Y1627D02*
X1556Y1627D01*
X324Y1626D02*
X344Y1626D01*
X372Y1626D02*
X393Y1626D01*
X1487Y1626D02*
X1508Y1626D01*
X1535Y1626D02*
X1556Y1626D01*
X323Y1625D02*
X343Y1625D01*
X373Y1625D02*
X393Y1625D01*
X1487Y1625D02*
X1507Y1625D01*
X1536Y1625D02*
X1556Y1625D01*
X323Y1624D02*
X343Y1624D01*
X374Y1624D02*
X393Y1624D01*
X1486Y1624D02*
X1506Y1624D01*
X1537Y1624D02*
X1557Y1624D01*
X323Y1623D02*
X342Y1623D01*
X374Y1623D02*
X394Y1623D01*
X1486Y1623D02*
X1506Y1623D01*
X1537Y1623D02*
X1557Y1623D01*
X322Y1622D02*
X342Y1622D01*
X375Y1622D02*
X394Y1622D01*
X1486Y1622D02*
X1505Y1622D01*
X1538Y1622D02*
X1557Y1622D01*
X322Y1621D02*
X341Y1621D01*
X375Y1621D02*
X394Y1621D01*
X1486Y1621D02*
X1505Y1621D01*
X1538Y1621D02*
X1557Y1621D01*
X322Y1620D02*
X341Y1620D01*
X375Y1620D02*
X394Y1620D01*
X1486Y1620D02*
X1504Y1620D01*
X1539Y1620D02*
X1558Y1620D01*
X322Y1619D02*
X341Y1619D01*
X376Y1619D02*
X394Y1619D01*
X1485Y1619D02*
X1504Y1619D01*
X1539Y1619D02*
X1558Y1619D01*
X322Y1618D02*
X340Y1618D01*
X376Y1618D02*
X394Y1618D01*
X1485Y1618D02*
X1504Y1618D01*
X1539Y1618D02*
X1558Y1618D01*
X322Y1617D02*
X340Y1617D01*
X376Y1617D02*
X395Y1617D01*
X1485Y1617D02*
X1504Y1617D01*
X1539Y1617D02*
X1558Y1617D01*
X322Y1616D02*
X340Y1616D01*
X376Y1616D02*
X395Y1616D01*
X1485Y1616D02*
X1504Y1616D01*
X1539Y1616D02*
X1558Y1616D01*
X322Y1615D02*
X340Y1615D01*
X376Y1615D02*
X395Y1615D01*
X1485Y1615D02*
X1504Y1615D01*
X1540Y1615D02*
X1558Y1615D01*
X322Y1614D02*
X340Y1614D01*
X376Y1614D02*
X395Y1614D01*
X1485Y1614D02*
X1504Y1614D01*
X1540Y1614D02*
X1558Y1614D01*
X322Y1613D02*
X340Y1613D01*
X376Y1613D02*
X395Y1613D01*
X1485Y1613D02*
X1504Y1613D01*
X1539Y1613D02*
X1558Y1613D01*
X322Y1612D02*
X340Y1612D01*
X376Y1612D02*
X395Y1612D01*
X1485Y1612D02*
X1504Y1612D01*
X1539Y1612D02*
X1558Y1612D01*
X322Y1611D02*
X340Y1611D01*
X376Y1611D02*
X394Y1611D01*
X1485Y1611D02*
X1504Y1611D01*
X1539Y1611D02*
X1558Y1611D01*
X322Y1610D02*
X341Y1610D01*
X376Y1610D02*
X394Y1610D01*
X1485Y1610D02*
X1504Y1610D01*
X1539Y1610D02*
X1558Y1610D01*
X322Y1609D02*
X341Y1609D01*
X375Y1609D02*
X394Y1609D01*
X1485Y1609D02*
X1504Y1609D01*
X1539Y1609D02*
X1558Y1609D01*
X322Y1608D02*
X341Y1608D01*
X375Y1608D02*
X394Y1608D01*
X1486Y1608D02*
X1505Y1608D01*
X1539Y1608D02*
X1557Y1608D01*
X323Y1607D02*
X342Y1607D01*
X374Y1607D02*
X394Y1607D01*
X1486Y1607D02*
X1505Y1607D01*
X1538Y1607D02*
X1557Y1607D01*
X323Y1606D02*
X342Y1606D01*
X374Y1606D02*
X393Y1606D01*
X1486Y1606D02*
X1506Y1606D01*
X1538Y1606D02*
X1557Y1606D01*
X323Y1605D02*
X343Y1605D01*
X373Y1605D02*
X393Y1605D01*
X1486Y1605D02*
X1506Y1605D01*
X1537Y1605D02*
X1557Y1605D01*
X323Y1604D02*
X344Y1604D01*
X372Y1604D02*
X393Y1604D01*
X1487Y1604D02*
X1507Y1604D01*
X1536Y1604D02*
X1556Y1604D01*
X324Y1603D02*
X345Y1603D01*
X372Y1603D02*
X393Y1603D01*
X1487Y1603D02*
X1508Y1603D01*
X1535Y1603D02*
X1556Y1603D01*
X324Y1602D02*
X346Y1602D01*
X371Y1602D02*
X392Y1602D01*
X1487Y1602D02*
X1509Y1602D01*
X1534Y1602D02*
X1556Y1602D01*
X324Y1601D02*
X347Y1601D01*
X369Y1601D02*
X392Y1601D01*
X1488Y1601D02*
X1510Y1601D01*
X1533Y1601D02*
X1555Y1601D01*
X325Y1600D02*
X348Y1600D01*
X368Y1600D02*
X391Y1600D01*
X1488Y1600D02*
X1511Y1600D01*
X1532Y1600D02*
X1555Y1600D01*
X325Y1599D02*
X350Y1599D01*
X367Y1599D02*
X391Y1599D01*
X1489Y1599D02*
X1512Y1599D01*
X1531Y1599D02*
X1555Y1599D01*
X326Y1598D02*
X352Y1598D01*
X364Y1598D02*
X390Y1598D01*
X1489Y1598D02*
X1514Y1598D01*
X1529Y1598D02*
X1554Y1598D01*
X326Y1597D02*
X390Y1597D01*
X1489Y1597D02*
X1518Y1597D01*
X1525Y1597D02*
X1554Y1597D01*
X327Y1596D02*
X389Y1596D01*
X1490Y1596D02*
X1553Y1596D01*
X327Y1595D02*
X389Y1595D01*
X1491Y1595D02*
X1552Y1595D01*
X328Y1594D02*
X388Y1594D01*
X1491Y1594D02*
X1552Y1594D01*
X329Y1593D02*
X387Y1593D01*
X1492Y1593D02*
X1551Y1593D01*
X329Y1592D02*
X387Y1592D01*
X1493Y1592D02*
X1550Y1592D01*
X330Y1591D02*
X386Y1591D01*
X1493Y1591D02*
X1550Y1591D01*
X331Y1590D02*
X385Y1590D01*
X1494Y1590D02*
X1549Y1590D01*
X332Y1589D02*
X384Y1589D01*
X1495Y1589D02*
X1548Y1589D01*
X333Y1588D02*
X383Y1588D01*
X1496Y1588D02*
X1547Y1588D01*
X334Y1587D02*
X382Y1587D01*
X1497Y1587D02*
X1546Y1587D01*
X335Y1586D02*
X381Y1586D01*
X1498Y1586D02*
X1545Y1586D01*
X337Y1585D02*
X380Y1585D01*
X1500Y1585D02*
X1544Y1585D01*
X338Y1584D02*
X378Y1584D01*
X1501Y1584D02*
X1542Y1584D01*
X340Y1583D02*
X376Y1583D01*
X1503Y1583D02*
X1541Y1583D01*
X342Y1582D02*
X375Y1582D01*
X1504Y1582D02*
X1539Y1582D01*
X344Y1581D02*
X372Y1581D01*
X1506Y1581D02*
X1537Y1581D01*
X346Y1580D02*
X370Y1580D01*
X1509Y1580D02*
X1535Y1580D01*
X349Y1579D02*
X367Y1579D01*
X1511Y1579D02*
X1532Y1579D01*
X354Y1578D02*
X362Y1578D01*
X1515Y1578D02*
X1528Y1578D01*
X352Y1551D02*
X364Y1551D01*
X1518Y1551D02*
X1525Y1551D01*
X348Y1550D02*
X368Y1550D01*
X1513Y1550D02*
X1530Y1550D01*
X345Y1549D02*
X371Y1549D01*
X1510Y1549D02*
X1533Y1549D01*
X343Y1548D02*
X373Y1548D01*
X1507Y1548D02*
X1536Y1548D01*
X341Y1547D02*
X375Y1547D01*
X1505Y1547D02*
X1538Y1547D01*
X339Y1546D02*
X377Y1546D01*
X1503Y1546D02*
X1540Y1546D01*
X338Y1545D02*
X379Y1545D01*
X1502Y1545D02*
X1541Y1545D01*
X336Y1544D02*
X380Y1544D01*
X1500Y1544D02*
X1543Y1544D01*
X335Y1543D02*
X381Y1543D01*
X1499Y1543D02*
X1544Y1543D01*
X334Y1542D02*
X382Y1542D01*
X1498Y1542D02*
X1545Y1542D01*
X333Y1541D02*
X384Y1541D01*
X1497Y1541D02*
X1547Y1541D01*
X332Y1540D02*
X385Y1540D01*
X1496Y1540D02*
X1548Y1540D01*
X331Y1539D02*
X385Y1539D01*
X1495Y1539D02*
X1548Y1539D01*
X330Y1538D02*
X386Y1538D01*
X1494Y1538D02*
X1549Y1538D01*
X329Y1537D02*
X387Y1537D01*
X1493Y1537D02*
X1550Y1537D01*
X329Y1536D02*
X388Y1536D01*
X1492Y1536D02*
X1551Y1536D01*
X328Y1535D02*
X388Y1535D01*
X1492Y1535D02*
X1552Y1535D01*
X327Y1534D02*
X389Y1534D01*
X1491Y1534D02*
X1552Y1534D01*
X327Y1533D02*
X390Y1533D01*
X1490Y1533D02*
X1553Y1533D01*
X326Y1532D02*
X356Y1532D01*
X360Y1532D02*
X390Y1532D01*
X1490Y1532D02*
X1553Y1532D01*
X326Y1531D02*
X351Y1531D01*
X365Y1531D02*
X391Y1531D01*
X1489Y1531D02*
X1516Y1531D01*
X1527Y1531D02*
X1554Y1531D01*
X325Y1530D02*
X349Y1530D01*
X367Y1530D02*
X391Y1530D01*
X1489Y1530D02*
X1513Y1530D01*
X1530Y1530D02*
X1554Y1530D01*
X325Y1529D02*
X348Y1529D01*
X369Y1529D02*
X392Y1529D01*
X1488Y1529D02*
X1512Y1529D01*
X1532Y1529D02*
X1555Y1529D01*
X324Y1528D02*
X346Y1528D01*
X370Y1528D02*
X392Y1528D01*
X1488Y1528D02*
X1510Y1528D01*
X1533Y1528D02*
X1555Y1528D01*
X324Y1527D02*
X345Y1527D01*
X371Y1527D02*
X392Y1527D01*
X1487Y1527D02*
X1509Y1527D01*
X1534Y1527D02*
X1556Y1527D01*
X324Y1526D02*
X344Y1526D01*
X372Y1526D02*
X393Y1526D01*
X1487Y1526D02*
X1508Y1526D01*
X1535Y1526D02*
X1556Y1526D01*
X323Y1525D02*
X344Y1525D01*
X373Y1525D02*
X393Y1525D01*
X1487Y1525D02*
X1507Y1525D01*
X1536Y1525D02*
X1556Y1525D01*
X323Y1524D02*
X343Y1524D01*
X374Y1524D02*
X393Y1524D01*
X1486Y1524D02*
X1506Y1524D01*
X1537Y1524D02*
X1557Y1524D01*
X323Y1523D02*
X342Y1523D01*
X374Y1523D02*
X394Y1523D01*
X1486Y1523D02*
X1506Y1523D01*
X1537Y1523D02*
X1557Y1523D01*
X322Y1522D02*
X342Y1522D01*
X375Y1522D02*
X394Y1522D01*
X1486Y1522D02*
X1505Y1522D01*
X1538Y1522D02*
X1557Y1522D01*
X322Y1521D02*
X341Y1521D01*
X375Y1521D02*
X394Y1521D01*
X1486Y1521D02*
X1505Y1521D01*
X1538Y1521D02*
X1557Y1521D01*
X322Y1520D02*
X341Y1520D01*
X375Y1520D02*
X394Y1520D01*
X1486Y1520D02*
X1504Y1520D01*
X1539Y1520D02*
X1558Y1520D01*
X322Y1519D02*
X341Y1519D01*
X376Y1519D02*
X394Y1519D01*
X1485Y1519D02*
X1504Y1519D01*
X1539Y1519D02*
X1558Y1519D01*
X322Y1518D02*
X340Y1518D01*
X376Y1518D02*
X394Y1518D01*
X1485Y1518D02*
X1504Y1518D01*
X1539Y1518D02*
X1558Y1518D01*
X322Y1517D02*
X340Y1517D01*
X376Y1517D02*
X395Y1517D01*
X1485Y1517D02*
X1504Y1517D01*
X1539Y1517D02*
X1558Y1517D01*
X322Y1516D02*
X340Y1516D01*
X376Y1516D02*
X395Y1516D01*
X1485Y1516D02*
X1504Y1516D01*
X1539Y1516D02*
X1558Y1516D01*
X322Y1515D02*
X340Y1515D01*
X376Y1515D02*
X395Y1515D01*
X1485Y1515D02*
X1504Y1515D01*
X1539Y1515D02*
X1558Y1515D01*
X322Y1514D02*
X340Y1514D01*
X376Y1514D02*
X395Y1514D01*
X1485Y1514D02*
X1504Y1514D01*
X1540Y1514D02*
X1558Y1514D01*
X322Y1513D02*
X340Y1513D01*
X376Y1513D02*
X395Y1513D01*
X1485Y1513D02*
X1504Y1513D01*
X1539Y1513D02*
X1558Y1513D01*
X322Y1512D02*
X340Y1512D01*
X376Y1512D02*
X395Y1512D01*
X1485Y1512D02*
X1504Y1512D01*
X1539Y1512D02*
X1558Y1512D01*
X322Y1511D02*
X340Y1511D01*
X376Y1511D02*
X394Y1511D01*
X1485Y1511D02*
X1504Y1511D01*
X1539Y1511D02*
X1558Y1511D01*
X322Y1510D02*
X341Y1510D01*
X376Y1510D02*
X394Y1510D01*
X1485Y1510D02*
X1504Y1510D01*
X1539Y1510D02*
X1558Y1510D01*
X322Y1509D02*
X341Y1509D01*
X375Y1509D02*
X394Y1509D01*
X1485Y1509D02*
X1504Y1509D01*
X1539Y1509D02*
X1558Y1509D01*
X322Y1508D02*
X341Y1508D01*
X375Y1508D02*
X394Y1508D01*
X1486Y1508D02*
X1505Y1508D01*
X1539Y1508D02*
X1557Y1508D01*
X322Y1507D02*
X342Y1507D01*
X375Y1507D02*
X394Y1507D01*
X1486Y1507D02*
X1505Y1507D01*
X1538Y1507D02*
X1557Y1507D01*
X323Y1506D02*
X342Y1506D01*
X374Y1506D02*
X393Y1506D01*
X1486Y1506D02*
X1505Y1506D01*
X1538Y1506D02*
X1557Y1506D01*
X323Y1505D02*
X343Y1505D01*
X373Y1505D02*
X393Y1505D01*
X1486Y1505D02*
X1506Y1505D01*
X1537Y1505D02*
X1557Y1505D01*
X323Y1504D02*
X344Y1504D01*
X373Y1504D02*
X393Y1504D01*
X1487Y1504D02*
X1507Y1504D01*
X1536Y1504D02*
X1556Y1504D01*
X324Y1503D02*
X345Y1503D01*
X372Y1503D02*
X393Y1503D01*
X1487Y1503D02*
X1508Y1503D01*
X1535Y1503D02*
X1556Y1503D01*
X324Y1502D02*
X346Y1502D01*
X371Y1502D02*
X392Y1502D01*
X1487Y1502D02*
X1508Y1502D01*
X1535Y1502D02*
X1556Y1502D01*
X324Y1501D02*
X347Y1501D01*
X370Y1501D02*
X392Y1501D01*
X1488Y1501D02*
X1510Y1501D01*
X1534Y1501D02*
X1555Y1501D01*
X325Y1500D02*
X348Y1500D01*
X368Y1500D02*
X391Y1500D01*
X1488Y1500D02*
X1511Y1500D01*
X1532Y1500D02*
X1555Y1500D01*
X325Y1499D02*
X350Y1499D01*
X367Y1499D02*
X391Y1499D01*
X1488Y1499D02*
X1512Y1499D01*
X1531Y1499D02*
X1555Y1499D01*
X326Y1498D02*
X352Y1498D01*
X365Y1498D02*
X391Y1498D01*
X1489Y1498D02*
X1514Y1498D01*
X1529Y1498D02*
X1554Y1498D01*
X326Y1497D02*
X390Y1497D01*
X1489Y1497D02*
X1517Y1497D01*
X1526Y1497D02*
X1554Y1497D01*
X327Y1496D02*
X389Y1496D01*
X1490Y1496D02*
X1553Y1496D01*
X327Y1495D02*
X389Y1495D01*
X1491Y1495D02*
X1553Y1495D01*
X328Y1494D02*
X388Y1494D01*
X1491Y1494D02*
X1552Y1494D01*
X329Y1493D02*
X388Y1493D01*
X1492Y1493D02*
X1551Y1493D01*
X329Y1492D02*
X387Y1492D01*
X1492Y1492D02*
X1551Y1492D01*
X330Y1491D02*
X386Y1491D01*
X1493Y1491D02*
X1550Y1491D01*
X331Y1490D02*
X385Y1490D01*
X1494Y1490D02*
X1549Y1490D01*
X332Y1489D02*
X384Y1489D01*
X1495Y1489D02*
X1548Y1489D01*
X333Y1488D02*
X383Y1488D01*
X1496Y1488D02*
X1547Y1488D01*
X334Y1487D02*
X382Y1487D01*
X1497Y1487D02*
X1546Y1487D01*
X335Y1486D02*
X381Y1486D01*
X1498Y1486D02*
X1545Y1486D01*
X337Y1485D02*
X380Y1485D01*
X1499Y1485D02*
X1544Y1485D01*
X338Y1484D02*
X378Y1484D01*
X1501Y1484D02*
X1542Y1484D01*
X340Y1483D02*
X377Y1483D01*
X1502Y1483D02*
X1541Y1483D01*
X341Y1482D02*
X375Y1482D01*
X1504Y1482D02*
X1539Y1482D01*
X344Y1481D02*
X373Y1481D01*
X1506Y1481D02*
X1537Y1481D01*
X346Y1480D02*
X370Y1480D01*
X1508Y1480D02*
X1535Y1480D01*
X349Y1479D02*
X367Y1479D01*
X1511Y1479D02*
X1532Y1479D01*
X354Y1478D02*
X363Y1478D01*
X1515Y1478D02*
X1528Y1478D01*
X353Y1451D02*
X363Y1451D01*
X1520Y1451D02*
X1523Y1451D01*
X349Y1450D02*
X368Y1450D01*
X1514Y1450D02*
X1529Y1450D01*
X346Y1449D02*
X371Y1449D01*
X1510Y1449D02*
X1533Y1449D01*
X343Y1448D02*
X373Y1448D01*
X1508Y1448D02*
X1535Y1448D01*
X341Y1447D02*
X375Y1447D01*
X1506Y1447D02*
X1538Y1447D01*
X339Y1446D02*
X377Y1446D01*
X1504Y1446D02*
X1539Y1446D01*
X338Y1445D02*
X378Y1445D01*
X1502Y1445D02*
X1541Y1445D01*
X336Y1444D02*
X380Y1444D01*
X1500Y1444D02*
X1543Y1444D01*
X335Y1443D02*
X381Y1443D01*
X1499Y1443D02*
X1544Y1443D01*
X334Y1442D02*
X382Y1442D01*
X1498Y1442D02*
X1545Y1442D01*
X333Y1441D02*
X383Y1441D01*
X1497Y1441D02*
X1546Y1441D01*
X332Y1440D02*
X384Y1440D01*
X1496Y1440D02*
X1547Y1440D01*
X331Y1439D02*
X385Y1439D01*
X1495Y1439D02*
X1548Y1439D01*
X330Y1438D02*
X386Y1438D01*
X1494Y1438D02*
X1549Y1438D01*
X329Y1437D02*
X387Y1437D01*
X1493Y1437D02*
X1550Y1437D01*
X329Y1436D02*
X388Y1436D01*
X1492Y1436D02*
X1551Y1436D01*
X328Y1435D02*
X388Y1435D01*
X1492Y1435D02*
X1551Y1435D01*
X327Y1434D02*
X389Y1434D01*
X1491Y1434D02*
X1552Y1434D01*
X327Y1433D02*
X390Y1433D01*
X1490Y1433D02*
X1553Y1433D01*
X326Y1432D02*
X390Y1432D01*
X1490Y1432D02*
X1553Y1432D01*
X326Y1431D02*
X351Y1431D01*
X365Y1431D02*
X391Y1431D01*
X1489Y1431D02*
X1516Y1431D01*
X1527Y1431D02*
X1554Y1431D01*
X325Y1430D02*
X349Y1430D01*
X367Y1430D02*
X391Y1430D01*
X1489Y1430D02*
X1514Y1430D01*
X1530Y1430D02*
X1554Y1430D01*
X325Y1429D02*
X348Y1429D01*
X369Y1429D02*
X392Y1429D01*
X1488Y1429D02*
X1512Y1429D01*
X1531Y1429D02*
X1555Y1429D01*
X324Y1428D02*
X347Y1428D01*
X370Y1428D02*
X392Y1428D01*
X1488Y1428D02*
X1510Y1428D01*
X1533Y1428D02*
X1555Y1428D01*
X324Y1427D02*
X345Y1427D01*
X371Y1427D02*
X392Y1427D01*
X1488Y1427D02*
X1509Y1427D01*
X1534Y1427D02*
X1556Y1427D01*
X324Y1426D02*
X344Y1426D01*
X372Y1426D02*
X393Y1426D01*
X1487Y1426D02*
X1508Y1426D01*
X1535Y1426D02*
X1556Y1426D01*
X323Y1425D02*
X344Y1425D01*
X373Y1425D02*
X393Y1425D01*
X1487Y1425D02*
X1507Y1425D01*
X1536Y1425D02*
X1556Y1425D01*
X323Y1424D02*
X343Y1424D01*
X373Y1424D02*
X393Y1424D01*
X1487Y1424D02*
X1507Y1424D01*
X1537Y1424D02*
X1557Y1424D01*
X323Y1423D02*
X342Y1423D01*
X374Y1423D02*
X394Y1423D01*
X1486Y1423D02*
X1506Y1423D01*
X1537Y1423D02*
X1557Y1423D01*
X322Y1422D02*
X342Y1422D01*
X375Y1422D02*
X394Y1422D01*
X1486Y1422D02*
X1505Y1422D01*
X1538Y1422D02*
X1557Y1422D01*
X322Y1421D02*
X341Y1421D01*
X375Y1421D02*
X394Y1421D01*
X1486Y1421D02*
X1505Y1421D01*
X1538Y1421D02*
X1557Y1421D01*
X322Y1420D02*
X341Y1420D01*
X375Y1420D02*
X394Y1420D01*
X1486Y1420D02*
X1504Y1420D01*
X1539Y1420D02*
X1557Y1420D01*
X322Y1419D02*
X341Y1419D01*
X376Y1419D02*
X394Y1419D01*
X1485Y1419D02*
X1504Y1419D01*
X1539Y1419D02*
X1558Y1419D01*
X322Y1418D02*
X340Y1418D01*
X376Y1418D02*
X394Y1418D01*
X1485Y1418D02*
X1504Y1418D01*
X1539Y1418D02*
X1558Y1418D01*
X322Y1417D02*
X340Y1417D01*
X376Y1417D02*
X395Y1417D01*
X1485Y1417D02*
X1504Y1417D01*
X1539Y1417D02*
X1558Y1417D01*
X322Y1416D02*
X340Y1416D01*
X376Y1416D02*
X395Y1416D01*
X1485Y1416D02*
X1504Y1416D01*
X1539Y1416D02*
X1558Y1416D01*
X322Y1415D02*
X340Y1415D01*
X376Y1415D02*
X395Y1415D01*
X1485Y1415D02*
X1504Y1415D01*
X1539Y1415D02*
X1558Y1415D01*
X322Y1414D02*
X340Y1414D01*
X376Y1414D02*
X395Y1414D01*
X1485Y1414D02*
X1504Y1414D01*
X1540Y1414D02*
X1558Y1414D01*
X322Y1413D02*
X340Y1413D01*
X376Y1413D02*
X395Y1413D01*
X1485Y1413D02*
X1504Y1413D01*
X1539Y1413D02*
X1558Y1413D01*
X322Y1412D02*
X340Y1412D01*
X376Y1412D02*
X395Y1412D01*
X1485Y1412D02*
X1504Y1412D01*
X1539Y1412D02*
X1558Y1412D01*
X322Y1411D02*
X340Y1411D01*
X376Y1411D02*
X394Y1411D01*
X1485Y1411D02*
X1504Y1411D01*
X1539Y1411D02*
X1558Y1411D01*
X322Y1410D02*
X341Y1410D01*
X376Y1410D02*
X394Y1410D01*
X1485Y1410D02*
X1504Y1410D01*
X1539Y1410D02*
X1558Y1410D01*
X322Y1409D02*
X341Y1409D01*
X375Y1409D02*
X394Y1409D01*
X1485Y1409D02*
X1504Y1409D01*
X1539Y1409D02*
X1558Y1409D01*
X322Y1408D02*
X341Y1408D01*
X375Y1408D02*
X394Y1408D01*
X1486Y1408D02*
X1504Y1408D01*
X1539Y1408D02*
X1557Y1408D01*
X322Y1407D02*
X342Y1407D01*
X375Y1407D02*
X394Y1407D01*
X1486Y1407D02*
X1505Y1407D01*
X1538Y1407D02*
X1557Y1407D01*
X323Y1406D02*
X342Y1406D01*
X374Y1406D02*
X394Y1406D01*
X1486Y1406D02*
X1505Y1406D01*
X1538Y1406D02*
X1557Y1406D01*
X323Y1405D02*
X343Y1405D01*
X373Y1405D02*
X393Y1405D01*
X1486Y1405D02*
X1506Y1405D01*
X1537Y1405D02*
X1557Y1405D01*
X323Y1404D02*
X344Y1404D01*
X373Y1404D02*
X393Y1404D01*
X1487Y1404D02*
X1507Y1404D01*
X1536Y1404D02*
X1557Y1404D01*
X324Y1403D02*
X344Y1403D01*
X372Y1403D02*
X393Y1403D01*
X1487Y1403D02*
X1507Y1403D01*
X1536Y1403D02*
X1556Y1403D01*
X324Y1402D02*
X345Y1402D01*
X371Y1402D02*
X392Y1402D01*
X1487Y1402D02*
X1508Y1402D01*
X1535Y1402D02*
X1556Y1402D01*
X324Y1401D02*
X347Y1401D01*
X370Y1401D02*
X392Y1401D01*
X1488Y1401D02*
X1509Y1401D01*
X1534Y1401D02*
X1555Y1401D01*
X325Y1400D02*
X348Y1400D01*
X369Y1400D02*
X392Y1400D01*
X1488Y1400D02*
X1511Y1400D01*
X1532Y1400D02*
X1555Y1400D01*
X325Y1399D02*
X349Y1399D01*
X367Y1399D02*
X391Y1399D01*
X1488Y1399D02*
X1512Y1399D01*
X1531Y1399D02*
X1555Y1399D01*
X326Y1398D02*
X351Y1398D01*
X365Y1398D02*
X391Y1398D01*
X1489Y1398D02*
X1514Y1398D01*
X1529Y1398D02*
X1554Y1398D01*
X326Y1397D02*
X357Y1397D01*
X359Y1397D02*
X390Y1397D01*
X1489Y1397D02*
X1517Y1397D01*
X1526Y1397D02*
X1554Y1397D01*
X327Y1396D02*
X390Y1396D01*
X1490Y1396D02*
X1553Y1396D01*
X327Y1395D02*
X389Y1395D01*
X1490Y1395D02*
X1553Y1395D01*
X328Y1394D02*
X388Y1394D01*
X1491Y1394D02*
X1552Y1394D01*
X329Y1393D02*
X388Y1393D01*
X1492Y1393D02*
X1551Y1393D01*
X329Y1392D02*
X387Y1392D01*
X1492Y1392D02*
X1551Y1392D01*
X330Y1391D02*
X386Y1391D01*
X1493Y1391D02*
X1550Y1391D01*
X331Y1390D02*
X385Y1390D01*
X1494Y1390D02*
X1549Y1390D01*
X332Y1389D02*
X384Y1389D01*
X1495Y1389D02*
X1548Y1389D01*
X333Y1388D02*
X383Y1388D01*
X1496Y1388D02*
X1547Y1388D01*
X334Y1387D02*
X382Y1387D01*
X1497Y1387D02*
X1546Y1387D01*
X335Y1386D02*
X381Y1386D01*
X1498Y1386D02*
X1545Y1386D01*
X336Y1385D02*
X380Y1385D01*
X1499Y1385D02*
X1544Y1385D01*
X338Y1384D02*
X378Y1384D01*
X1501Y1384D02*
X1542Y1384D01*
X339Y1383D02*
X377Y1383D01*
X1502Y1383D02*
X1541Y1383D01*
X341Y1382D02*
X375Y1382D01*
X1504Y1382D02*
X1539Y1382D01*
X343Y1381D02*
X373Y1381D01*
X1506Y1381D02*
X1537Y1381D01*
X346Y1380D02*
X371Y1380D01*
X1508Y1380D02*
X1535Y1380D01*
X349Y1379D02*
X368Y1379D01*
X1511Y1379D02*
X1532Y1379D01*
X353Y1378D02*
X363Y1378D01*
X1514Y1378D02*
X1529Y1378D01*
X354Y1351D02*
X363Y1351D01*
X349Y1350D02*
X367Y1350D01*
X1514Y1350D02*
X1529Y1350D01*
X346Y1349D02*
X370Y1349D01*
X1511Y1349D02*
X1532Y1349D01*
X344Y1348D02*
X373Y1348D01*
X1508Y1348D02*
X1535Y1348D01*
X341Y1347D02*
X375Y1347D01*
X1506Y1347D02*
X1537Y1347D01*
X340Y1346D02*
X377Y1346D01*
X1504Y1346D02*
X1539Y1346D01*
X338Y1345D02*
X378Y1345D01*
X1502Y1345D02*
X1541Y1345D01*
X337Y1344D02*
X380Y1344D01*
X1501Y1344D02*
X1542Y1344D01*
X335Y1343D02*
X381Y1343D01*
X1499Y1343D02*
X1544Y1343D01*
X334Y1342D02*
X382Y1342D01*
X1498Y1342D02*
X1545Y1342D01*
X333Y1341D02*
X383Y1341D01*
X1497Y1341D02*
X1546Y1341D01*
X332Y1340D02*
X384Y1340D01*
X1496Y1340D02*
X1547Y1340D01*
X331Y1339D02*
X385Y1339D01*
X1495Y1339D02*
X1548Y1339D01*
X330Y1338D02*
X386Y1338D01*
X1494Y1338D02*
X1549Y1338D01*
X329Y1337D02*
X387Y1337D01*
X1493Y1337D02*
X1550Y1337D01*
X329Y1336D02*
X388Y1336D01*
X1492Y1336D02*
X1551Y1336D01*
X328Y1335D02*
X388Y1335D01*
X1492Y1335D02*
X1551Y1335D01*
X327Y1334D02*
X389Y1334D01*
X1491Y1334D02*
X1552Y1334D01*
X327Y1333D02*
X389Y1333D01*
X1490Y1333D02*
X1553Y1333D01*
X326Y1332D02*
X390Y1332D01*
X1490Y1332D02*
X1553Y1332D01*
X326Y1331D02*
X352Y1331D01*
X364Y1331D02*
X391Y1331D01*
X1489Y1331D02*
X1517Y1331D01*
X1526Y1331D02*
X1554Y1331D01*
X325Y1330D02*
X350Y1330D01*
X367Y1330D02*
X391Y1330D01*
X1489Y1330D02*
X1514Y1330D01*
X1529Y1330D02*
X1554Y1330D01*
X325Y1329D02*
X348Y1329D01*
X368Y1329D02*
X391Y1329D01*
X1488Y1329D02*
X1512Y1329D01*
X1531Y1329D02*
X1555Y1329D01*
X324Y1328D02*
X347Y1328D01*
X370Y1328D02*
X392Y1328D01*
X1488Y1328D02*
X1511Y1328D01*
X1532Y1328D02*
X1555Y1328D01*
X324Y1327D02*
X346Y1327D01*
X371Y1327D02*
X392Y1327D01*
X1488Y1327D02*
X1509Y1327D01*
X1534Y1327D02*
X1555Y1327D01*
X324Y1326D02*
X345Y1326D01*
X372Y1326D02*
X393Y1326D01*
X1487Y1326D02*
X1508Y1326D01*
X1535Y1326D02*
X1556Y1326D01*
X323Y1325D02*
X344Y1325D01*
X373Y1325D02*
X393Y1325D01*
X1487Y1325D02*
X1507Y1325D01*
X1536Y1325D02*
X1556Y1325D01*
X323Y1324D02*
X343Y1324D01*
X373Y1324D02*
X393Y1324D01*
X1487Y1324D02*
X1507Y1324D01*
X1536Y1324D02*
X1557Y1324D01*
X323Y1323D02*
X342Y1323D01*
X374Y1323D02*
X393Y1323D01*
X1486Y1323D02*
X1506Y1323D01*
X1537Y1323D02*
X1557Y1323D01*
X322Y1322D02*
X342Y1322D01*
X375Y1322D02*
X394Y1322D01*
X1486Y1322D02*
X1505Y1322D01*
X1538Y1322D02*
X1557Y1322D01*
X322Y1321D02*
X341Y1321D01*
X375Y1321D02*
X394Y1321D01*
X1486Y1321D02*
X1505Y1321D01*
X1538Y1321D02*
X1557Y1321D01*
X322Y1320D02*
X341Y1320D01*
X375Y1320D02*
X394Y1320D01*
X1486Y1320D02*
X1504Y1320D01*
X1539Y1320D02*
X1557Y1320D01*
X322Y1319D02*
X341Y1319D01*
X376Y1319D02*
X394Y1319D01*
X1485Y1319D02*
X1504Y1319D01*
X1539Y1319D02*
X1558Y1319D01*
X322Y1318D02*
X340Y1318D01*
X376Y1318D02*
X394Y1318D01*
X1485Y1318D02*
X1504Y1318D01*
X1539Y1318D02*
X1558Y1318D01*
X322Y1317D02*
X340Y1317D01*
X376Y1317D02*
X395Y1317D01*
X1485Y1317D02*
X1504Y1317D01*
X1539Y1317D02*
X1558Y1317D01*
X322Y1316D02*
X340Y1316D01*
X376Y1316D02*
X395Y1316D01*
X1485Y1316D02*
X1504Y1316D01*
X1539Y1316D02*
X1558Y1316D01*
X322Y1315D02*
X340Y1315D01*
X376Y1315D02*
X395Y1315D01*
X1485Y1315D02*
X1504Y1315D01*
X1539Y1315D02*
X1558Y1315D01*
X322Y1314D02*
X340Y1314D01*
X376Y1314D02*
X395Y1314D01*
X1485Y1314D02*
X1504Y1314D01*
X1540Y1314D02*
X1558Y1314D01*
X322Y1313D02*
X340Y1313D01*
X376Y1313D02*
X395Y1313D01*
X1485Y1313D02*
X1504Y1313D01*
X1539Y1313D02*
X1558Y1313D01*
X322Y1312D02*
X340Y1312D01*
X376Y1312D02*
X395Y1312D01*
X1485Y1312D02*
X1504Y1312D01*
X1539Y1312D02*
X1558Y1312D01*
X322Y1311D02*
X340Y1311D01*
X376Y1311D02*
X394Y1311D01*
X1485Y1311D02*
X1504Y1311D01*
X1539Y1311D02*
X1558Y1311D01*
X322Y1310D02*
X341Y1310D01*
X376Y1310D02*
X394Y1310D01*
X1485Y1310D02*
X1504Y1310D01*
X1539Y1310D02*
X1558Y1310D01*
X322Y1309D02*
X341Y1309D01*
X375Y1309D02*
X394Y1309D01*
X1485Y1309D02*
X1504Y1309D01*
X1539Y1309D02*
X1558Y1309D01*
X322Y1308D02*
X341Y1308D01*
X375Y1308D02*
X394Y1308D01*
X1486Y1308D02*
X1504Y1308D01*
X1539Y1308D02*
X1557Y1308D01*
X322Y1307D02*
X342Y1307D01*
X375Y1307D02*
X394Y1307D01*
X1486Y1307D02*
X1505Y1307D01*
X1538Y1307D02*
X1557Y1307D01*
X323Y1306D02*
X342Y1306D01*
X374Y1306D02*
X394Y1306D01*
X1486Y1306D02*
X1505Y1306D01*
X1538Y1306D02*
X1557Y1306D01*
X323Y1305D02*
X343Y1305D01*
X374Y1305D02*
X393Y1305D01*
X1486Y1305D02*
X1506Y1305D01*
X1537Y1305D02*
X1557Y1305D01*
X323Y1304D02*
X343Y1304D01*
X373Y1304D02*
X393Y1304D01*
X1487Y1304D02*
X1507Y1304D01*
X1537Y1304D02*
X1557Y1304D01*
X324Y1303D02*
X344Y1303D01*
X372Y1303D02*
X393Y1303D01*
X1487Y1303D02*
X1507Y1303D01*
X1536Y1303D02*
X1556Y1303D01*
X324Y1302D02*
X345Y1302D01*
X371Y1302D02*
X392Y1302D01*
X1487Y1302D02*
X1508Y1302D01*
X1535Y1302D02*
X1556Y1302D01*
X324Y1301D02*
X346Y1301D01*
X370Y1301D02*
X392Y1301D01*
X1488Y1301D02*
X1509Y1301D01*
X1534Y1301D02*
X1556Y1301D01*
X325Y1300D02*
X348Y1300D01*
X369Y1300D02*
X392Y1300D01*
X1488Y1300D02*
X1510Y1300D01*
X1533Y1300D02*
X1555Y1300D01*
X325Y1299D02*
X349Y1299D01*
X367Y1299D02*
X391Y1299D01*
X1488Y1299D02*
X1512Y1299D01*
X1531Y1299D02*
X1555Y1299D01*
X326Y1298D02*
X351Y1298D01*
X365Y1298D02*
X391Y1298D01*
X1489Y1298D02*
X1513Y1298D01*
X1530Y1298D02*
X1554Y1298D01*
X326Y1297D02*
X356Y1297D01*
X360Y1297D02*
X390Y1297D01*
X1489Y1297D02*
X1516Y1297D01*
X1527Y1297D02*
X1554Y1297D01*
X327Y1296D02*
X390Y1296D01*
X1490Y1296D02*
X1553Y1296D01*
X327Y1295D02*
X389Y1295D01*
X1490Y1295D02*
X1553Y1295D01*
X328Y1294D02*
X388Y1294D01*
X1491Y1294D02*
X1552Y1294D01*
X329Y1293D02*
X388Y1293D01*
X1492Y1293D02*
X1551Y1293D01*
X329Y1292D02*
X387Y1292D01*
X1492Y1292D02*
X1551Y1292D01*
X330Y1291D02*
X386Y1291D01*
X1493Y1291D02*
X1550Y1291D01*
X331Y1290D02*
X385Y1290D01*
X1494Y1290D02*
X1549Y1290D01*
X332Y1289D02*
X385Y1289D01*
X1495Y1289D02*
X1548Y1289D01*
X333Y1288D02*
X384Y1288D01*
X1496Y1288D02*
X1547Y1288D01*
X334Y1287D02*
X383Y1287D01*
X1497Y1287D02*
X1546Y1287D01*
X335Y1286D02*
X381Y1286D01*
X1498Y1286D02*
X1545Y1286D01*
X336Y1285D02*
X380Y1285D01*
X1499Y1285D02*
X1544Y1285D01*
X338Y1284D02*
X379Y1284D01*
X1500Y1284D02*
X1543Y1284D01*
X339Y1283D02*
X377Y1283D01*
X1502Y1283D02*
X1541Y1283D01*
X341Y1282D02*
X375Y1282D01*
X1504Y1282D02*
X1539Y1282D01*
X343Y1281D02*
X373Y1281D01*
X1506Y1281D02*
X1538Y1281D01*
X345Y1280D02*
X371Y1280D01*
X1508Y1280D02*
X1535Y1280D01*
X348Y1279D02*
X368Y1279D01*
X1510Y1279D02*
X1533Y1279D01*
X352Y1278D02*
X364Y1278D01*
X1514Y1278D02*
X1529Y1278D01*
X1520Y1277D02*
X1523Y1277D01*
D02*
G04 End of Copper0*
M02*