; NON-PLATED HOLES START AT T1
; THROUGH (PLATED) HOLES START AT T100
M48
INCH
T1C0.064972
T100C0.051083
T101C0.046111
T102C0.039370
T103C0.051056
T104C0.098425
T105C0.031250
T106C0.038000
T107C0.028000
T108C0.035050
%
T1
X002222Y004134
T100
X002222Y003134
X002222Y008134
X002222Y006134
X002222Y005134
X002222Y007134
X002222Y004134
T101
X054147Y010134
X054147Y007134
X033722Y026634
X054147Y009134
X052422Y001634
X051422Y001634
X054422Y001634
X032722Y026634
X030722Y026634
X054147Y008134
X047722Y005133
X047722Y003133
X053422Y001634
X031722Y026634
X047722Y004133
X047722Y002133
T102
X039222Y005134
X039222Y006134
X039222Y001134
X039222Y002134
X039222Y007134
X039222Y008134
X039222Y003134
X039222Y004134
T103
X016121Y004291
X016121Y007291
X016121Y005291
X016121Y006291
T104
X044222Y001634
X044222Y007634
T105
X016722Y024634
X016722Y025634
X016722Y027634
X016722Y022634
X016722Y023634
X016722Y026634
T106
X023222Y009634
X034222Y001634
X035222Y021634
X023222Y017634
X035222Y004634
X022222Y006634
X035222Y012634
X023222Y019634
X023222Y018634
X035222Y002634
X023222Y007634
X023222Y012634
X034222Y003634
X034222Y006634
X022222Y019634
X022222Y001634
X034222Y021634
X022222Y005634
X023222Y005634
X023222Y006634
X035222Y006634
X034222Y020634
X001222Y012634
X023222Y010634
X022222Y015634
X022222Y007634
X022222Y012634
X001222Y016134
X035222Y018634
X034222Y007634
X034222Y012634
X035222Y020634
X022222Y013634
X024222Y020634
X034222Y016634
X021672Y020634
X022222Y002634
X034222Y015634
X035222Y013634
X035222Y019634
X034222Y018634
X023222Y015634
X035222Y007634
X023222Y011634
X034222Y011634
X035222Y010634
X035222Y014634
X001222Y018134
X023222Y013634
X022222Y014634
X023222Y014634
X023222Y003634
X001222Y019134
X022222Y010634
X016722Y010034
X034222Y019634
X023222Y021634
X035222Y017634
X034222Y017634
X035222Y016634
X023222Y002634
X035222Y008634
X001222Y011634
X035222Y001634
X023222Y008634
X034222Y002634
X035222Y015634
X035222Y009634
X022222Y003634
X001222Y015134
X034222Y014634
X034222Y008634
X022222Y008634
X034222Y009634
X021672Y021634
X022222Y020634
X034222Y004634
X023222Y001634
X023222Y016634
X035222Y011634
X022222Y011634
X022222Y009634
X024222Y021634
X022222Y016634
X034222Y010634
X035222Y003634
X023222Y020634
X022222Y017634
X021672Y020734
X022222Y018634
X016722Y011034
X021672Y021734
X022222Y021634
X034222Y013634
T107
X050222Y013884
X050222Y018884
X038972Y028884
X050222Y021384
X050222Y023884
X038972Y023884
X038972Y018884
X050222Y026384
X038972Y016384
X038972Y027634
X038972Y020134
X038972Y015134
X038972Y026384
X050222Y020134
X038972Y017634
X050222Y025134
X050222Y011384
X038972Y011384
X038972Y025134
X050222Y027634
X038972Y021384
X038972Y012634
X050222Y017634
X038972Y013884
X038972Y022634
X050222Y016384
X050222Y015134
X050222Y028884
X050222Y022634
X050222Y012634
T108
X015222Y015131
X003586Y013132
X015222Y017134
X015222Y014129
X003586Y015135
X015222Y016132
X015222Y013128
X003586Y014134
X003586Y016137
T00
M30
